<mxfile host="Electron" agent="Mozilla/5.0 (Windows NT 10.0; Win64; x64) AppleWebKit/537.36 (KHTML, like Gecko) draw.io/28.0.6 Chrome/138.0.7204.100 Electron/37.2.3 Safari/537.36" version="28.0.6">
  <diagram name="Page-1" id="k3S2Er54PSW2Y8lJdRcA">
    <mxGraphModel dx="872" dy="577" grid="1" gridSize="10" guides="1" tooltips="1" connect="1" arrows="1" fold="1" page="1" pageScale="1" pageWidth="850" pageHeight="1100" math="0" shadow="0">
      <root>
        <mxCell id="0" />
        <mxCell id="1" parent="0" />
        <mxCell id="OGwYj7ShU7cMMN8LMooF-1" value="" style="rounded=0;whiteSpace=wrap;html=1;dashed=1;" vertex="1" parent="1">
          <mxGeometry x="20" y="40" width="140" height="590" as="geometry" />
        </mxCell>
        <mxCell id="OGwYj7ShU7cMMN8LMooF-7" value="&amp;nbsp; &lt;span style=&quot;white-space: pre;&quot;&gt;&#x9;&lt;/span&gt;SOURCES" style="text;align=left;verticalAlign=middle;spacingLeft=4;spacingRight=4;overflow=hidden;points=[[0,0.5],[1,0.5]];portConstraint=eastwest;rotatable=0;whiteSpace=wrap;html=1;rounded=0;" vertex="1" parent="1">
          <mxGeometry x="20" y="5" width="140" height="40" as="geometry" />
        </mxCell>
        <mxCell id="OGwYj7ShU7cMMN8LMooF-12" value="" style="rounded=0;whiteSpace=wrap;html=1;dashed=1;" vertex="1" parent="1">
          <mxGeometry x="180" y="40" width="480" height="590" as="geometry" />
        </mxCell>
        <mxCell id="OGwYj7ShU7cMMN8LMooF-13" value="&lt;span style=&quot;white-space: pre;&quot;&gt;&#x9;&lt;/span&gt;&lt;span style=&quot;white-space: pre;&quot;&gt;&#x9;&lt;/span&gt;&lt;span style=&quot;white-space: pre;&quot;&gt;&#x9;&lt;/span&gt;&lt;span style=&quot;white-space: pre;&quot;&gt;&#x9;&lt;/span&gt;&lt;span style=&quot;white-space: pre;&quot;&gt;&#x9;&lt;/span&gt;&lt;span style=&quot;white-space: pre;&quot;&gt;&#x9;&lt;/span&gt;DATA&amp;nbsp; WAREHOUSE" style="text;strokeColor=none;fillColor=none;align=left;verticalAlign=middle;spacingLeft=4;spacingRight=4;overflow=hidden;points=[[0,0.5],[1,0.5]];portConstraint=eastwest;rotatable=0;whiteSpace=wrap;html=1;" vertex="1" parent="1">
          <mxGeometry x="190" y="10" width="500" height="30" as="geometry" />
        </mxCell>
        <mxCell id="OGwYj7ShU7cMMN8LMooF-14" value="" style="rounded=0;whiteSpace=wrap;html=1;" vertex="1" parent="1">
          <mxGeometry x="200" y="100" width="120" height="520" as="geometry" />
        </mxCell>
        <mxCell id="OGwYj7ShU7cMMN8LMooF-16" value="" style="rounded=0;whiteSpace=wrap;html=1;" vertex="1" parent="1">
          <mxGeometry x="350" y="100" width="120" height="520" as="geometry" />
        </mxCell>
        <mxCell id="OGwYj7ShU7cMMN8LMooF-17" value="" style="rounded=0;whiteSpace=wrap;html=1;" vertex="1" parent="1">
          <mxGeometry x="510" y="100" width="120" height="520" as="geometry" />
        </mxCell>
        <mxCell id="OGwYj7ShU7cMMN8LMooF-20" value="&lt;span style=&quot;white-space: pre;&quot;&gt;&#x9;&lt;/span&gt;Bronze Layer" style="text;strokeColor=#3700CC;fillColor=#6a00ff;align=left;verticalAlign=middle;spacingLeft=4;spacingRight=4;overflow=hidden;points=[[0,0.5],[1,0.5]];portConstraint=eastwest;rotatable=0;whiteSpace=wrap;html=1;fontColor=#ffffff;" vertex="1" parent="1">
          <mxGeometry x="200" y="60" width="120" height="30" as="geometry" />
        </mxCell>
        <mxCell id="OGwYj7ShU7cMMN8LMooF-21" value="&lt;span style=&quot;white-space: pre;&quot;&gt;&#x9;&lt;/span&gt;Silver Layer" style="text;strokeColor=#005700;fillColor=#008a00;align=left;verticalAlign=middle;spacingLeft=4;spacingRight=4;overflow=hidden;points=[[0,0.5],[1,0.5]];portConstraint=eastwest;rotatable=0;whiteSpace=wrap;html=1;fontColor=#ffffff;" vertex="1" parent="1">
          <mxGeometry x="345" y="60" width="120" height="30" as="geometry" />
        </mxCell>
        <mxCell id="OGwYj7ShU7cMMN8LMooF-22" value="&lt;span style=&quot;white-space: pre;&quot;&gt;&#x9;&lt;/span&gt;Gold&amp;nbsp; Layer" style="text;strokeColor=#6F0000;fillColor=#a20025;align=left;verticalAlign=middle;spacingLeft=4;spacingRight=4;overflow=hidden;points=[[0,0.5],[1,0.5]];portConstraint=eastwest;rotatable=0;whiteSpace=wrap;html=1;fontColor=#ffffff;" vertex="1" parent="1">
          <mxGeometry x="510" y="60" width="120" height="30" as="geometry" />
        </mxCell>
        <mxCell id="OGwYj7ShU7cMMN8LMooF-25" value="" style="image;aspect=fixed;html=1;points=[];align=center;fontSize=12;image=img/lib/azure2/general/Folder_Blank.svg;" vertex="1" parent="1">
          <mxGeometry x="50" y="119.42" width="50" height="40.58" as="geometry" />
        </mxCell>
        <mxCell id="OGwYj7ShU7cMMN8LMooF-26" value="" style="image;aspect=fixed;html=1;points=[];align=center;fontSize=12;image=img/lib/azure2/general/Folder_Blank.svg;" vertex="1" parent="1">
          <mxGeometry x="50" y="219.99999999999997" width="50" height="40.58" as="geometry" />
        </mxCell>
        <mxCell id="OGwYj7ShU7cMMN8LMooF-27" value="" style="image;aspect=fixed;html=1;points=[];align=center;fontSize=12;image=img/lib/azure2/general/Files.svg;" vertex="1" parent="1">
          <mxGeometry x="80" y="140" width="27.43" height="30" as="geometry" />
        </mxCell>
        <mxCell id="OGwYj7ShU7cMMN8LMooF-28" value="" style="image;aspect=fixed;html=1;points=[];align=center;fontSize=12;image=img/lib/azure2/general/Files.svg;" vertex="1" parent="1">
          <mxGeometry x="80" y="240" width="27.43" height="30" as="geometry" />
        </mxCell>
        <mxCell id="OGwYj7ShU7cMMN8LMooF-29" value="CRM" style="text;html=1;align=center;verticalAlign=middle;whiteSpace=wrap;rounded=0;" vertex="1" parent="1">
          <mxGeometry x="30" y="170" width="60" height="20" as="geometry" />
        </mxCell>
        <mxCell id="OGwYj7ShU7cMMN8LMooF-33" value="Object type: CSV Files" style="text;html=1;align=center;verticalAlign=middle;whiteSpace=wrap;rounded=0;" vertex="1" parent="1">
          <mxGeometry x="30" y="350" width="120" height="40" as="geometry" />
        </mxCell>
        <mxCell id="OGwYj7ShU7cMMN8LMooF-35" value="ERP" style="text;html=1;align=center;verticalAlign=middle;whiteSpace=wrap;rounded=0;" vertex="1" parent="1">
          <mxGeometry x="30" y="270" width="60" height="20" as="geometry" />
        </mxCell>
        <mxCell id="OGwYj7ShU7cMMN8LMooF-39" value="Interface: Files In Folders" style="text;html=1;align=center;verticalAlign=middle;whiteSpace=wrap;rounded=0;" vertex="1" parent="1">
          <mxGeometry x="33.72" y="400" width="120" height="50" as="geometry" />
        </mxCell>
        <mxCell id="OGwYj7ShU7cMMN8LMooF-40" value="" style="line;strokeWidth=2;html=1;" vertex="1" parent="1">
          <mxGeometry x="40" y="320" width="100" height="10" as="geometry" />
        </mxCell>
        <mxCell id="OGwYj7ShU7cMMN8LMooF-41" value="" style="image;aspect=fixed;perimeter=ellipsePerimeter;html=1;align=center;shadow=0;dashed=0;spacingTop=3;image=img/lib/active_directory/databases.svg;imageBackground=default;" vertex="1" parent="1">
          <mxGeometry x="229.38" y="140" width="61.23" height="60" as="geometry" />
        </mxCell>
        <mxCell id="OGwYj7ShU7cMMN8LMooF-42" value="" style="image;aspect=fixed;perimeter=ellipsePerimeter;html=1;align=center;shadow=0;dashed=0;spacingTop=3;image=img/lib/active_directory/databases.svg;" vertex="1" parent="1">
          <mxGeometry x="389.38" y="140" width="61.23" height="60" as="geometry" />
        </mxCell>
        <mxCell id="OGwYj7ShU7cMMN8LMooF-43" value="" style="image;aspect=fixed;perimeter=ellipsePerimeter;html=1;align=center;shadow=0;dashed=0;spacingTop=3;image=img/lib/active_directory/databases.svg;" vertex="1" parent="1">
          <mxGeometry x="550" y="150" width="61.23" height="60" as="geometry" />
        </mxCell>
        <mxCell id="OGwYj7ShU7cMMN8LMooF-45" value="" style="shape=mxgraph.arrows.arrow_right;html=1;verticalLabelPosition=bottom;verticalAlign=top;strokeWidth=2;strokeColor=#006EAF;fillColor=#1ba1e2;fontColor=#ffffff;" vertex="1" parent="1">
          <mxGeometry x="153.72000000000003" y="145" width="70" height="50" as="geometry" />
        </mxCell>
        <mxCell id="OGwYj7ShU7cMMN8LMooF-46" value="" style="shape=mxgraph.arrows.arrow_right;html=1;verticalLabelPosition=bottom;verticalAlign=top;strokeWidth=2;strokeColor=#006EAF;fillColor=#1ba1e2;fontColor=#ffffff;" vertex="1" parent="1">
          <mxGeometry x="309.38" y="160" width="70" height="50" as="geometry" />
        </mxCell>
        <mxCell id="OGwYj7ShU7cMMN8LMooF-47" value="" style="shape=mxgraph.arrows.arrow_right;html=1;verticalLabelPosition=bottom;verticalAlign=top;strokeWidth=2;strokeColor=#006EAF;fillColor=#1ba1e2;fontColor=#ffffff;" vertex="1" parent="1">
          <mxGeometry x="465" y="170" width="70" height="40" as="geometry" />
        </mxCell>
        <mxCell id="OGwYj7ShU7cMMN8LMooF-48" value="" style="shape=mxgraph.arrows.arrow_right;html=1;verticalLabelPosition=bottom;verticalAlign=top;strokeWidth=2;strokeColor=#006EAF;fillColor=#1ba1e2;fontColor=#ffffff;" vertex="1" parent="1">
          <mxGeometry x="630" y="165" width="70" height="50" as="geometry" />
        </mxCell>
        <mxCell id="OGwYj7ShU7cMMN8LMooF-49" value="" style="rounded=0;whiteSpace=wrap;html=1;dashed=1;" vertex="1" parent="1">
          <mxGeometry x="700" y="37" width="120" height="590" as="geometry" />
        </mxCell>
        <mxCell id="OGwYj7ShU7cMMN8LMooF-50" value="&lt;span style=&quot;white-space: pre;&quot;&gt;&#x9;&lt;/span&gt;CONSUMER" style="text;align=left;verticalAlign=middle;spacingLeft=4;spacingRight=4;overflow=hidden;points=[[0,0.5],[1,0.5]];portConstraint=eastwest;rotatable=0;whiteSpace=wrap;html=1;rounded=0;" vertex="1" parent="1">
          <mxGeometry x="690" width="140" height="50" as="geometry" />
        </mxCell>
        <mxCell id="OGwYj7ShU7cMMN8LMooF-51" value="Raw Data" style="text;html=1;align=center;verticalAlign=middle;whiteSpace=wrap;rounded=0;" vertex="1" parent="1">
          <mxGeometry x="230.61" y="220" width="60" height="30" as="geometry" />
        </mxCell>
        <mxCell id="OGwYj7ShU7cMMN8LMooF-52" value="Clean Standardized Data" style="text;html=1;align=center;verticalAlign=middle;whiteSpace=wrap;rounded=0;" vertex="1" parent="1">
          <mxGeometry x="389.38" y="215" width="60" height="30" as="geometry" />
        </mxCell>
        <mxCell id="OGwYj7ShU7cMMN8LMooF-53" value="Business Ready Data" style="text;html=1;align=center;verticalAlign=middle;whiteSpace=wrap;rounded=0;" vertex="1" parent="1">
          <mxGeometry x="550" y="230.57999999999998" width="60" height="30" as="geometry" />
        </mxCell>
        <mxCell id="OGwYj7ShU7cMMN8LMooF-54" value="" style="line;strokeWidth=2;html=1;" vertex="1" parent="1">
          <mxGeometry x="209.38" y="230" width="100" height="80" as="geometry" />
        </mxCell>
        <mxCell id="OGwYj7ShU7cMMN8LMooF-55" value="" style="line;strokeWidth=2;html=1;" vertex="1" parent="1">
          <mxGeometry x="360" y="195" width="100" height="150" as="geometry" />
        </mxCell>
        <mxCell id="OGwYj7ShU7cMMN8LMooF-56" value="" style="line;strokeWidth=2;html=1;" vertex="1" parent="1">
          <mxGeometry x="530" y="270" width="100" height="10" as="geometry" />
        </mxCell>
        <mxCell id="OGwYj7ShU7cMMN8LMooF-57" value="Object type: Tables" style="text;html=1;align=center;verticalAlign=middle;whiteSpace=wrap;rounded=0;" vertex="1" parent="1">
          <mxGeometry x="204.38000000000002" y="330" width="100" height="40" as="geometry" />
        </mxCell>
        <mxCell id="OGwYj7ShU7cMMN8LMooF-58" value="Object type: Tables" style="text;html=1;align=center;verticalAlign=middle;whiteSpace=wrap;rounded=0;" vertex="1" parent="1">
          <mxGeometry x="360" y="290" width="100" height="40" as="geometry" />
        </mxCell>
        <mxCell id="OGwYj7ShU7cMMN8LMooF-59" value="Object type: CSV Files" style="text;html=1;align=center;verticalAlign=middle;whiteSpace=wrap;rounded=0;" vertex="1" parent="1">
          <mxGeometry x="520" y="290" width="100" height="40" as="geometry" />
        </mxCell>
        <mxCell id="OGwYj7ShU7cMMN8LMooF-61" value="&lt;div&gt;&lt;br&gt;&lt;/div&gt;&lt;ul&gt;&lt;li&gt;&lt;span style=&quot;background-color: transparent; color: light-dark(rgb(0, 0, 0), rgb(255, 255, 255));&quot;&gt;Batch Processing&lt;/span&gt;&lt;/li&gt;&lt;li&gt;Full Load&lt;/li&gt;&lt;li&gt;Truncate and Insert&lt;/li&gt;&lt;/ul&gt;" style="text;html=1;align=center;verticalAlign=middle;whiteSpace=wrap;rounded=0;" vertex="1" parent="1">
          <mxGeometry x="204.38000000000002" y="410" width="110" height="120" as="geometry" />
        </mxCell>
        <mxCell id="OGwYj7ShU7cMMN8LMooF-62" value="&lt;b&gt;Load:&amp;nbsp;&lt;/b&gt;" style="text;html=1;align=center;verticalAlign=middle;whiteSpace=wrap;rounded=0;" vertex="1" parent="1">
          <mxGeometry x="209.38000000000002" y="410" width="50" height="30" as="geometry" />
        </mxCell>
        <mxCell id="OGwYj7ShU7cMMN8LMooF-63" value="&lt;div&gt;&lt;br&gt;&lt;/div&gt;&lt;ul&gt;&lt;li&gt;&lt;span style=&quot;background-color: transparent; color: light-dark(rgb(0, 0, 0), rgb(255, 255, 255));&quot;&gt;Batch Processing&lt;/span&gt;&lt;/li&gt;&lt;li&gt;Full Load&lt;/li&gt;&lt;li&gt;Truncate and Insert&lt;/li&gt;&lt;/ul&gt;" style="text;html=1;align=center;verticalAlign=middle;whiteSpace=wrap;rounded=0;" vertex="1" parent="1">
          <mxGeometry x="360" y="345" width="110" height="80" as="geometry" />
        </mxCell>
        <mxCell id="OGwYj7ShU7cMMN8LMooF-64" value="&lt;b&gt;Load:&amp;nbsp;&lt;/b&gt;" style="text;html=1;align=center;verticalAlign=middle;whiteSpace=wrap;rounded=0;" vertex="1" parent="1">
          <mxGeometry x="360" y="330" width="50" height="30" as="geometry" />
        </mxCell>
        <mxCell id="OGwYj7ShU7cMMN8LMooF-66" value="&lt;b&gt;Load:&amp;nbsp;&lt;/b&gt;" style="text;html=1;align=center;verticalAlign=middle;whiteSpace=wrap;rounded=0;" vertex="1" parent="1">
          <mxGeometry x="520" y="335" width="50" height="30" as="geometry" />
        </mxCell>
        <mxCell id="OGwYj7ShU7cMMN8LMooF-67" value="&lt;div&gt;&lt;br&gt;&lt;/div&gt;&lt;ul&gt;&lt;li&gt;&lt;span style=&quot;background-color: transparent; color: light-dark(rgb(0, 0, 0), rgb(255, 255, 255));&quot;&gt;Batch Processing&lt;/span&gt;&lt;/li&gt;&lt;li&gt;Full Load&lt;/li&gt;&lt;li&gt;Truncate and Insert&lt;/li&gt;&lt;/ul&gt;" style="text;html=1;align=center;verticalAlign=middle;whiteSpace=wrap;rounded=0;" vertex="1" parent="1">
          <mxGeometry x="515" y="350" width="110" height="90" as="geometry" />
        </mxCell>
        <mxCell id="OGwYj7ShU7cMMN8LMooF-72" value="Transformations:" style="text;html=1;align=center;verticalAlign=middle;whiteSpace=wrap;rounded=0;fontStyle=1" vertex="1" parent="1">
          <mxGeometry x="357.5" y="440" width="100" height="30" as="geometry" />
        </mxCell>
        <mxCell id="OGwYj7ShU7cMMN8LMooF-73" value="Transformations:" style="text;html=1;align=center;verticalAlign=middle;whiteSpace=wrap;rounded=0;fontStyle=1" vertex="1" parent="1">
          <mxGeometry x="520" y="450" width="100" height="30" as="geometry" />
        </mxCell>
        <mxCell id="OGwYj7ShU7cMMN8LMooF-74" value="Data Cleansing&lt;div&gt;Data Standardization&lt;/div&gt;&lt;div&gt;Data Normalization&lt;/div&gt;&lt;div&gt;Derived Columns&lt;/div&gt;&lt;div&gt;Data Enrichment&lt;br&gt;&lt;div&gt;&lt;br&gt;&lt;/div&gt;&lt;/div&gt;" style="text;html=1;align=center;verticalAlign=middle;whiteSpace=wrap;rounded=0;" vertex="1" parent="1">
          <mxGeometry x="352.5" y="470" width="105" height="100" as="geometry" />
        </mxCell>
        <mxCell id="OGwYj7ShU7cMMN8LMooF-76" value="Data Model: None" style="text;html=1;align=center;verticalAlign=middle;whiteSpace=wrap;rounded=0;fontStyle=1" vertex="1" parent="1">
          <mxGeometry x="350" y="580" width="115" height="30" as="geometry" />
        </mxCell>
        <mxCell id="OGwYj7ShU7cMMN8LMooF-77" value="Data Model:&amp;nbsp;&lt;div&gt;&lt;span style=&quot;font-weight: normal;&quot;&gt;Star Schema&lt;/span&gt;&lt;/div&gt;&lt;div&gt;&lt;span style=&quot;font-weight: normal;&quot;&gt;Flat Table&lt;/span&gt;&lt;/div&gt;&lt;div&gt;&lt;span style=&quot;font-weight: normal;&quot;&gt;Aggregated Table&lt;/span&gt;&lt;/div&gt;" style="text;html=1;align=center;verticalAlign=middle;whiteSpace=wrap;rounded=0;fontStyle=1" vertex="1" parent="1">
          <mxGeometry x="525" y="550" width="100" height="77" as="geometry" />
        </mxCell>
        <mxCell id="OGwYj7ShU7cMMN8LMooF-78" value="Data Intergration&lt;div&gt;Aggregations&lt;/div&gt;&lt;div&gt;Business Logics&lt;/div&gt;" style="text;html=1;align=center;verticalAlign=middle;whiteSpace=wrap;rounded=0;" vertex="1" parent="1">
          <mxGeometry x="520" y="460" width="100" height="70" as="geometry" />
        </mxCell>
        <mxCell id="OGwYj7ShU7cMMN8LMooF-80" value="" style="shape=image;imageAspect=0;aspect=fixed;verticalLabelPosition=bottom;verticalAlign=top;image=data:image/png,iVBORw0KGgoAAAANSUhEUgAAAgAAAAIACAYAAAD0eNT6AAAACXBIWXMAAH37AAB9+wGz7o3gAAAAGXRFWHRTb2Z0d2FyZQB3d3cuaW5rc2NhcGUub3Jnm+48GgAAIABJREFUeJzs3Xl4XGXZP/Dvfc5sWdtkktKmaZs2M2cmhJalIFuBUkBRWQVZlIKKLLKpqC+K+gIKCIg/F0T2RTYBlX2VHSkgpSwtaTJnJm1K23Sd6ZJ9luf5/ZEpb6ldkpznzJmZ3J/r8rK0M/dzd9I55z7PSmCMFZ3GxsZxmqaFiShERAaAkJRynJSyjIjKAIwFUJZ9eQ+ADdn/75FSrtU0zZRSmlLKiBCirb29fa1DfxXGmE3I6QQYY9Y1NTUF0+n0HCI6HMDhAMYpbmINgNcAvJbJZF5tb2+PKY7PGMsxLgAYK0wUCoUOAjBXSvlVAPU5bn+5lPJZXdfvb2trezvHbTPGFOACgLEC0tjYOMnlcn1DCHE2EQWdzgcAiOhTKeXfMpnMndwzwFjh4AKAsQIQDAb3IqLLAZyM/P3eSgDPCiGuicVi7zqdDGNs5/L1QsIYA2AYxiwAlwE4xulchmmeEOL6WCz2tNOJMMa2jwsAxvJQIBBoJqI/E9Fsp3Ox6BUp5cXRaLTV6UQYY5/HBQBjeaSurq60vLz8fwD8DIDH6XwUSRHRLQB+EYlEupxOhjE2iAsAxvKEYRgnAPgTgElO52IHIvoUwMWRSOQpp3NhjHEBwJjjGhoafF6v93op5SVO55Ij9/f29p63YsWKPqcTYWw04wKAMQeFw2FDCPEIgL2cziXHPsxkMqfwskHGnKM5nQBjo5VhGKcKId7H6Lv5A8Deuq4vCIVCJzudCGOjle50AoyNRsFg8BIiugOAz+lcHOQF8PXq6ureRCLBuwkylmNcADCWW2QYxpVEdB14CA4AiIiOqqmpqY7H4y86nQxjowkXAIzljm4Yxq0ALnU6kTy0v9/vnzp9+vRnOjo6hNPJMDYacAHAWG5QKBS6E8DZTieSx/bcvHlzYyKReAKD2wozxmzEBQBjOWAYxo0ALnA6j3xHRDP8fr8/Ho8/73QujBU7HoNkzGahUOh/pJTXO9F2daWG6Y1uNNTpaJigY/JuOsp8hIoyDaW+wa9/b79EV49ATz+wbHUay1Zn0NGZwcL2FDZsdqY3Xkr5k2g0eqMjjTM2SnABwJiNDMM4E8C9yNF3TdcIX2h245C9PNi/2YvGiTpohC1LCcRWpPHe4hTe/HAA7y1OQuSuHpBENDcSiTyYsxYZG2W4AGDMJqFQaIaU8l0AJXa31TBBx4mH+fCVg0swrsqe7T3WbhB47u1+PPZaH5atztjSxtaIqFfTtP1bW1s/sb0xxkYhLgAYs8GMGTPK+vv75wNosrMdY5ILZ361FF85yAtdy83XWQjgzY8GcNvjPVi8NG13cyYR7cuHCDGmHk8CZMwGY8aMuRvAEXbFH+/XcdU5FbjszAqEprigjbSffwSIgIYJLpx0eAka6134OJpCT79tk/b9AOri8fgTdjXA2GjFPQCMKRYMBr9FRPfYEdulA2d8uQznn1iKEm9+fH17+iVufawHD77Qi4x9cwTONE3zftuiMzYK5ccVhLEiEQ6H/UKINgA1qmOP9+u4/sJK7GW4VYdW4pP2FH5y02Z0rrdlfkACQMg0zfV2BGdsNOIhAMYUqqqq+jMRHaw67mF7e3HrZWMxZUL+fmXHVes45mAfYivS+HSN8iKgBEBVPB5/WnVgxkar/L2aMFZgQqHQwQD+BMU9a6ceWYKrz6+EL0+6/HfG5yUcfaAXiU3CjgmCe1dVVb2USCRWqA7M2GjEBQBjauh+v/8pAONVBr3gpDL88PTyEa/ld4JGhEP39kJKYEFbSmVoIqKZ8Xj8TvBWwYxZxgUAYwoEg8HTiUjpVr8Xf70M555QpjJkTu23uwe6Rpi/OKky7Hi/398aj8d5bwDGLOICgDHryO/3P0RE41QFPO2oEnz/1HJV4RwzM+xGV6/AopjS4YCmeDx+K7gXgDFLuABgzCLDME4kootVxTvqC15cdU5lQXX778yBe3gRXZ7G0k5lEwPH1dTUfBiPxyOqAjI2GtmzZyhjo8vPVAWaPF7HledUQiuib6amAVefX4kp45U+b/wveBkzY5YU0WWGsdwLh8OzAeynIpbXTbjx4jEoLym++1qZj3D9RWPgcav5u0kp9wkGg4coCcbYKMUFAGMWCCHOUhXrgpPLEJriUhUu7zQ1uHDeCaUqQyr77BkbjbgAYGyE6urqSgGcpCJW40QXzjha6c0xL5311TJMq1NT5BDRydmfAWNsBLgAYGyEKioqTgRQYTUOEXD5t8rhGgVTct0u4KdnKVvdUFlWVna8qmCMjTZcADA2cmeqCHLInl7s2+RREaog7N/swUHT1fx9iWiukkCMjUJcADA2AqFQqEJKebiKWGcfN/p6sc//mrINjo5sbm4u/A0TGHMAFwCMjYAQ4lAAlo/l27fJnben+9lpz6AbM8NKegHc6XR6lopAjI02XAAwNgJEpOTp/7SjRt/T/xanHOFTEkcIoeRnwdhowwUAYyMzx2qAilINh+w1esb+t3X4vl5UlFm/BBGR5Z8FY6MRFwCMDVNzc3M1gD2txvnSAV74PMW36c9Qed2EI/dVUgDtM3369CoVgRgbTbgAYGyY0un0XlDw3Zmzr1dBNoVtzn5KPgMtlUpZLsgYG224AGBs+EJWA+gaRuXkv23NDHuU7H+QyWQs/0wYG224AGBsmIQQlm820wNulPlGb/f/FmU+wu5TrRdCRMQFAGPDxAUAY8Ok4mazV5Cf/rfYO6Tks+ACgLFh4gKAseGzfLOZNnEU7Ps7RIrOBuACgLFh4gKAseGrsxqgYULxnvo3XFPGWy+GiGiCglQYG1W4AGBsGGbOnOkGYHnqOhcA/6dhgvUCQEpZCoC7VRgbBi4AmO2mT59elV07X/CSyaTlfec1Dago5QmAW1SWE0jBxzFt2jQ+E4CxYeDHEGYHzTCMrwOYS0SHDwwMlAKAYRjdAF6RUj7i8Xj+2dLSknQ2zeHr6empcLmsfW1KPASNS+/P6BrB5yH0DUhLcTRNqwCwSU1WjBU/LgCYUo2NjQFd1x8FsDcASPm5i3o5gOOJ6PhUKrXKMIxbU6nUbUuXLl3jRK4joWma5afMEl7+919KfdYLACKqUJQOY6MCP4cwZQzD2FPX9fnI3vx3YQKAq9xu9zLDMP4aDodn2pyeEpqmWV6z5nZxAbAtj1vJZ8JbKzI2DFwAMCWye7E/DWDsMN/qBXCmEOJ9wzDmGYZxanaiXV4SQnRbjdHTJ1SkUlS6+6w9/QOApml9ClJhbNTgAoApkUwmLwcwyWKYgwA83NXV9alhGFcGAoFaBakpJaXsshqjt9/6za7Y9CooilKpFBcAjA0DFwDMsvr6+hIp5fkKQ44HcIWmaZ8Gg8G7gsHgXgpjWzIwMGC5AEhngP4kFwFb9A1IZBR0ipSUlFjunWFsNOECgFlWUlJyBAYn+KnmI6LvENGHhmG8EQwGT4LDa71XrFjRByBtNU7n+oyCbIrDynVKhkQGWlpaNqgIxNhowQUAU6EpB20cSkT/MAxjuWEYVxqGUZODNndko9UAHZ1cAGzR0ZmyHIOI1gDgbhXGhoELAGaZpmljctjcBABXENEywzBuD4fD03PYNgCAiKJWY3Ss4gJgCxWfhZRyhYJUGBtVuABgKqzPdYPZrV/PEUIsNAzjrVAo9PXZs2fnZF8LKWXEaoyWpdafeovF4g7LIyqQUrYpSIWxUYULAGYZEX3kcAoHSykf7ezsNEOh0GXhcNhvc3uWC4D5i5MQvBoQQgAL2pQUQ1wAMDZMXAAwy8rKyuYBWOd0HgCmSimvE0IsMwzjpubm5vE2tWO5ANjULRFdYf3Jt9BFlqWwsct6JUREnyhIh7FRhQsAZtmCBQtSRHSj03lspQzARalUKmoYxpmqgxPRYhVx3l5YcEchKDdPzWcgAcxXEYix0YQLAKZEJpP5I4D3nM5jG+UA7g2FQj9QGTQSiZgAVluN88xb/QqyKWzPv6PkM1himmbO56EwVui4AGBKxGKxAQBfA9DidC7bICnljcFg8FCFMSWA16wGia1Io61j9E4GbO1II7ZCyWqIqmAw+JPsdtSMsSHiAoApY5rmynQ6fTCAvwLIpyluOhH9PwAqT+F5VUWQJ98cUBGmID3+urKde6uJ6IZkMrnCMIzbmpqa9lAVmLFixseSMVuEQqEZUspLAZyGPDmlTdO0g9va2t5WESsQCDRqmhazGqfES3ju935UV46uWjy+SeArP4zbuSXyPCL644QJEx5//fXXebYlY9vh6LaqrHjF4/E18Xj8ibFjx96u63oXgDAAR89rF0J0JhIJy133AJBIJDb4/f4zAFRbiZPOAC4d2L/ZoyKtgnHbE714v9XWSZCTAXy9q6trbnV1tXvixImta9eu5UkXjG1ldD12sJxrb29fG4lEfl1RUTGFiE4B8LJTuWia1qg45AMqgjzyUh82bM6nERN7xTcJPPpyb66am0pEvx0YGFgeCoVuDQQCzblqmLF8l5Od01SZOnXqbrquhzVNCwEYL6UsI6KxRFQupSzD4PKvLQeCbAKwTkq5GsBKKeXS/v7+1uxhLizHenp6KqWUkwDUO5WDEELpgUWapv1VCHEFLA6ldfdJ/OGRHlx1jqMdJDlz44NdThyJXCalPE/TtPMMw+DhAcaQx3MAAoFAra7rhwshDieifQAYAMZaDCsALCGijwG8BeCtCRMmfMQXAdtQIBA4VNf1c6WUJ8HhuQBEdFskElF5bDEMw/g3gFlW4xABd14+Fvs2FfdQwAeRFL5z9QbI/Di2pxPAHZqm3dTW1hZ3OhnGci2fCgAtFAodJoQ4nojmANgDuclvM4AXiOgpj8fz3KJFi/hIUYuyJ/WdCeBcACGH0/kMEZ0diUTuVhnTMIxzANyuIlbjRBce/FUVSrz59LVUp7df4vRfJvLxIKQeInogk8ncFIvF8m0ZK2O2cfxKYxhGGMBcIjpDSjnZ4XSSAJ4VQtxTX1//PPcMDAuFw+HDhBDnYnA/gLyY+b+VlBBiYiwWU7plcSgUqpBSLgOgZA36CYeVFO1QwM9v3Zzvmx9JAK8S0U2RSORp5NdS1h2aPXu2a/Xq1bOEEPsAqCGijQDaurq6Xu7s7MzZZAtWeJwqALRQKPQ1KeWPABzgUA67slpKebOu67dw9+COZZ/2zwJwDvLoaX87HjZN83Q7AhuGcSWAK1TFu/r8Shw7y6cqXF54/I1+XHnHZqfTGI6lAG5OJpN3dXR0bHQ6me2pr68vKSsru1hK+WMAtdv+ORH1Silv8Xq913DPJtuenBYAs2fPdnV2dn4DwM8wuCysEPQAuFvX9d+0traucjqZPJHvT/v/RQhxUCwWe8eO2M3NzdWpVKoDipY5et2Ev/zPmKKZD/De4iQu/O0mJFP5MfA/THk5PNDY2DjJ5XI9IaXcZwgv79A07bi2trZFtifGCkquCgAyDOMMAFcBmJqjNpXKVtN/SCaTv83XJwK7bfW0fy4GJ2UWivdN09zPzgZCodANUsqfqIpXXkK46+djEW5wqwrpiOjyNL599UZ09RREb/qu5MXqgWzB+Q6G9x1MANjPNM0lNqXFCpDtBUA4HDaEEDcDONLutnJkAxFdFYlEbkKBjBFaFQ6HZ2af9ucCKHE6n+EiormRSETJmv0daW5uHp9KpaIYPIBICf8YDbf/rAqB+sLcr8tcnsb5121EfFPRfU0cHR4wDOMRAKeM4K3vmqZ5EAbnOjBmXwHQ3Nxcnk6nr5BSfh9AYT/GbN+bAM4zTbPN6UTsEAgEaonoLCI6B4X1tL+t1UKIhuxhRbYKBoM/IaIbVMasKCXc9KOx2DtUWF+hBW1JfP/3m4vlyX9HeqSU90spb4rFYkqOiN6VbDE+HyO/dp9omuYTKnNihcuWnQADgcA+qVTqw+zklMK6cg3doQA+DIVC30cerKZQJRwOzzQM4zZN05YR0W9R2Dd/ALgtFzd/AKisrPwDFJ+G2NUrcf71G/Hye4VzaNAL7/Tje9dvKvabPwCUEdH5mqZ9YhjGS6FQ6DjYvLtqJpOZCwvXGyJSejQ2K2yqb1wUDAYvzj4F5f3EMIWecbvdZ7W0tCScTmQksk/73wJwDhEFnc5HoaSu6w25nLwZCAQO0zTtNdhQFH7ji6X44ell8Ljzs94cSEnc+EA3Hn3Fls02JQaH3PJ9PGQJgL/YNTxgGMZHAPa0EEISUVMkEomoyokVLmVfpkAgUFlTU3MfEf0YBbbFsAKGEOIbtbW1b65fv75gVgqEw+GZ1dXVVxLRPUT0FSLyO52TYg9FIpH7c9lgIpFY5vf7p8HaRXq7FrWn8NbHSewZdMM/Jr+O8Yh8msYl/28z3vjQtp6Kv2iadhqAFIAm5O9clCoAX9R1/eLq6upJ1dXVSxOJhLK9J/x+/7Ww9ncnAAPxePxfilJiBUzJo0RjY+MkXddfxOAXczTrBnCmaZqPO53IjjQ2No7TNO0sFN/T/vbsb5rme7lutKGhYazH41kAYJod8XUNOO2oUlxwchnKS5ztDegbkLj32V7c9VQPUvbNi2/r7u6euWVTm0Ag4NU07VQAPwIww7ZW1VG2esAwjHUAaizmE89uilU440rMFpavHsFgsEnTtBfyYBe/fJGRUl4UjUZvdTqRrRX6TP7hIqJ3IpHIQU61bxjGfhg8b8K2xfzjqjR8+9hSfG12CXye3BYCfQMSj73Wj7uf6cH6jbaO9Q8Q0axIJPL+9v4wFArNkVJeBOA4FMbwwM3JZPLukQ4PKBgC2OJ00zQfVhCHFTBLX5hAIHCApmkvA5igKJ9ioBHRMdXV1elEIvFvJxNpbGwcN27cuAv9fv+9UsqfApiJ4p2U+TlSyssSicQnTrUfj8c7a2pqugAcbVcbPf0S8z5O4vHX+yEkMGW8bvs5AvFNAg+/1IfL/rwZL88fsP1UPynlRaZpPr3DfOLxpfF4/JHa2tr7MDg8sDvyt8CtAvCl7PBA/UiGB/x+fxDAgQpyqY7H4/cpiMMK2IivFoZhzALwAgaP4GXbIaX8ZTQavTrHzZJhGHMwuFnPCbDxCVQxCSADNfNHOisqKhoWLFiQUhDLCjIM458ATsxFY7oGHDzDi2Nm+XDwnh5lwwNdvQLzPk7imXn9eHthEpkcTe4nonsikch3hvOeurq60vLy8jOklBcT0R525aaIBPCKEOJPsVjsWQxhX5FAIHCgpmlvq2hb1/VQa2trVEEsVqBGdIVoamraI5PJvAlFB6AUMyL6aSQSud7udqZPn141MDDwdQCXAGi2uz2FNgD4u5TyH0T0LBT0UDhUeG1XXV1daUVFxctSShVPbUOma4Tdp7nwhd3dmN7oxtQ6F+rH6XDtos8vnQFWrM1gaWcaC2MpvLc4hdalaWREbveOIaI3MpnMl6yMU2eHBy4GcCyKaHggGAwuUlHcSClviEajl1mNwwrXsAuAcDjcIISYB6DOhnx2iXQd7vHj4ZlUD09dHVwVFaDSEug+H+ByQfT2QvT1QfQPILV6NZIrVyK5ciUy3T1OpAsMVvnfNk3zrzbEJsMwjsDg0/7xKKyn/dcA3O52ux9vaWlJhkKhX0spf6Eg9kAmk5nc3t6+VkEsJcLhsF8I8SYGu6cd49KBCTU6yksIlWUaSn2DX/+ePomuXoGuXolV6zM5e8LfESnlJ6lU6hBVy+jC4XCDlPJCKeXZyP+Hlm4p5f0AbopGo63be0EwGLyEiP6ooK21brd7UktLS1JBLFaAhlUABAKBWk3T3kION4chXUdJUxhle+6J0ul7wBcyQPrwi/nU6jXoWbgQfYs+QfdHHyOzaZMN2e5QUgjxxVgs9oaKYFOnTt3N4/F8S0p5DoBGFTFzZC0R/VXTtDu27nrMzur+FMA4BW381TTNbymIo1R2pcw8AJOcziXPLRFCHBaLxVaoDlyAwwMvCyFu2nZ4INvbtxIK5joQ0SmRSOTvVuOwwjScAkA3DONfAObYlczWfI2NqJwzG2MOPQT6mDFqgwuB7g8+xObX30D3f96DGMjJapiEEOILsVisfYTv17Ya2y+0p/1Xieh2l8v1xPaeNgzDOAvAvSoa0zRt37a2tgUqYqlmGEYYwMsAJjqdS55qz2Qyh7e3ty+3u6ECGx5oB3BzOp2+e8mSJZsAwDCM+zC4oseql03TPEpBHFaAhlwAqD7zfLuIUL7vTPhPORklodwcLS96e7Hx+RcR/+djyHR3293cwt7e3gNWrFgx5K3SCvhpfwOAv2cnOO10e1zDMOYD2FdBm2+ZpnmIgji2aWpqmpLJZF4EkJt/4IUjkslkjsrFzX9roVBoKoALCm14ILtpl4pVRlIIEbTwYMIK2JAKgFAodLiU8iXYWCmX77cvas88A94pU+xqYqdEby82PP0s4v/4p909An8xTfPCXbxGCwaDRwA4l4iOR+Es3ZMAXiGiO3b0tL+t7GoSJcsliejUSCTyqIpYdsoeq/wsgC84nUuemKdp2vFtbW1xpxKoq6srLSsrmwvgokIZHgAwC2qWPF5nmubPFMRhBWaXBcDUqVN3c7vdH8Kmtf7u2lqM++53UHHgAXaEH7bU2rVYc/ud6H5vvm1tSCmPjUajz2z7+9kjZb8F4BzYtIucTdYAuDeTydzZ3t4eG84bDcO4B8C3FOSwoq6ubqqT57QPR3Nzc3kqlXoEwFeczsVhjySTyW91dHT0O53IFgU2PKDC6oqKisl5sGyW5dguCwDDMB4CcLodjY85Yg7Gn38uyJt/5wZt/vdbWH3zLRC9vXaEX5lMJvfIznLWAoHAkbqunyulPA6F97R/u8vlenKEM4l1wzDWAFBxBsHlpmn+RkGcXKJQKHSJlPK3KJyfuyoZIvp5JBK5AXl6Pn0oFKqTUp4L4CKo+Teat6SUJ0Wj0ceczoPl1k4LgOwSs5eVN+r1Yvz3zsOYOYerDq1UctUqdN7wO/S3qx8eI6KHpJSfAPguCu9p/x4hxJ1Wxw2zF9iVCnLqAzDZNM31CmLlXDAYPJSIHsLomRy4UtO0M9ra2l53OpGhmDFjRllfX98ZRHQxCmuPjSGTUr4YjUZt27WS5acdFgDNzc2eVCr1MYCwygZdVVWYdNUV8DY4M9Y/XDKVQufvfo+ut99xOhUnCWSf9svLy59U1VUYDoenCyEWWo0jpbw7Go2erSInpwQCgVpd1++SUh7rdC52IqKHPB7PRYsWLdrgdC4jsGWXzS3DA/l1JKM1gogCkUhkqdOJsNzZ4fhWVVXVZQBOVdmYe7fdMPmaX8E7qV5lWFuRrqPiwAOQ2bwZ/bFhDW8XgzUAbhZCfDsajf4pHo8vXrVqlbJtYmpra3Up5Y+sxiGib8fj8TUqcnJKIpHojcfjf/P7/QuJ6EAAite+Om45BjfEumbt2rV5M94/XNmzBx6uqam5n4jy/Wji4SAi6o7H4686nQjLne32AGR3LusAUK6qIU/9REy+9hq4xhbudW3dvfch/ljenvSriiCil4UQt1dWVj5l88QgzTCMVbCwARARvRGJRGarS8l5M2bMKOvv7/8lgEtR+HMDkgB+7/P5fr1w4ULHtuO0S5END3TW1dVNKZSJtMy67fYA+P3+ywEcqaoRd40fk6/5Ndz+alUhHVG25wyk169H/5Ki7CVbDeAmDD6l3ZRIJFpVPu3vgKyurm4ior1HHEDKHyUSie1umVqo1qxZk4rH4y/X1NQ8isGegGYUXndzBsD9RPR10zT/sWbNmqKcYb5mzZpUIpFYEI/Hb/H7/f/G4M/LgIKj1h1Q0dXV9WE8Hm9zOhGWG//1j3TatGljXC5XB4CxKhrQysow5frfwDu5SHZAFQIrrvkNuudv93jyQiOy+zvckYOn/e0KBoNNRLQII1tutdA0zb0xhFPUCplhGNMA/BTAWcj/HSAHshMar49EIhGnk3FCKBSaKqW8EMDZUHQdzaHnTNP8qtNJsNz4rwLAMIyfAbhWTXRC/c9/hvIv7KckXL7I9PRg2aU/RnLVaqdTGalVAO4hojvzYdKPYRjXALh8mG9LSSkPiUaj/7Ejp3wUCATqdV0/H8BcKeVkp/PZxgoAd6VSqVuWLl1a0PMxVCnQ4YFMOp2etmTJkk+dToTZ73MFQPZQluUAalUErz7hOIz7zrdVhMo7/e3tWPY/P4NMFUzP5pan/dsrKyufzrNNP3TDMO7H0PebSEspz4pGow/ZmVQe08Lh8KFSyjOllCcDqHAoj00AnpJS3h+NRl9BkffEWFBoqwd+ZZqmvdu+s7zwuQIgFAqdLKVUcjKUb9pUTLnxBpDLpSJcXko88STW3n2v02nsyioiupuI7mxra+twOpmdIMMwLgPwCwBlO3ndEk3Tzi6UNeR2q6+vL/H5fIdomjYHgwd17QP7dq8TAFqllC8T0TMVFRVv5FkhmfcKZHigoHbVZCO3bQHwlIp1yKRpmHz9tTk70McxQmDpD3+EgaUdTmeyLQHgXwBur6ure7qQvshNTU0TMpnMtzH4pNSIwR3Y1gD4AMCjbrf7YT6/fMemTZs2RtO0QzVNm47BA4fCGJyUNtybTRJAG4BWAIsBvJ9MJt/O7l7JLMoOD8zNDg/s7nQ+2xJCHBeLxZ52Og9mr88KgEAgUKtp2kooWHY09ktfxPgLv2c1TEHoa23Dsp9eDsi82M10NYC/ArjdNM0lTifD8sfUqVN38/l8tel0uoyIKohorBCinIjcRLRRCCE0TdugadraTCazulB3VSxAZBjGHCnlJUR0DPJkeICI/hmJRE52Og9mr88KgGAweAkR/dFyQK8Xgbtuh15ZaTVUwei88f9h85tKDrQbCQHgRQw+7T9TSE/7jLH/kx0eOA+D24M7ffbA5oqKihoe4ilunxUAhmG8BeBgqwGLeeLfjgwsW4all/ww170AnUR0t6Zpd7a2ti7LZcOMMfs0NDT4PB7PKQB+DGC6U3lkMpngcE/3ZIVFAwaPJoWCs8nJ7Ub18cdZTqq0gRrYAAAgAElEQVTQeKdMQfn+OTnaXQB4mYhOqaioaIhEIr/kmz9jxSV7NPJzGBzO2+xUHrquF/bObWyXXACQSqUOgYKx/8pDZsHld7rnyhnVxx2L7ndtW5K+Ukp5t8vluotv+IwVr3A4PFMIcS6AuXD+jAGeB1LkXABARHOkgu7rMYfPthyjUJU27w73+N2QWq1sDxQB4NXsCXxP8FgcY8WpoaFhrNfrPVcI8V0hRNDpfLK63W73CqeTYPbaskh/jtVA7ho/SqbvYTVM4SJC5WGHIv6I9W0UpJS3ZjKZ3/BuXIwVNTIM41IAv5BSjiXKn+MDpJQv8HLb4qc1NDT4pJR7Wg1UcfBBIC0vVrA4pvKQWUriaJr2Ft/8GStes2fPdhmG8TcANyL/NgSSGMyLFTnN5/MFoWDnsNIZMxSkU9i8kybBVVWlIlSTiiCMsfy0atWq3wE41ek8tkdKedtoOmNjNNOklGHrUTSUNufdZla5R4SyGdZX7Ugp+cNkrEgFAoEDpJQXO53HDrxQWVl5idNJsNzQhBCG1SAlgUZopaUq8il4JXsoOfSLCwDGipSmab/Adk5idVhKSnlDXV3dsTzhePTQiMjyhv2eyfl2MqlzvFOmqAjTGAgEvCoCMcbyx7Rp08YAOMrpPLayWUp5K4BwNBq9jHcSHV1cABqsBvHWT7SeSZHwTKxTEcaladpEALyfP2NFRNO03QF4nM4DwAIAt7vd7odaWlq6nU6GOcMFwPKm/Z6JXABsoVdUQK+sRGaztQ28pJS14AKAsaKiadpuDja/EcCDRHR7JBJZ6GAeLE+4AJRbDaKrmfleNFzVVZYLAAC1KnJhjOUPItqkYtO1YVoA4Hafz/fgwoULe3LdOMtfLgAVVoNoJU7vWJlfNJ/PegxN41mVjBWfCAbX2ds9CXADEd2fyWRuj8ViLTa3xQqUi4jKrVakXAB8norPQ0ppvYpgjOWVSCTSaRjGxwD2sqmJfwO4I5lM/j17qBBjO+RScaPRPJbPESoqKnoAiIg/VMaK080A7lAYbyOAR4noZh7bZ8PhIqJ+KaWl7mYxkLS+lWAREf3WC28pJY/VMVaE6urq7l21atV3pJQHWgy1AMDt3d3dD3R2dvaqyI2NLi4pZRcAawVAX5+idIqD6FNSAHQpSIUxlmdef/31dCAQOEXTtH9j+Muw1xHRX4nojra2NtOG9NgoogGwfKPhAuDzFH0eXAAwVqRisdgKXdcPAvDaEF4uAbwC4DS3210fiUR+wjd/poILgOVNINKJhIJUikc6HlcRxvI6QsZY/mptbV0F4AjDME4govOllIcC2HoC0WIAT2Yymbvb29tjzmTJipkLCm40yRUrFKRSHNIbNyHTbX1jLR4CYGxUkKZpPg7g8ZkzZ7q7uromSSm9qVRqVUdHx0ank2PFzQWgA8ChVoIkV3YqSaYYJFeuVBEm7fV6l6sIxBgrDNlDeHj3T5YzGoA2q0EGli1TkEpxSCr4LKSUS1taWpIK0mGMMca2S5NSRqwGGehYBtHDq9YAoGfhIssxiMjyz4QxxhjbGSUFgMxk0LvoExX5FDYp0fuJkl03uQBgjDFmKw1ADIDlM6B7Pv7YejYFrn/JEhWHAAEKhmUYY4yxndFisdgAgA+sBuqa9zZkJqMgpcLV9e95SuIIId5WEogxxhjbAS37/69aDZTeuAk9H35kNUzBkkJg85tvqgi1JhaLtaoIxBhjjO2IBgBSSssFAABsenUom1oVp96PFyK1XskGQK9icOcvxhhjzDYaAPT09MwDMGA1WPc77yK5apXlpApR4oknVYVSUowxxhhjO6MBQGdnZy8RvWs1mMxksOFxZTfCgtFnRpUNfxDRK0oCMcYYYzuxZQ4AhBAPqwi48ZVXVXWFF4z4I4+qCvWfSCSyVFUwxhhjbEdcW37h8/keGRgY+AMAr5WAMpXCunv/irofX2o5uULQ89FH6J7/vqpw96sKxNgWzc3NnmQy2SilHKdpWhkRlUkpqwCUASAA3VLKLiLqI6LNmqYt1zRtGe9GyUarUChUAWAqgJpMJlOmaVoZgEopZSWAAU3TegB0ZTKZTbqu90gpV5mmuQxAQS2Fo63/IxQK/UNKeZKKwJOu/F+U7bO3ilB5S6bTWHrxD1Tt/58EMNE0zfUqgrHRKRwON2QymdlENB1AGEAIg2fO68MMlQHwKYB2AK0A3s5kMvPa29v5jApWTMgwjBkAZgHYHYPflxCA+hHEGpBSRjVNi0gpI1LKD4jojXy+pm9bABwvpXxCRWBPXR0a/vj/oHktdSjktfUP/Q3rH1bW/f+EaZonqgrGRodAIFBLREcR0RwAhwOYZnOTy4no31LKp4no2UgkwqdWsoISCoWmSimPBHAEgDkAam1sTgBYCOA1KeWrPT09r3Z2dvba2N6wfK4AyB5H2QGgTkXwMUcegQmXXKQiVN7p/eQTLP/llco2P5JSHhuNRp9REowVtUAg4NV1/VgAZ0opjwbgdiiVfgAvAvin2+1+vKWlxfo52IzZYNq0aWNcLtfxAOZi8MZPu3iLXfoAPCOEuD8Wiz0Hh4cM/utDMAzjUgC/U9XAhB9cgjFzDlcVLi+kN25Cxw8uRTqRUBXyY9M09wav/2c7EQgEmonoIiI6FUCV0/lsYxOAu4UQN8disXank2EMAEKh0BwAZ0spTwRQ4nQ+21hGRPe7XK6bW1paVjuRwH8VADNmzCjr7+/vAFCjpAGvF5Ov+TVKjKCKcI6TySSWX/krVYf+AACI6NRIJKJsLIEVl3A4PFMI8XMAx2OrlTt5SgB4joiui0QiavbGZmyYQqFQSEr5Fwx28ee7PgB3pdPp3y5ZsuTTXDa83W6QYDD4cyK6WlUjekUFJl93LbyTRjKvIn/ITAadv/0dut5+R2XYNtM0mzF44WTsM4FA4ABN064AcLTTuYzQk0KIn8diMXXVMmO7YBjGLABPIf96yXYlCeB+TdOubmtr68hFg9stALLjJR0AxqpqyF1bi8m/uRruceNUhcwpKQTW/OVWbPzXS6pDn2Wa5n2qg7LCZRhGjZTyeiL6Npwbq1QlQ0T3uVyuy53q5mSjR1NT05RMJvM+FPVgO6QPwA1CiN9kD+uzzXaXBm3YsGGgpqZmAAqfPERvL7r+PQ9le+0JV5WyuiInZDqNVb//ox1nHSwwTfMS8Ng/G0SGYZwJ4EkimoXCv/kDg0MWewshvuv3+zfE43HLJ48ytiPV1dUPAtjL6TwscgOYTUSn+P3+tng8vsSuhnZ4gZk9e7ars7PzfQB7qmxQKytD/S8uR2nz7irD2ibT04OV192A3o8Xqg4tABxgmuZ81YFZ4QmHww1CiAcBHOR0LjZ7PpPJnMf7CTDVDMPYE0AxHkl7PxFdaMeS2x1uDtLR0SH8fv8HAM6GwicRmUph02uvA1KipHl3EOXvQ05/+xKs+N+r0G/PpOZbTNO8w47ArLAYhnGClPI5AIbTueRAUNO079TU1LTG4/GI08mw4uH3+78HYLbTedhgTwAnVVdXv5VIJJQOo+10d7B4PL7S7/dPBrCPykYhJXo/acFA+xKU7bUnNJ9PaXjLpMSG555H5w03IrNpkx0trPV6vV9bu3Ztvx3BWWGYPXu2y+PxXAvgT8i/JUp28gE41e/3l8Tj8dfAQ2BMAb/f/yMUbxHtJ6Kz/H7/ung8vkBV0F0+fk+fPr1qYGDgQwBTVDW6Nb28HLVnzcWYo44Eac6vcBpY2oHVt9yKvjbbHk4kgK+Zpqlkx0VWmMLhsF9K+bSU8kCnc3ESEf3L5XKd3tLSomxTDTY6hUKht0fD94mI7pkwYcK5r7/+etpyrKG8KLsc6U3YuONYiRFE7VlnonT6HnY1sVPpRALxv/8TG55/ARD2rciTUv4xGo3+wLYGWN4LhUJ1UsoXAEx3Opc80SqE+GIsFlvhdCKscBmG8TwKd8nscD3T3d19qtVthYd0QEgikVjh9/t7AXzRSmM7k44nsOnV19Dz4UdwVVXBM2ECkIP5Aam1a7Hu/gex6g9/Gnzql7b2Rs73eDynr1u3rqBOjGLqBIPBJiJ6HcXbVTkStUT0tXHjxj23fv167glgI1JdXb0fER3gdB45Yng8ntl1dXWPWxlKHs4dlgzDeAzACSNtbDjctTWoOPQQjD3qSHjqlBxN8BkxMICe9xdg06uvoXvBB7Y+8W9lI4CZpmnatqSD5bfsjn4vAvA7nUueWqXr+hdbW1s/cToRVnhCodDhUspXnc4jx1oymcyc9vb2tSN587AesbMbBL0BxUsDd8UzeTLK95yB0hnTUbJ7E/SKimG9X6bT6F+yFH2LPkHPwoXoW9wKMWDr/grbSkopj4lGo8p3EWKFobGxMaDr+lsAdnM6lzy3Vtf1Wa2trVGnE2EFR9s3tHt0s0zbfSJmvlmYTCYP6+jo2DjcNw67j72pqWlCJpN5C/YfO7pD+pgx8NZPhGfCBGhjKqGVlEAvKQFcLsjePmR6eyH7+5FcvRrJFSuRXLMmV0/52yMAfNM0zYedSoA5KzvmPw9Ag5N5VJYRpkxwocxHqCgllPoGJ9329gt09Ur09EssW5XG5h7HJ+WbQohZsVhsndOJsMIQ/fKXvWPSY274uL/74kvWmKRqjLVWd2OCywsfEco0HWWkIwWJPinQKzLYJDJYnupHv3R8J/dXhBBfHe7OgSMaZA8EAo2apr0FYPxI3j/KXGqa5u+dToI5I7uK5g3keMJfmY+wT9iNL+zuwfRGN6bW6RhbMbRVNhs2CyxdlcGiWArvLU7ig0gKvf05Lwrmu93uOXzEMNuVNXNObSSNHkV2ufqT3etxY+LTYa8trdbdmOmrwD7ecgQ9pZjs9qGUhvadWZ1OYnm6HwsHurGgvxuLB3qQzv3q1r+bpnkahnGuzIhn2QUCgX00TXsFCs8LKDZEdHUkEvml03kwx2iGYfwLg+eP267URzhyPy+OmeXDvk0e6IpW1WYE8F5LEs/M68er7w/kshh4zDTNk8H7BLAdWPfFb8yUQjwH4HOHzLzVtwnXxjuwWey8L6Bac+FL5X58qbQajZ4SZTve9UuBeX2b8GJPAv/p24Qczvq+zjTNnw31xZb+voFAoFnTtBcAFPYxf+pJAL8yTfNKpxNhzjEM4woAV9rdzuTddHz72FJ8+UAfSrz2rpzpG5B47u1+3PNML5avsf+yRkQ/jEQif7C9IVZw1h1xyuGStCcAVG7vz7tFBv/oWos3+jYhluz9rIos13Qc5KvEnNIqHFg6dmhL4SxIZFJ4qieORzevxWZheen+rggAx5im+fxQXmz5apE9felFACGrsYpEhojOi0QidzmdCHNOdkbySxjiUtuRmFbnwnknluKo/b3QtdxuqZ0REi++m8Rtj3ejY5WthUBKCHFoLBZ7185GWGFZc9RpJ5LE3wB4h/L6fiGwSabhhYaxusvm7LavTwo80bUOD2xeg032FgLrhRB7D2VfDSVXjUAgUKtp2nMA9lURr4D1APj6UKsvVpymTp26m9vt/hDABDvil3gJ53+tDGccXQqX3Y8vu5BKA399tgd3PtWLvgF7euqJ6NOBgYE9RzLLmRWf7JP/8xjizT/fdIk07t60Go91r0PGvn1n3q2oqDh0wYIFqZ29SMnlI5FI9FZUVNzvcrkqAeyvImYBihDR0aZpznM6EeascePGPQBgPztiH7CHB7deNhaH7OVFHuycDV0D9gl78JWDfTCXpdG53pbZ0GN0Xa+Ox+PP2BGcFY41R5w+A4QXACp3OpeR8pKGA0oqsb+vEh8NdO9ynsII1SeTyd54PP7Wzl6kvN8wFAqdIaW8BUDB/oBG4H63230Bz1hmoVDoaCml8h4gXSOcc0Ipzj2hNOfd/UMlJXDvs7246dEeZITyJxsJ4FDTNHd6QWPFa/UXvz5VE/q72GbCXyHrlQI3Jj7Fv3rUb4BJRL0A9ohEIkt39BrlHYjxeHyh3+9/HMBhKPJNT4iol4jON03zf9etW5d0Oh/mrPr6+hK32/0sgCqVcSvKNPz5J2Nx/KE+aHl8fDYRsLfhxoyAG298mEQypbQIIAAHVlVV3ZlIJHgr7VFGzjzX3edLPQ0g7HQuKrmJcFjpWIzRXJg/0KV6uYsbwJR4PP7Ijl5g29Vk5syZ7u7u7guklFejOHsDniGiS3ZWXbHRJRgM/oqIlC77rBmr4ZbLxsKY5MzEpZGKLEvjezdsRHyT8iGBn5mmeZ3qoE7LXi9PlFIeAyAopfQT0VoAHxLR45FIpKi3uA2HwwcJIU7C4BByLYDNAGIAnuzt7X3yg9AhvwHJ7zuapM3e6N2Iq+IdSCreVEhKeWw0Gt3u8JntjxOGYUwE8BsAc+1uK0dWArjcNM37nE6E5Y9p06ZNdrlcJhROTJpYq+OOy8diYq3DM/1GaMXaDM65diM61yt9YE+k0+lpS5Ys2aQyqJOCweBXieiPABp38rK3dV0/r9jOSchuKncHgMN39Bofaesv90/xzymtyt/uL0U+HOjGT9bGVO8sGKurq2va3vHBtl9Z4vF4Vzwef7y6unoBEe2Bwh0W2Ajguu7u7tM7OjredzoZll9qa2uvAaDsLHL/GA13Xl6FSbsV5s0fACrLNByylxcvvDuAfnUrBEo0TUvG4/HXVQV0kmEYPyKiu7HrA6ImSSnPrKqq+iSRSJi5yM1uhmEcQkSvAmja2evSkKWv9W6klJTY1ze8c2AKzQSXB4a3FK/2bBj6dn67Vt3V1dUej8c/3vYPcl5RGYZxJIBfAyiUYxvXA7g5mUz+gZchse3JLvtbCqBERbzyEsKdl49F01S3inCOW7w0je9eswE96nYQ7BZCTCv0swJCodDJUspHMbzrcAbAGYV+tkj2cKz/AKgezvt+UFWPkyuKZg7gDv2rJ4FfxztUzgloM02zGdtsE5zzx4t4PL4kHo/fVV1d/TaAcUQ0FUAeLGj6PClllIiu9fl8cxcvXvzSxo0bR3zmMituu+222xUYnPRqGRHw24vHYr/dPSrC5YXaKg1Txuv413+UncDpAdCfSCReUxUw15qbm6szmcwrAHzDfKsG4Pjq6uqWRCLRakNqOVFbW/sAgBnDfd+CgS4cXeZHuVa4PWND0egpQRoSHw8oW1hWU1NT0xKPxxdv/ZuOfYqJRGJJIpF4oKam5k4iWo7BoQFbNk4Zho0A/g7gx9Fo9NJ4PP7OmjVrdrqRAhvdshfyBzF4U7LsjC+X4ptfUtKRkFemTXRhc7fEonY1XyciCjU0NPxp1apVjh/DNhJVVVWXAfjSCN+uE9HXCrUICAQCBxDRiCZyCgAZSBxYMkZxVvlnL18FPhrowuq0sgVmwXg8ftvWv+H4k3ckEumMRCJ/NE1zHyHEPgCuAvBvALlaVmdKKW8FcKIQYrxpmmeapvky+AASNgTJZPKbULTKZfepLvzg1GJcMDPoh6eXIdygbFhjfHd394mqgjngaxbf7yaih4PBoNU4Oadp2nesvP/N3o2j4uKsA7jCPxWVmrIVQHsFAoHPDb3n7azKGTNmlCWTyVlCiMMxeMyjAWAyrOW8AUAEQAuANwG8YprmSsvJslHLMIz5ULAFtq4RHvrVWJU3yLzU2pHGN/93g5KNgqSUr0ej0R3OHs9XDQ0NPo/H06coXEHNCairqystLy9fhR0c4DNUT0ycjhq9uL8rWzzVvR43JD5VFe4vpmleuOU/8rYA2J66urrSsrIyg4hCRDRBCFFOROVENDb7axeATUS0WUrZI6XsBrCeiNqFEG2FPmmI5ZdgMNhERIt3/cpd++aXSvE/c4v36X9r19zThUdfUXL/k7quh1pbW6MqguVKIBCo1zRtucKQKSnladFo9DGFMW1hGMZcAJaXUN8zPoygp1RBRvlPSInvrTXRMtCjIlzC7XZPaGlpSQJAQe0u0tnZ2Qvgo+z/GHMUEZ2pIs7YCg0XnFymIlRBuOTUcrzwbj8291juBSAhxIkAblCQVs4IIbo0tQc5bBkOKIQi4FsqgpQV+STArWlEuLRqEr67uk3F0Ed1KpX6KoDHgTyYA8BYoSKib6iIc8bRJSgvKajOOEsqSgnf/JKapzcp5fFKAuVQdhOjNYrD5v2cgKlTp+4GYLbVOD5NQ61ePKtkhiLkKcXBpWOVxCKib275NRcAjI2AYRhhKeVkq3EqSjWcemTxzfrflW98qRRlPiVFzwHZG0tBIaLnbAib10WAy+WaAwX3nP19lXDn8ZkYdjmzUs0/cynlEciuAOQCgLERICIlk89OmlOCyrLR9zWsLCOcNEdJ4aN5PJ5jVATKJSnlHwGVm719Jm+LACI6QkWcOaVKz9oqGLt7yrC3V8k8obGhUGhvgAsAxkZECDFHRZzjDlF2dEDBOf5QNT0fUspDlQTKIdM0P5ZS3m5T+HwtAix/Zyo1HYeMgj0AduQr5bvaMXrI5gBcADA2EhoRzbYaZPepLjROLKh5uEoF6nVVyx73VxEk1zwez/cxuOeJHfKqCAgEAo0AplqNc2RZNTw0em9bh5dWoUTB319KeTjABQBjwxYIBJoA1FiNc8zBo2/sf1tfPUhJD4jR3Nw8rD3l80FLS0tSCHEMEb1jUxN5UwRomnawijhfLCu4H7NSPtIwS81kwFkA1K5FYWw00HV9p6eXDdWBM0bHRiY7c+B0JbO5KZ1Of0FFoFyLxWKbvV7vURjcmMwObiJ61DCM02yKP1RhqwFKSUN4lKz935n9vEpORCyfNm1a/ejtf2RshIQQIbI4C9k/RsPUCfz1C9S7UF2pIbHZ8ny42wzDKMiNvvr7+wFF20nvgA7gvmAwmHRwnwDLBcA+JZVwFdbedbaYqehIZE3TwnwFYmyYiChkNcYXdvdgFK5k+i9EwH67u/Hiu9ZOCswuybS8LLOIOb1ZkOXvjKIZ8AVvN5cH9W4vVqSsfWeIKMRDAIwNn+WLWXjK6NnJbFeaivz8gzziJqKHDcM4IZeNzp492wWg0WqcgJvnzGwRcFn/LLgAYGxkAlYDNNTxTW+LhglcDOWQm4geDAQCe+eqwVWrVk0CYHm252S3T0E2xaHBY70AkFIGuABgbHgIgOWFyHzT+z9T+LPIKSllKRHdhxytAstkMpanrZeSNmpO/xuKyS7rq2eIaCwXAIwNQ11dXQmy22haMaGGv3pb1NVwAZBrRLRHKBQ6KRdtaZpmefB+N5eXp/9tZbxLyeqZCp4EyGwTCoVCUsojiKhOSqkBWEFEr0QikYjTuY2U12t9DY7bBXjdfDnbwuchuHQgnXE6k9FFSnkygL/noCnL35nRdPrfUJSSks+DCwCmnmEYRwC4Vkr5BQCQ8v8OsZRSwjCMjwH8ube398EVK1YoORg+V3Rdt/w0U+Llm/+2Sn2k4nhgNjy52kHRcgGgYve7YqKoIKrgT5WpRKFQ6GoALwHY2cYsewK4o7S0dLlhGNdNmzatYJZvqejOLCvhr922+DNxRE5OUSSiMqsxSnjPus9RVBCV86fKlDEM40op5c+BIQ/X+QFc5nK5lhqG8bRhGEfamJ4SQoiU1RjJFD/pbos/E0d056IRKaXl70xa8r+PraVg/fMgoiQXAEyJcDh8EIBfjvDtGoBjALxkGMYHwWDw2w0NDXm55kdK2WU1Rt8AX8y21dvPn4kD2nPUjvXvjLTj5OTC1SusT5iRUnZxAcCUkFJei6E/+e/M3kR0t8fj+TQUCl1tGMZEBTGVyWQySgoAwdezz2SERH+SCwAHPJ+jdix/Z1Tc8IpJj1TyeXABwKwLBAL1NpzJXpsdTliWT8MDDQ0NlrtNpQQ2dnMFsMXGLgnu4c25PiHEXTlqy3IBsFGkVeRRNDZmlHweXAAw6zRNmwM1T//bo+P/hgfmG4YxNxAIKDlDdiRef/31NADLKxeWreInmi06VvHF3QHXx2KxFbloSAhhuWhem06in4cBPrM8be0cgCwuAJgS9TlqZ18A92matswwjCubm5vH56jdba20GqBjNRcAW3RwMZRrz5im+etcNSaEsPx9kQCWp/oVZFMcPlXzWazkAoBZRkS5voLvBuCKVCq1zDCMR0Oh0ME5bt/yRkbtK/ipd4v2lfxZ5NBLvb29pwDI2eP0kiVLNgFYbTXOUi4APrMsreSziHABwCwTQix3qGkPgK9LKd8yDOOdYDB4+syZM3OxYbjlAuBD0/LKqKLxQRt/FjnyUm9v7/FObL5FRJa/MwsHcrJqMe8lpUDrQK+KUG28EyCzzOPxvJpKpSTsmwcwFAcQ0QFdXV2/NwzjXgA3maZpuetxByxfzFqXptHVK1BROrpr8K5eCfNTJR1IvwHwqopADjkTwFwb4zt28wcAKWUEwGFWYnzQb3kuYVFYNNCDAQXzIaSUES4AmGUtLS2rDcN4HsBXnM4Fg8MDlxHRxYZh/MHn8127cOHCHpUNCCEimsWdyTJCYkFbGrP3UXKoR8GavziJjLC+BEAI8UAsFlusIKWcCwaD3yKib9rYhKM3/yzLRfOn6QGsy6RQO8pPBfxQTU+ILCkpiY7uxw+mjBDilwDypi9XSlkK4PKBgYE3Q6FQncrYQoiPAFgeuH75PR7TfHm+ktnMm2KxWJuKQLlmGMZZRHQX7DuaNx9u/pBSvq8izuu9G1SEKWiKPoPWhQsX9nABwJSIxWIfALjU6Ty2JaXcR0r5TH19fYmqmNlJTR9YjfPy/IFRvQNe34DEawusFwBE9B/kcFKbKoZhHALgdhT5zR8APB7PuwAs98S92JNQkE3hak32okPNZMhXAfv+4bFRyDTNPxPRBVDwdKzY3mVlZVcpjml5vLlvQOLV95U8ARekl95TUwAJIf6jIJ2cqqurKwXwCAYnstohb27+ANDS0pIE8LbVOG3J3lG9GkBVASSlfA3gAoApFolEbhFC7AXgGUDBiRXqXNjY2DhOVTAppZIJZw+/nBfXZ0f87V9KZjJDSpmrLc37+i0AACAASURBVG2VKS8vPx/ABJvC59XNfyuvqQjyWNc6FWEKTo/I4MWeuIpQgojeBLgAYDaIxWItpmkeq+t6iIj+BAVdf1ZJKUtdLtcxquL19PTMA2D58X1RLIV3P0kqyKiwzFuYxOKlSjqKVsdisYLrAQBwik1x8/Xmr6xofrYnjngmb6Yb5cw/utahS8GZCET0kWma6wEuAJiNWltbo5FI5Pter3eSlPInADqczEcIoWzDoM7Ozl4p5YsqYt3xpOP1Uc7d/oSyv/NTKLDx/+xeFfvZEDpvb/4AEI1G5wOwvGdIUgo83LVWQUaFo18K/L1bzd9ZCPH4ll8XfAEQCAQqm5qaJjQ2NgYMw9jTMIxpTU1NU6ZPn14FZ9els6xFixZtiEajN1ZUVBgAcnUAyX8hIqVbB2uadr+KOO+3pvDGh6NnLsBrCwbwkbqNkJ5UFShXurq6xkH9tTevb/5ZAsCDKgI91rUOnWr2wy8I929ereoAIKlp2mc/g7zfByAQCFQS0V5EZBBRCEBICBEmot0AVAJAJpOBruufvSeTySCTycAwjBSANQBWAOiQUrYAWCyl/DgWi+XqLOxRL3uk79nd3d1nA5jsYCpKZw9lMpmnNU3bAKDKaqzr7+vG/s0e+DzFXbP2DUhcf7+yHd3WuN3ul1UFyxW3292XSintwi6Emz8AQEp5HxH91GqcASnwu8Ry/G5cQEVaeW1FagB/26zm6V9K+YZpmku3/HfeFQB1dXWlpaWlszRNOxzA4Rg8AEYHAJk9M5RoyBdJNwYPqqnH4E5xn73fMIxVAN4C8CYRPRuJRJbuOAwbAT0YDB4N4FwAXwWgS+fPfFX6M47FYgOhUOhRKeV5VmOtXJfBXU/14sKTy1Sklrdue7wHq9YrOzriruzs8oLS0tKywTCMjQDGKghXMDd/AIhGo62GYcyHgiGQ//Rvxpu9G3FoqYqPMT9JAL/bsBxJRSchbttrmRcFQENDg8/r9R4npZwL4Iuwb2nM1iYA+DoG95K/yTCMhUT0FIAHIpGI5V2rRqtAIFCvadrZAM4GMMnpfLbxguqAmUzmXk3TLBcAAHDXUz04aLoHe4eKc6ez91uTuO85ZfepjK7rt6sKlmMSwL9gfSJgQd38t/JXKJoDccOGT7G7tww1Rbo74D+61mF+/2ZV4Xoymcw/tv4NR/sbw+HwQUKIszD4RcinMm4eEd3T09PzUAF+uZygB4PBL2uadq6U8ivI9tjkmc6KioqGBQsWKJ8+bBjGmwAOURFrt2odj15ThbEVBT8953MSmwVO+XkC6zaoeZKRUj4VjUaPVxLMAdlNgN60EKJQb/6oq6srLS8v7wBQqyLeXr5y/HGckZcXHStak724YE0EKXU9p78zTfPHW/+GI5+ZYRhH1tTUPCClvALATAA+J/LYickAjnO73ef5/X5/TU3N4ng8zidRbCMUCtXV1NRc4Pf778tuABRCnk4slVJe/8knn7xuR+za2tpOKeUZKmL19EmYn6Zx9IE+WDxuIG+k0sAPf78J0eXq9ofSdf389evXdygLmGPxePxTv9+/J4CmEby9YG/+ANDV1ZXy+/1uAEeoiLc6nURSCuznq1QRLi9syKTww3UxbFaw7C+rX9f109avX/+5CTi57AHQQqHQ16SUPwewVw7btYyIeqWUf0omk9d3dHRsdDofhxXC0/62+jOZzJT29nbb1g5lxzX3VRXvmFk+XH1eJYY+3SU/CQH8/NbNeO5tpfMvXzFN80iVAZ0wbdq0MS6X6x0Mrwgo6Jv/FoFAoFLTtGVQ2PN7UVU9TqtQtteXY3qlwMVrTESSajbKyrrZNM2Ltv3NnFy8DcPYz+/3Pwng+wCULsXKETeAWbqun1tdXS2mTp06f9WqVQW19tiqxsbGSbW1tZdmn/bPRx4/7W/HA7FY7CE7G/D7/esAnKYqnvlpGr0DEgdNL+zTAn/7YBcee03t1q1CiDMSicQKpUEdsGHDhoHa2tqHpZQzAUzb1eullLdUVlbOjUQiBb/+LZFIDNTU1JQDOFRVzPcHujDR7UOjW9mxHzmXkhI/XdeORQNK9wZJZZ/+N237B7Y+XzQ0NIz1er1XSSkvRGE8KQ6VCeAC0zRfcToRm2mGYczB4Ez+E5Enk0aHi4j2i0QiSk4j21kzoVBonpTyQJVBv/H/2bvv+Laqsw/gv+deDe8lOyTOcmzpysbEjJRZXgihoZRZCpRVKAVK6X7bUloKb4FCW9pSSillFyijg7L3Cgm7QMNIYmxdyYnJHpbs2JZsjXuf9w/bNECG7XuurmSf7+fD5wOx9JxjBd2zn3NEEX78lZK8Ww4wTeA39/ThH88LH6g+qeu6sIyOOYI0TfsygB9haBZp2+dyCkP3TvxS1/VXnaicXebOnVuZTCbbAQgbtqtEuLByJo4tqRYVMmsSbOLiLR1YOih2tZmIrg+FQt/f7s+ElrSNQCBwGhFdB4F/uTmGiehWr9f7I9H3zTutoaFhpqqqIzv5ZzhdH4te1XVdyAa9XQkEAnsR0X8guLN75IFDywHuPOl+pdKMn93Ui+ffEj5QTZmmuU8kEmkVHThXNDc3T02n0wEiqiKiLZlMZkUkEhG2DTzXBAKBrxHRHaLjnlG2G75ZMV10WNvEjDR+vKVD9LQ/AGxKpVKNO1q6Ft4BGD7S9xtm/p7o2DlqlaIoX2lvb7d805XDJsRo/5OI6ORQKPTArl8pRjAY/KMd/+/vpbnxm2+XYaovtyfSNnSZuOiGrVgWEZ+rnYiuCoVC/yc8sOQkGj5Fc7DowEcUV+HHVbNQSLk9fdaajOOy6CpszIhPacHMZ4TD4R0ufwrtAAQCgSYA9xPRHiLj5oE0gP/Vdf1GpysyVsOj/fMAnIP8H+1/0pra2tr6JUuWZO164uHNTW0AakXHLi8hXHVBGQ7Zyys6tBBL3kni/27pRW9cfMInZg6n0+mWzs7OyXsX7ATl9/ubFUV5F0N7rYSa5fLiypr6nNwXwBg6539jz1qRR/229bKu6/Oxk1tZhQ0nNE07hYieIKKJ1oiMhgrgaJ/PN7OysvLZWCwm7OyGTdRgMHisz+f7vaIoN2Ao4+LEOUPzX1cvXbrUylnrMYvFYsmqqqoPiUj4bW/JFPDMG0ms7zKxV8CNQm9uHBGIbjXxq7v6cP39cSTtycvHqqqeFIlEIrZElxwVi8W2+Hy+AgjKpbGtraaBp+IxGGA0e4uh5sixmlXpAfw82olH+rfYdZNVnIiOjUajXTt7kZBPIxgMfp+Zr0X+7Aq30yupVOq4XDwuWF9fP8vlco2s7efPAtn4DCiKMrO9vV3IBdpjpWnaDQC+bVf8smLCd79cgi/NL4TLoVWBdAZ44MUB/PnBOPrith6K+Y2u65bzx0u5a/78+a7169cvhg1LASOmu7z4XuUMfLaw3K4idqnfNHB370bc37sZmR0PzEU4S9f1XV5WZrkDEAwGf8LMV1uNM8G0mqZ5ZCQSyYWjShNybX8UbtN1/XynCvf7/V5VVV9n5n3sLGdatYIzv1CMEw8ryNpFQukM8My/B3HLw3Gs2WTvZBcRvVFSUnKoHRkcpdwynEb8XQC2buH3ewpxauluWFhUmbUZgV4zgwf6tuBffZvRJy65z3Yx8x3hcPjc0bzWym+vapp2M4DzLMSYyFYahjG/o6PD8v3X41FfXz9LVdXziOgcTPzR/qcQ0Z6hUGiZk3VoaGjwq6q6FFlYXqmuUHDswQU45uAC+GfY08eLrDXw+KuDePyVAUS3ZiUNxmYi2jsUCq3PRmGS8zRNOwrAE8hCkro6dwGOKvFhYVEVamy4S4ABvDfYh2fjMSxKdGNA0IU+Oy2TeUU8Ht9//fr1ozpOMO4PORAI3DScEEbaAWYOu1yuQ9va2jZko7z58+e7NmzYcDQznw/gSOTPkozBzE8S0QIAJVaDMfOScDh8mIB6WRYMBo9j5oeQxTwYjXVuHLq3B/vt7kGL3wWPe3xf82SasSySwVutSbz0bgqhD7O2lxIAUkR0ZCgUWpzNQiXnaZr2cwBXZKs8hQh7e0twQEEZ9ikoRcBdCGWcMwP9poH3kv1YOtiLlxNbscnI6mWVUSL67FgusxvXb6lp2hUAfj6e99pBKSqC4vWC3G4Y8TjMgYGhTCS54QNFUQ6xcy26qalpdiaTOZeIzoUNu8/tQkSrmfkvAP5CRBozvygo9Jd0XX9YUCzLNE07D8CtcODyrQIPITjbhTm1LtRNUzFzioKSIgVlxcpHmwgHkozeuIn+BGPNZgOdGwysXJeBvjqDwZQjVzibAM7Qdf0fThQuOS8QCNxIRN90ouxSRYXmKcIMlxez3QWoVT0oUl0oJgXFpCINEwOmiQSbiJkZrE0PYnV6EB9mkliZHoDhzLXncdM0PxeJRP49ljeN+YGkadq3APx5rO+zilQVBVoAhbs3wTN9OrwzpsMzfTrU0tLtvp7TaaQ2bERq3Tqk1q3HYCSCxIpWGL2O5NR4xTTNhZFIRFhmlOFNM8dgaG3/88if0X4GwJMAbtV1/RkMPeyhadrDAL4oIH6nrut+ADl1EiMQCFxCRFc5XY888UNd1//gdCUkRymapv0DQ1e2SzuXBnC8rutPj/WNY+oAaJr2RQAPIkuNjVpSjNLPfhalBx6Awt2boBRYvDSQGcnODxF/5130LF6C1OrVYio6Ovfqun4WdnImczSamppmm6Z5HjOfgzwa7QP4kIj+wsx36Lq+btsfNDY21pmmGYGAaXJm/nE4HL7Gahw7aJp2PYDvOl2PXEZEvwyFQpc6XQ/JeX6/36soylMAFjhdlxzGAM7Wdf3u8bx51B2AYDA4h5nfgcDbm3akaI9mVB59FEr2/QzIY99lKIMdK7H1hUXY+sIimMms3K9xoa7rvx/rm/J8tP8EhnbkfzTa/yRN067BUB50q+Jer3fm8uXLuwXEsgNpmvZrAD9xuiI5Sh73kz6mtra2qKSk5H4ARztdlxyUIaJvhEKhcadSHlUHYN68ee7+/v6XRF908knFe+2J6tNPQ2Fj0M5iPsXo7UX3k0+h+/EnYPTbmtY/Q0TzQ6HQa6N5saZp04noKwC+xcyz7KyYYOsA3JvJZG5cuXLlTqdZhr/gawBUWS2UmW8Kh8PfshrHbjJvxqcwgB/JaX9pB1RN027BUP4SaUgcwJd1XX/KSpBRdQACgcB1RLTd24RE8M6ahd0u+DqK9nA2g7CxdSs233U3tr64GLBpIwcRrfZ4PHvtaJQ6PNo/FkOj/SOQP43EyGj/Vl3Xn8UORvufFAgEvkFENwson03TnJsvF8VomnYWgL9g8uRl2JEUgPNGk7REmtTk7Nl/xRRFOVbE/TO77ADYeS6TPB7UnH4qKo8/DqTmziUnAx+0YeONNyG52rYj/H/Vdf3sbf+gsbGxjplH1van2VWwDTqZ+XZFUe4cz3ntQCCwmIjmC6jHC7quLxQQJ2s0TfscgPswcW/M3JW1zHxSOBx+0+mKSPkhGAx+c3j2zOKGsLz1vqqqJ7e1tYVFBNtpoz5jxozCoqKiVgBzRBS2LU9tLWovuhAF9cJDC2Emk9h8y23oeWGRXUUcVVpa+kJfX9/I2n6+jfYfJ6JbQ6HQcxjlaP+Thjf5xCFg859pmsdFIpHHrcbJtoaGhimqqt4LIK86L1YR0Usul+vU1tbWjU7XRcovfr9/byL6JxEFnK5Llt3T399/wWiT/IzGTjsAwWDwSmYWviO39LMHYdr3vgOlMPduaPqkrS8uxsYbbwanhCd02IShhjPvRvsul+sOEcmNhnf/rxJQrw5d1zWMsyOSA9RAIHAZEV2C/OkEjlcawK90Xb8SOXZUU8ofwWCwlJlvAXCa03XJgj5mvmBn1/qO1w47AE1NTQHDMJZB8FRL5dFHYcrXzwUp+fOcS6xYgXW/vBpG3NYNgrnKALB4eLT/EAQ+tEV1AIjoB6FQ6DoRdXJSIBA4hIhuBNDsdF3sQETvMPM5uq6/73RdpIlB07QzAfwOwG5O18UOzPwsM387Eol02BF/h61wJpP5EwQ3/jVnnoHdvvH1vGr8AaBojz0w61dXQa2w/QRkLlkF4BJVVWfqur4wFAr9C4JHbP39/ZswtJxgKUw6nb5TRH2cFg6HXy4tLd2bmS/C0C7fiWIAwM+mTZu2v2z8JZF0Xb8nlUo1EtH1mFgzSusBfDUcDh9pV+MP7GAGwO/3H6AoyhsiC6o+/TRUnyr8ivSsSq5ejdU/vQRGf7/TVbGLbaP9HdE07RVYuwL0Bl3XJ1xynYaGhpmqqv4ewElwIIWwIBkAdwK44pPJnyRJtMbGxnnM/Ce7j6vbbJCI/uRyuX7R2tpqe0Oz3QeLpmlPAjhKVCGVR38Bu33DsZtZhRr4oA1rLrsiW4mDsmUlgNvdbved2d6UpWna1zGUJ388Mqqq7i5qR2wuamxsnGua5s8wlBI1d47K7BwT0UPMfKmu6+1OV0aaXDRNOxhDxwWPcbouYxAfzpT622x2lj/VAfD7/XsrirJ0ez8bj5J9P4Ppl1ycd9P+O9P3+htYd/Vvna6GVWkieswwjFsjkcgLcGgD3bx589x9fX0rAGhjfW++JP4RobGxUTNN82IApwOwLz2mNf0A7iai68dyI5kk2WG4I3AJhrKn5uosWg8R/ZmZr9N1vSvbhX/qQwkEAv8iopNEBHfX1KDuj9dCLbF8w2vO2XTr7eh+4kmnqzEejo32d2R4lPsGgOIxvG1ZQUHBQcuWLZtIa+W7pGlaNYBTAZwJYD+HqzNiOYA7M5nMHStXrtzqdGUkaVsNDQ0zXS7X6aZpnpsjRwdNAC8CuKegoOBBJ59hH+sADK87dkLAUSRSVcz69VUobGy0GioncTqNDy+6GIMdtu3PECnNzI8CuDUcDi9CDh6XCwQC+xPRIwCm7uq1RPSGYRjHRyKRLVmoWs7SNK2RiL7CzEcDaEF2jxAuBfCgoigPtre361ksV5LGixobGw80TfMMDM0KNGSx7CSANwE84na7/54rg6+PdQA0TbsYwK9EBPZ96QTUnH2WiFA5K/nhh1j1/R8CZs61pyM6ANyeTqfvXLVq1SanK7Mrfr+/RlGUywCcA2B7SSI2AvhdaWnpn5YuXZrObu1yW2Njo88wjPlEtADAYRhaUhG1Z8AgoveZ+TUArwF4VW7qk/JdfX39LFVVFwx/Zw4BMFtg+CSA9wAsZuYX4/H4ayIT+IjyyQ5AGwDLQ3Z3TTXqb7wB5PVaDZXzNt9xF2KPPOp0NbaVAvAoM9+Wq6P9XWlpaSkeHBw8gpn9ROQDsFlRlHemTp366pIlS6weG5wUmpubPclkMkBEQSIKYqhDUENEJcxcAqASQ0suhKG1+14iGjBNs5eI1gDoIKIOwzA6vF6vno0dyZLkpObm5hLDMIKGYWhE1MjMDQCqiagYQAmAMgDlGGrc+wH0Aehh5riiKBuYOQSg3TRNPRKJdCIPjiV+1AHQNG1fAG+JCDr9pxeh9KB8PokxeubAAFZ+8zvIxGJOV6WDiG5LpVJ35cNoX5IkSXLWtjeRCZmvL2ioR+mBB4gIlReUwkL4TvoSNt16uxPFpwA8iqEb+BZh6FpVSZIkSdqlbTsAR4sI6Dv5JIBy9cSFPSqOWIjovx5Epnu7N/zaIUJEt2cymTs7Ojo2Z6tQSZIkaeJwAR/lZLd8LZ9n+nSUHLC/9VrlGfJ4UHXcsdj817vtLCYF4BEMjfZfhBztS5IkSRa4AICZF4gIVr7w8AmV8Gcsyg5fgC333gc2hO/7kKN9SZIkSbiRDsBhVgORoqDskEOs1yhPuSrKUbzP3uh/+z8iwsm1fUmSJMlWI3sALHcAilpa4K72WQ2T18rmHyqkA0BEZ4RCoQcEVEmSJEmStktpbm6uAjDdaqDifecJqE5+K95nb5BqPfeKiP0YkiRJkrQzimEYQnL1luzZIiJMXlOLi1HQUG85jqIoTQKqI0mSJEk7pBiGEbQaxFVRDs/MmSLqk/eKWuZajsHMuwuoiiRJkiTtkEJEY76G9ZMKAoFJd/Z/RwqDlvtTANCE3L2+UpIkSZoAFACWWyzPjBkCqjIxeKZb3k4BAGXBYHCaiECSJEmStD0KgBqrQTzTawVUZWJwT5sqZCOgYRi7vBZXkiRJksZLwdAtR5Z4amUHYASpKtxTLPepoKrqFAHVkSRJkqTtEtIBUIqKBFRl4lCKiy3HME2zSkBVJEmSJGm7FAzdcWwtSGGhgKpMHEpBgYgwXhFBJEmSJGl7FCKyPgNQKKTBmzAEzYjIDoAkSZJkG4WZ5XGzHKQoivx7kSRJkmyjAOizGsQcGBRQlYnDTCSsxzBN+aFKkiRJthHUARgQUJWJwxwU0nYnRQSRJEmSpO0R0wGIxwVUZeIQ8XkoihITUBVJkiRJ2i4FQL/VIKkNGwRUZWJgw0B68xbLcQzD2CygOpIkSZK0XQoAy61Vau06AVWZGNIbNoINw3IcRVE2CaiOJEmSJG2XAkC3GiS1TnYARgj6LPp0XV8vIpAkSZIkbY/CzCGrQQbDYYBZRH3y3kDI8scJAB8AkB+oJEmSZBtFVVXLLVamZyuSq1eLqE/ei7+/zHIMIvpAQFUkSZIkaYcUVVXbRQRKLFsuIkxeM+JxJFeushzHNM02AdWRJEmSpB1SWltbYwAsrzf3v/0fAdXJb/Gl7wjZAAhgpYggkiRJkrQjCgAQ0RKrgRLLliO9pctyhfLZ1sVLhMQhovs0Tbtf07TPAZApgSVJkiThFABg5sVWA7Fpou+VV6zXKE9lerYi/u57osJ5AZwM4HlN09qDweBP/H5/jajgkiRJkjQyA7BIRLCe514QNQWed7a+sAgwTTtCa8x8taIoqwOBwL2BQOAQOwqRJEmSJhcVAKLRaI/P5zsbQIWVYEZfHwpmz4J31iwRdcsbZjKJDdf8Huagren7XUTUQkRf8/l8p1dXVxdXVlbqsVjM+s1DkiRJ0qSjbPPvT4oI2PWvByZdToCtzz6HTM/WbBY5MiuwJhgM3uf3+w+F3CsgSZIkjYE68i9VVVVRIjrPakCjpwfeWTMnzSyAmUhg/e+uFXUD4Fi5AMwlorN9Pt+pPp/P4/P5wtFoVM4KSJIkSTv1sVGjpmntAIJWg7p8PtTf+CcohYVWQ+W8Tbffge7HHne6GttKAnhIUZRb29vbX0IeZhSsra0tKi0t/RwzNzBzJYAtzPx2JBJ5C4AtGy0mGr/f71VVNYih2SINQ9/rKQCKiaiYmSsAlGDoGdCHoUvBBohoq2maa4moA0AHEXUYhqFHIpFep34XScoGv99fpqrqyHelEUA9M9cAKB7+pxRAOYAkM8eJqBdAL4A4gA0AQszcbppmaObMmZ1LlizJOPObjN7HOgCBQOASIrpKROCqLx6PKeecLSJUzkqu6sSqH/zIrs1/IoQA3Abgr7qu5/wZTU3Tqpn5UkVRvs7MRdt5yToAV9fW1t6cD1+ubPL7/TWqqh5mmuZhRHQYgAA+vsRnhQFgBYBXmfl1wzBeXblypUz9KeW1YDA4B8CC4e/MoQBmCAyfArCMmV9UFGWx1+t9ZdmyZdbviRfsYx2Apqam2YZhrISIB4eiYPavrkLh7k2WQ+UiTqXw4U8uxmBHXuTsSQJ4iIhuC4VCS5CDswKapu0L4DEAU3f1WmZewsxfjkQi1u9dzmN+v393RVHOBHA0gD2Q3X0g7zPzAwAeDIfDMnOllA9I07SDiegMZv48gLoslp0G8CYzP6ooyt9CoVBOXPb2qQeGpmkPAThBRHB3tQ91110LtaxMRLicsvGmW9Dz9DNOV2M8dGa+jZn/misNaFNT0x6GYbyBoSnp0Xq7v79//vr16yfVfge/319DRKcR0VkA5jldn2GtzHxXQUHBX5YvX97tdGUkaVv19fWz3G73acx8HgC/0/XB0DLmGwDudrvdf2ttbe13qiKf6gA0NjbOM01TWF7f4nn7YMalPwOp6q5fnCd6X34F66+51ulqWJUE8DAR3erkrMC8efPcfX19yzGOvSdEdH0oFPq+DdXKOZqmNQK4GMBpANwOV2dH4gDuU1X1T21tbSucrow0uQUCgUMURbmEmRcid09J9QL4s2EY13V0dGzOduHb/VA0TXsawJGiCqk48vOY+q0LRIVzVGJFK9Zc/gtwKuV0VYRh5jCA25j5rmzPCmiadh6G9imMRwpAk67rebEOMx6BQGAvIvoZgBMhbk3fdkT0uKIoP5MdASnbNE07GMDlAA53uCpjkQTwV9M0r4xEImuzVeh2h+WVlZUriehcUYUMRjoAZhTNnSsqpCNSq1dj9c+vADtz5M82ROQjooVE9H2fz9fi8/m6o9Go9WsNR8Hn8/0RwHjPjKrMjFgslpdrMTvT1NQ0u6qq6k4i+gOAZuTuCGZHgsz8DZ/PN6e8vPzd7u7urCbKkCYfTdP28/l8DwH4PwD1TtdnjFwA5hHRt30+X1VlZeUbsVjM1sxywE4eKpqmPQdgocjCas44Hb5TThYZMmsGO1Zi7RVXItPT43RVsoKZw4qi3J7JZO6ya2pqxowZhUVFRb0Y+p9/vHqJaEYoFOoTVS8nNTc3e9Lp9I+I6NIdnITIR4MAfl1aWvrrpUuXpp2ujDSx1NXVVXi93iuY+dvYwaA2D20A8FNd1++BjcuzO/ywpkyZ8m9mPh/WHs4fk1i+HEZvL4r32RtE+TOgSaxoxdorroTRNyHamFEhIh+AhYqi2DYrMG3atJkAfmAxjJeZN8RisbdE1MlJwWDwMMMwngBwCnJ3nX88XAAOS6VSx1VWVr4Vi8U2OF0haWIIBAJnu1yuxwAsQB4tkY1CKYATfD7fZ2tqat7s6uqK2lHIDjsAXV1dMZ/PVwTgf0QWOBiOIPXhahTvszcUj0dkaFtsff4FrL/Glkx/mwEkMJRgIpepGJqCPsvn851RXV1dWFFREe7u7rZ8prW6uroSgOVN/NFdYAAAIABJREFUfETUEI1Gb0QOHm8cjfnz57s8Hs9VGNoLMZFvfZxKROf6fL6CuXPnvtzZ2ZmzCTSk3Ob3+8uqq6v/SkSXIPefoVbUM/N5Pp9vczQafUd08J0Ow2tra4tKSko+ADBbdMGeaVNRe9GFKGhoEB1aCHNwEBtvugW9i5fYEZ6J6CjDMBYrinICgPMBzEf+rPOmADwK4FZd1xdhnA2v3+/3KooSh5hpu6N1XX9KQJys8vv9MxRF+RsEd7TzwCuqqp7S1tYmZwOkMRk+qfZPALnZeNjnnoKCgm+KTCi0ywbH7/cfqyjKY6IK/FjhbjeqT/0yqk74IsglbKXBssSKFdj455uRWrfOlvhEdGcoFDpn2z9rbGzUmPnrzPxV5NcosIOIbkulUnetWrVq01jfHAwGlzDzoQLq8Yyu618QECdrgsHgkcx8D4Bqp+vikHWmaZ4ciUTecLoiUn4IBALfI6LfAcj96WN7tAI4Sdf1dhHBRjXi1DTtBgDfFlHg9nimT8fUC85H0Z4tdhUxKkZPDzbdcRd6X3rZzhsNP0ylUnt1dnZudzfh8Kj4BABfB3AY8mxWgJlvC4fDizDKnP2BQOACIrpJQPlMRE2hUCgkIJbtgsHgOcx8CwTusclTKQDn67r+V6crIuU0CgaDv2XmC52uSA7oBnCcruuvWg00qsZl+GKR15l5H6sF7kxhUyOqTzsVxXvtaWcxn2Js3Yrup55G92NPwIjbmq45rSjK/Pb29tdH8+KmpqaAYRjnAvgahi5yyRdrAdxnGMafOzo61uzshcPLTGsAVAko98+6rn9HQBxbBYPB7zPzH5A/nTu7MYAf67r+e6crIuWe+fPnuzZs2HArM3/N6brkCiJKmKb55XA4/KSlOKN9YUNDg19V1aUAbM/rW7RHMyq+cCRK9tsXitdrWzmDHR3oeX4Rehe9CDNp+5FLAPihrut/GOubho+GjewVyKdZgTQzPwrg1p3NCmia9nsAPxRQXn8mk5mxcuXKXD1zTsFg8DfM/GOnK5KjfqPr+k+droSUO1paWooHBwf/BSCvlveyxABwga7rt483wJgakkAgcCIR3Y8sHbdQi4tRctCBKD1gfxTt0Wz5emE2TSRXrUL8nXfR+9LLSK7e6eBUtLt1XT8bFneqNzU1BUzTHNkrkE+zAisB3O52u+9sbW3duO0PNE2rB6BDzGbAcXWyssHupbSJgJl/Gw6Hf+J0PSTn1dXVFbjd7qeJaL7TdclhzMznhMPhu8bz5jGPJIenL68bT2GWKAoKNQ1FuzfBM70Wnhkz4J42Fa6Kiu2+3Ewmkdm0Ccm165Batw6DkQ4klq+A0Z/9exeI6CWXy3VEa2ursPzBzc3Nnkwm88XhXA0LkEezAkT0mGEYt0YikRcwPCugadojAI4XEL9D13UNo9yDkC2apl2GofSk0q5dKJcDJj01EAj8g4hOcroiecAAcLKu6w+P9Y3jajQ0TfsVhi4myQlKQQGooADkdsNMJMADA2AzN57/zLzC4/Ec2traGrOrjIaGBr+iKF8norORX7MCqwDc5na778xkMrsz8yIRQU3TPC4SiTwuIpYIgUDgG0R0sxNlF3oJwdkuzJmmom6aitnTXCgqIJQVKyj0Dn39B5KM3riJxCDjw40GOtdnsGqDgdCHGQwkHUmtwER0VigUuteJwiXnaZp2C4aWPLOuTHFB8xRipqsAs91e1Lq8KFRUFJGCYlKRhokBNpEwTWw1M1iTSWJ1ehAfpgcRSSVgOFBnIkoQ0cLR7i/76H3jLU/TtNsACLsvYILS3W73oZ+c8rZLPs8KAHgcwBEY25XAO/KCrutC01iPl6ZpJwD4F7KYonT3OS4curcX+zV7MLfBDfc4zxmkM8CySApvfZDGS+8k0daZEVvRXRQP4Chd11/IZqGS8zRNuwLAz7NVnkqEeQWl2K+gDPO8JWhwF0IZZ6baBJt4d7AP7w724eWBrVifycreshExZj44HA63jfYN424g5s+f71q/fv1fAJw13hgTXIdpmvOzebPTtoY3bZ6H/DtBIAKbpjk3Eom0OlmJxsZGbfhq7VK7y6qpVHDc/xTgmIMLUF9rz8nCjnUZPPHqIB57ZRBdPVmZYesyTXNvp75DUvYFAoFjiOgxZGHwMsddiKOKq3BEcRV8qvjM2wxgebIfz8RjeCEeQ4Kz8p35oKCgYL/RJguy+iHT8NrmZRbjTCjMvIKIjtR13Z5MQmMwPCtw/PCswOHIn1kBS5j55nA4/E2nyh/O5/AGgL3tLKe2WsVXvlCEkxYUwOvOzl9tOgM88+9B3PpwHKs32T7h+abb7T5E5P4ZKTcNZ8V8FzYnxtI8RTizbCrmF1Vk7WEYNw080t+F+3o3ote0/Tvzd13XTx/NC4X8/oFA4EIi+q2oePmMiF5Kp9PH5+JRNL/f36AoytcBnA1gN4erY7e41+uduXz58m4nCg8EAjcR0QV2xa8oVfD9U4px/CGFUB26AsUwgYcWD+D6+/vRG7d1r8DvdV2XCWAmsHnz5rn7+vqWADjIrjJmubz436qZ2K/A9pPsO5RgE/f2bsTfezchbV+yOTDz10ZzMkDIumQsFnu9uro6QkRHYmLdYjZWt7rd7tN1XU84XZHticVi3dFo9IWpU6dez8zLAVQCqMPE7Lh5MplMVywWG9OmGBGCweDJAH5jR2xFAU44tBB//GEF9tbcUBz8m1MIaK5340vzC9HTbyK02rY9Agf6fL5XRd9GKeWO0tLSXwI4zY7YXlLwtfKp+Hn1HMxyF9hRxKi5h/cbLCiuQmd6EBsy9kxsEdFCn8/3UDQa7drp60QW2tTUtIdhGPcDaBIZNw+kmPn74XDYkZ3eVgzPCozsFZhoswKduq77gextzPX7/WWKorQDmCY6dkWpgl9eUIaD98zNNOj/XpHCz27qRXSrLWudkUQi0bJ27doBO4JLzhluN96BDYPH2e4CXFk9B/Vuazlk7PJofxeu615j12zAK7quH4qd5J4RujO5q6trc2Fh4R1ut3sKgHkiY+ewdtM0j8qlY2djMTwrsCgajf7B5/O9AqAQQCMmxt3aFT6f771oNCrk4ozRqK6uvgZDey2Emtfowa0XV6CpLnevDpgxRcWRB3qxvCODjVHhnYAqt9utRKNRIUdFpZxBVVVVD2NoJlKoo0t8+HV1A2pcudlhBoBGTxH2LyzHfwZ70S9+b8Ds6urqSDQaXbajF9g2gahp2lkArgXgs6sMhzEz3xyPxy9cv359Tk75j9dwZr6RvQJTna2NNcy8JBwOH5aNsvx+/z6KorwFwR3row7y4spvlMOVtYOE1qQzwKW39OKZNwaFh1YUZV57e/ty0YFzRTAYrDUMI6AoShURbU6n0ytycT+RKMFg8FxmHncq2+0hAF8rn4ZzyoVPwtmm1zRw0ZYOrEgKT1S3KZVKNe7o8jlbVxDnzp1bmUqlLmfm72BijChH6ET0zVAo9KLTFbGZqmnaYRhKyPElZPEsu2B76br+vs1lKJqmvQ5gf5FBzziyED8+oxTjPJbsGNMEfndvP/72nPC+8dO6rh8lOqjDlEAgcAoR/QjAPvj4czlNRIuZ+Spd119xqH62aG5urkqn0yEI3PWvArjINxtHF+ffuHOATfxsy0q8PdgrOvQNuq5/d3s/sPWBvnnz5sFoNPpMTU3NC8z8GeT5aBJDiRZ+XlZW9tXly5d3OF2ZLOBoNLoyGo3+y+fz3QsgASAAMcl6sskVjUZtXaIJBAInEJGIC40+cvYxxbjw9JK8a/wBgAg4eE8PEoOM98NpkaED1dXVL0Sj0axe5GGXxsZGX1VV1eNEdCGAWnx6UKYCaADwtaqqqqlz5sx5bsOGDbmR5tSiysrKSwF8XlQ8hQj/56vDkXnY+ANDGwQPL6pEWzqBdWITCO1dU1NzT1dX16dmAbIyouvq6loTjUZvq6qqCgEIElFeJaYhogSAa1Kp1CkrV658caJ8AcciGo12R6PRRXV1ddcnk8n3FUWpADAH+XGCoKmmpubmrq4u2zaQVVdX34OhB7gQXzy0ED89Kz8b/20duIcHa7cY0MWeEJgTjUb/KjKgE+rq6ioURXkNwH6jeT0RfSaVSh1QWFj4QG9vb1bTMopWX19frijKfQCEbcv/buUMHFdiawoB26lEOLSwAu8M9mGzIazjrJqm6Y3FYp+6OjibU7oci8WWx2KxmysrK5cSUQOA6Vksfzy2ALhBVdUzQqHQoz09PcIXNfPNhg0bzFgs1haNRu+trKy8Q1GUzQCCAMqdrttOuJm5OxqNvmpHcE3TvgBA2BW//7OXB1d/uxzKBFg0IwIO3duLFR1prNksbJPTnIlwLHDKlCn/AHDwGN/W4Ha798v3TkB1dfWFRCRsKefMsqn4anm+TzAPcRHh4MIKvDTQgz5BGwOJqKW6uvqOaDTa97E/FxJ9nILB4GHD19qeiNyZVmYArxHRnfF4/O/y2NGuzZs3z93b23ssgPOJaCFyc7/Hmtra2volS5YIf2hqmvYKxv4g366pPhX3/7IK5SV5PvT/hN4448uXRLGhS9jk2ZO6rh8jKli2BQKBQ4joJQshXi4oKDhqtClfc0lLS0vx4ODgKgA1IuLtXVCK62r8UPN9uuwTOtIDOH9jCElxKYSv1XX9R9v+QU58Yi0tLcXJZPIEAGcy8wIATpx1eh/Ao6qq3tvW1hZ2oPwJIRgMzmHmkbwCObUNl4gWhEKhxSJj+v3+AxVFEZJsyKUCd1xaiT0DEzOX1juhNM77ZTcMMc8zU1GUhvb29k4h0bJM07T7AZxsMczziUTi+HwbpGia9h0AfxIRq0p1486pjbbk8s8FD/ZtwR+6hW13iWcymenbnirJiZHasmXL4qFQ6N5QKPR5Iqpi5mMB/AHAe7DvXveNzPwAgO8SUb2u63vpun6ZbPytCYVCq3Rdv6S0tHQ2M5/IzM/Cvr/DsRK+e1xV1a+KinXuccUTtvEHgH2Cbnzt2GJR4RTTNB25LlYAwtDNl1YtLCoqenTGjBm5meVmx4R9Zy6qmjVhG38AOLG0BvuLS11c7Ha7T9r2D3JiBmBnNE2rBrAXAA1AExFpzBzE0P6BXc0UZABsArAOwCoiajVN8wNmfi8SiUyGXfw5IVdmBYjowVAodNKuXzk6dXV1BR6PZz2GUipbMmuqigd+XZW1C32cMpBknPjTGNZtEbK2udntds/Mt4uCho+/RQWGzJuZAL/fv7uiKEJu6Ty4sBxX1zSICJXT1mWSOHNDG1IClgKI6KVQKDT/o/+2HNFBfr/f63K5SkzTLGfmMlVVVSLqNQzDUBRla3t7ezdyZ/Q56fn9fq+qqjcx89ccqoLQdeNgMHgyM98vItaNF1Xgsy25m7FMpCXvJPH9a8XktmHmY8Lh8Kd2N+cyTdOmAxB9xXFedAI0TbsawE+sxvGSgnun7Y5pOZzlT6Q7tm7AHVs3iAjFAPy6rq8EnFlrFyYSiSQBJAGI7E1LgtXX15e7XK5zAHybmZ3ssm8UGYyZzxIRZ/9mz6Rp/AFg/j5ezGv0YGm79YE7ER0PIK86AKWlpZv7+vpMiF2CHVkOyOVOgAJgVNfU7sqJJTWTpvEHgNNLd8PD/V3otn40kIjoDABXAjmyB0CamBoaGvyapl3tcrk6MZQW2tH5OmZ+TVSslpaWYohZx8V5xxeJCJNXBP7OxyHPnmNLly5NA3jLhtA5vScgEAjsC2Cm1TheUnBq+US7t2znChQFp5SKSZ/DzCeM/HtefXGk/OD3+3cPBAKPqqqqY2i6r8LpOhFRgpmfEBUvkUh8FoDlIUiL3439dp88I5kRB831YI8GIZu3dmtsbDxARKAsE7J0tB052wkgIiGXZB1T4kOVkteT1+NyQkk1ShUhqXv2HN5bJzsAkliapn1bUZT3ieg45NAeE9M0b4hEIltExVMUZYGIOKcdMflG/yNOWyimjWLmLwgJlEWJROJmDG1OtkOudgKEXMr1pRIh6QPyTrGiikpzrDDzIYDsAEgCBYPB/wVwA3Jvb8m7AwMDlwuOabkDUFRAmL/P5Bv9jzh8Xy+KCqz3EZk572YAhtfpTwVg1wmGhUVFRc8ML1U5rrm52UNEB1mNs7unGLPdwrIH553PF1cJiUNECwDZAZAE0TRtX2b+ndP12I6lRHSMyI1R9fX15Ri6tc2ShfsVCGkA81Whl7DgM14RofZFHj7LdF1/FUM3bdp1UumQwcHBh3NhJiCZTB7IzJanu0Q1gPmq0VOEOWI6QLIDIIlDRFcht0b+AwB+3d/ff0goFFovMrCiKHtBwD0aCz4zeUf/Iz63r5AOQLnf728UESjbdF3/KzOfC/s6ATmxHKAoyjwRcQ4tcnw7keMOLRTyGTS2tLQU59IDW8pTfr9/BjMvdLoewzYCuMXtdt/c2toq9NjfCEVRglZjqAowr3HiZjAbrXmNbqgKwTDZUhxFUb6iadqLgqqVbWsB3AfgTJvi58IRQcsdtNnuAlRP4Kx/o7VPYRnu6rX8aKNEIqHJDoBk2fCGOKfnsv8D4Hq32/3PLGSGs/ww273ejdIiOQFXVqwgOFvFB6ss39F08fA/0vaN7Alw6gIhy53mfbylIuqR9+Z6iuElxfIlQYqiBOUTSLKMmWc5VLQB4AkAC3Vd31fX9XuylBZWsxpgb02OZEbs0yiXQrLEyT0Blr8zLd6c2M/oODcRmrxCTg81yhkAyTIiEnI4dQy2ENGtAG4Uvb4/SpZHM/XT5VdvRH1ttv/3mdQWFhUV3Q/geGQpTfrwptmpVuPMcTu+lzFn1LkK8R76rYbR5AyAZBkRCbuvchfeZeavpVKpWaFQ6FKHGn9g6CIqS+qmykZvRN00+Vlk2TGapl2WrcIURbH8fSEAM1xCNoxOCDPdQj6L6bIDIFlGRHZuvjLx32n+fcLh8F2dnZ2DNpa3U/Pnz3cBsDwUkY3ef9VNk7MhDrjI7/fPyEZBiqKUWI0xxeVBgSKbqxGzxHSGSuUnKlnW3t7eCeDfgsNGAVxtGEadruvH6rr+guD449LZ2Wn5YUYElJfIr96IilICOb2FdPIpUBTlvCyVZXn3XsUkTP27M+WqkM9DdgAkYS7F0FWTVi0D8PVEIjFT1/WLOzo6srW8MCqqqlp+mBV6CXIw81+qQijwyB6AA7KVQtnyd6ZITA78CaNYzLYr2QGQxNB1fRERXTPOtxsAHlYU5TBd1/fUdf32XL3SlIisP8wmcfa/HZGfiSOydTun9e8MyaZqWyI6RERUKudVJGFCodBPNE1TAPxolG/pJqLbiejG4WWEnKcoiuXze26XbOw+yeOWn4kDsnKujojczNYmB1W5RvQxbgFpV5jZI7tVkkis6/qFRPQFAO/t8EXMK5j5gv7+/hmhUOiifGn8AcA0Tctnb+IDWTl9lVfkZ+KITdkohJktJx4atJj0ZqIZEPN59MsZAEm4UCj0DIBnAoHAXgAOIaJZzGwQ0RpmXhQOh9ucruN4GYbRr1hcwB9IitgqMbEkBuVn4oA3slROn9UACVN2ALYVNw0RYfpkB0CyTTgcfg87mQnIR8lkss/ttrYKkM4AyTTDK6e9AQx1iDJCnmfSWBDRg1kqynIHQFCDN2EkWEwHQC4BSNIYrF+/fgBDmxYt2dAlRzQjNkTlw90By0Kh0EPZKEjEstnGTFLIEaOJYkNGSMZz2QGQpDFiAD1Wg6xab/nymwmjc73sAGQTESWY+avIUipgl8vVbTXGAJvYYmTjmo/8sCaTtByDmXtkB0CSxq7DaoAPN8pGb0TnBvlZZFGamc8YXp7Livb29jUALLdYa9LWG72JojNl/ZQ0EYVlB0CSxi5kNUBbp5wBGNHWmXa6CpNFmplP1XX9kSyXawCIWA2ipxICqjIxhNPWOwDMrMtNgJI0RswcIovnkt/+IAVmTPoUuMzAf9qsdwCIaDUzbxFQJaeUQMAtkzuRZuZTw+FwVtb9t0MH0GwlwDvJfpyG3QRVJ39tzKSwTsASAIB22QGQpDFSFCVkNbFJdKuJleszaJjk1wKH12YQ67W+FE1E54dCoWcFVCnr/H5/maIodtY9DeCUcDj8sI1l7IrlWbP3B/uQAcMlIAlOPls6aPlQBQDAMIyQXAKQpDEyDOMDEXHeWCY3NQn6DFhV1bdFBMo2v99fpqrqMwAOsKmIkWl/Jxt/ALD8nUmwieWDlg8U5L23B3tFhOlfuXLlWtkBkKQxikQibQAsTzc/8ZpjtxrnjCdfF/IZ6K2trTERgbLJ7/d7FUV5kpkPtKkIp6f9P5LJZF4SEeeFhOUDBXltgE28OrBVRKhXAJiyAyBJY8cAllgN0taZQWTt5N0MGF6TQehDIb//myKCZJuiKNcDONim8DnT+APAypUrVwNYaTXOokQ3kpM4LfCL8W4haZGZeTEAyA6AJI0DM78oIs5jr0zeWYBHXxbzuxPRy0ICZdFwmuzzbAqfU43/Nix/Z/pNAy8nLKfhyFvPJMRMdKmq+iIgOwCSNC6KoiwWEefBFwfQl5h8Oc629jMeWizkxmczlUo9ISJQNhHR92HP8zdXG/+PRp1W3de3aVJmBWxNxvGumA2APe3t7e8BsgMgSeMSCoVCAD60Gqd/gPG3Zyff+eZ7n4kjLuYCoDdWrVqVlVvtBDvKhpg52/gDQCaTWQQBabQjqQG8IWYdPK/c1btRVKjnMfz3IDsAkjR+fxMR5L5nE+iNT551zd444+/Pi5n+Z+ZHhQTKovr6+nIAUwSHzenGHwBWrVq1iZlfEBHrrt6Nk2oW4INUHP8W1+n56LmVV4eQ/X6/1+12BzKZTJCIphJRCTNXAChm5mJFUQqYuZ+Ze4goDiDOzFEi6jBNsz0SieRzohAp99wN4GKrQbb2M/78QBwXf7VUQJVy3x//2Y8+MR0eNk3T6eNtY6Yoiui/6Jxv/EcoinIvM3/eapwPknE81R/F0SU+EdXKaSYz/ti9VlSHJ2aa5tMj/5GzGRXq6uoKvF7vQQAOY+Z5ADQAdQBUC2G7MZSQohXAy4ZhLO7o6FhjubLSpKVp2psA9rMaR1UI9/2iEk11edUnH7MVHWmceUU3BF3v/qKu64cLiZRFw8f/BiDm+Zs3jT8A1NbWFpWUlGwEYLkTVKa48Pfa3VGuTOzvzCN9W3BNt7Bm6gZd17878h851QFoamraI5PJfJGIFgA4EECB3WUyc5iIFjPzc+l0+snOzs7Juy1bGjNN074D4E8iYjXNcePun1fA486pr6UwyTTjzMu6EVot5ugjEZ0cCoUeEBIsyzRNWwZgrsUwedX4j9A07U4AZ4uIdWRxFS711YkIlZM2ZVI4e2Mb+kwxF2Yx8wHhcPijY7OO7wFobm6u0jTtfE3TXjUMYzkRXQngMGSh8QcAIgoAOJ+IHvB4PBs1Tbtb07TPIcc6R1Ju8nq99wEQsjW3bVUa1/0jLiJUTrrm3n5hjT+A9SUlJXm3/r+NBy2+Py8bfwBg5ptFxXomHsMz8bzLATUqBoDLo6uENf4A3t228Qcc7AAEAoFDgsHgY+l0ehOAWwB81qm6bKMcwJkAntc0LRwIBC5sbm4ucbpSUu5avnx5NzPfJCre355LYNHbE+/a0+feTOL+RUKO/Y24benSpXl7jaDX670ewHgPtOdt4w8Aw42QkM2AAHBNbDU60xNv4vaW7nVYnhQ3IGDmX37yz7LeAdA07WBN014gopeY+Vjk7kbEBiL6XTqdXqdp2tXNzc1VTldIyk2ZTOZaIhJylo8ZuOTmXrwfztu27VNaV2Zw2W1C8peP2Op2u68XGTDbhjuO5wJj3ts1crFPXjb+I4joV6JiDbKJi7Z0IGZOnKyaz8Vj+Huf0NOtbdu7DMrKhrox8fv9R1RXV/8TwCUA6rNVrgBeAAebpvnN6urqkqlTp761ZcsWeYuL9JGenp64z+ebCmB/EfEyBrDk3RQOm+dFRYnjq3SWdG4w8PVf94hOdnR1e3v7MyIDOiEWi7X5fL5+AKNdcuw3TfOUcDicz0sfAIBoNNrp8/k+B2CWiHh9poE3B3rxueJKeCm/vzOvD2zFZV2rIPJgMBH9IBqNLvvkn9v+SQWDwVpN0+4evu5ynt3l2aiMmS9Jp9MhTdPOcroyUm4xDON3AITNQ3b3mrjg6h6s3Sxs/S/rVm80cMFvutHTJzTHQdQ0zT+IDOgkXdd/D+AYAJFdvPQ1VVUPjEQij2ehWllBRJ+akrZiZXoAF3etRFzcmnnWLR3sw8+jq6xnS/o4fdq0af/c3g9smwGYP3++y+v1fpeZH4SAY1I5pBTACT6f7xCfz/dWNBrtcrpCkvO6u7t7fT6fC8B8UTH7Eoxn/53EAXt4UF2RX6OatlVpnH91DzZ3i01wxMyXRyIRISllc0U0Go3U1dXdnE6nlwEYIKIBAAkAbcz8iKIoP9N1/eddXV2bHa6qUNFoNFJdXT0PQFBUzI2ZFF4f6MX/FFWgSMnaBLcQLyd6cEnXKuGXHTHzV995553Q9n5my053v9/foCjKP5HfI/7RGGTmH4TDYWG7WqX8VVdXV+DxeJYD8IuMW1qk4HffLcOBcz0iw9rm1fdTuOhPW0Wl+v0IM6/weDzzWltb5RLcBBEMBucwcyuAQpFxZ7i9+E11A2a7s3KYzLL7+zbjhp51MFl4fsOHdF0/cUc/FN5F0jTtBCJ6Avm1zj9eLiI6xufz7VlaWvpsT0/PxNuKKo1aT09PprKyMkREZ4qMm0oznnx9EIMpxr67u6FQbp5QNUzGLQ8ncNWdfUiJ38NoKopyYltbW6fwyJJjotFoT1VVFQ3nfhGm1zTwdDyKqW4vGtxC+xZCJdjEL6Od+HvfZuGpjYkooSjK8V1dXTs8bSKsA+D3+701NTXXArgWgntzeaBJVdVTq6qq/h2LxdY5XRnJObFYrKO6unougN1Fx35PT2NpexqfafKgrDi3lgTWbjaOHPpUAAAgAElEQVTww+t68fgrgxA/iAEA3KTrupxpm4CqqqreJKKTAVSLjJsB46VEDzZlUtiroCTnNgeuSMXxw80RvJ/styU+M1+i6/pTO3uNkKHE3LlzK5PJ5BMADhIRL48NENFpoVAo73fpSuPn9/trFEV5D0CtHfELPITzji/CV48qcjxrYDLNuOuJBO54PIHBlG3Xs6wyTXOvSCQi9CyhlDuCweBnmPlVDJ26Eq5KdeNbFdPx+eIqxzO89ZoG7ty6AQ/2b7Fjyh8AQEQvhUKhw7GL2xctzwA0NTVNS6fTzwPY12qsCcAN4GSfz7cxGo0udboykjNisViisrJy6fBSgPBhR8YA3vogjefeTKKsWEHDDBeULD/VDBN44tVB/OSGXix6O4mMfRuvkwCOCofDq2wrQXJcNBpdX1VV1UtEX7Aj/gCbeHmgB0sH+7Cby4Naly39jJ1KsIl/9m3GZV0r8W6y387bDDcT0RHRaHSXHWZLHQC/398A4EUATVbiTDAKgGN8Ph9Fo9ElTldGckYsFvuwqqrKFL22ua2t/YxF/0niqdcH4XET6qa54HbZ2xOIDzIefWkQF93Qi0dfHkRv3PZLWf9X1/VH7C5Ecl4sFnvL5/O1wMb2ZJORwjPxGN4c7EWF6sIMd4HtZ+FjZgZ/792Ey7tW4bWBrUjaNOofZpqmeWI4HH5vNC8e99PC7/c3K4qyGEDNeGNMAr/Rdf2nTldCcowSDAafZuYjslFYoZew4DNeHHNwAfbb3QOXoB0+6QzwdlsKj78ygMVLUxhIZu0m9n/qun5qtgqTnFdXV1fh8XjeATAnG+VVqm58rqgCRxT70OgpErY8kGATryZ68Fw8hreTfTDsbfQ/QkS/DIVCl4769eMpxO/3z1BV9TVmFpLFaSJj5h+Hw+FrnK6H5Iz6+vpyl8v1MoCWbJZb6CXsE3Rjv2YP9qh3oX66C1VloxvrRLeaWLU+gxUrM3hzRQrv6ulsNvoAACJ6o6+v73Pr168XkmJZyh+apjUCeAWCNwXuSrniwj4FJZhXUAbNU4hZrgKUjCKXAAPYbKTwYXoQy5Jx/GegF22puOhkPqPxD13XzwBGn0RwzB0ATdOqAbwKgckbxspVUQHPjBnwTJ8GpaQEanExyOsFuVzgxADMgQEYg4NIb9yI1Np1SG3cCFEXkI8DAzhb1/W7naqA5KympqZphmG8hiyNanaktFjBzCkKyooVlBQRirxDX/9EEuhPmNjab2LtFhN9cce+KyPaFEX5n/b29qjTFZGcoWnafgAWAXD0MrYqxYValxdFqopiUlBMKlJgDJgmBthAzMhgXSYpPHnPODzvdruPGWuOjDF1AJqbm0vS6fSLyOaGPyJ462ajuGUuCufORXHz7lCKi8cUgg0Dyc5OxN9fhsTyFUisaAUns3rjWpqZTwiHw09ms1Apdwwnx3oNwG5O1yXHrVdV9aC2trYPna6I5KxgMLiAmZ+CTScDJpD/ENGCUCg05mvJx9QBCAaD9zHz6WMtZDzcNTUoPeRgVByxEJ5p04TG5lQK/W//B1tfXIz+pe9ka3agH8C+uq63Z6MwKff4/f59FEV5DoDP6brkqLUAFsrviDRC07RTANyDoRNW0icw8wrTNA/v6OgYV5roUXcAgsHgN5n5xvEUMhZFezTDd/JJKN5rTyALGc/SW7Yg9vCj2Pr8CzDtnxV4P5VKHdDZ2SkzBk5SmqY1EtGzcv/Mp6wyTXNhJBLpcLoiUm7RNO1wAA9j6B4W6b/eVBTlaCtLZaNqYf1+/96KorwOwLbEyoVNjag560wUNQtPoDYqmZ4exB58CN1PPAU27Nu+QUS3hEKhC2wrQMp5w3sCnkGWNwbmsA8AHKHrusyiKW2Xpmn7AngS8tQZAICIHo/H46esXbt2wFKcXb0gGAyWmqa5lIgCVgraEbWsDFPOPgvlhy/Iyoh/V1KrV2PjzbcisaLVzmJO03X9H3YWIOW25ubmqnQ6/SiAg52ui8Oe9nq9Zyxfvrzb6YpIuW34dMDTAOocrorTbtN1/ZvYRZa/0djlGQefz/d7u7IzlRywP2b94nIUNjXmROMPAGp5OcoXHAa1sgKJZcsBe2YDFlRWVt4Zi8XkEadJasuWLQNz5869p6+vjwEcAptu5sxhDOC3uq6fu3nzZkujGGlyiEajXeXl5XcRkZ+InJkqdtYgEV2o6/qlgJhEgjt96AxvWnoLom8NVBRMOfMrqPrSF3Om4d+e5Oo1WP/ba5BcvVp4bCK6MxQKnSM8sJR3AoHAMUR0FybP5sBuAF/Z1UUlkrQDFAwGv8fMvwWQH3dkWxcioi+HQqFlIoPurGFXqqurHwIwU2iBJSWYdeUVKDvk4Jxu/AHAVV6O8sPmY7CjA+mNG0WH38vn8y2KRqPiexdSXonFYnp5efk/FEX5DIDZTtfHTsz8mKIoR+u6/o7TdZHyVzQafdPn8z0HYAGAKqfrYyMmorsKCgq++MEHH6wVHXyHLXAgEPgGEQm9ftNVWYmZV1wGb11+PeM4k8GG665H78uviI3LvKKsrGyfpUuXir89XcpHpGnamQB+B2CK05URrBvAT3Vdv9XpikgTR3NzsyeTyfyAmS+HjZvUncDMYWb+TiQSec6uMrY7A9DS0lJsGMajAMaWcWcn3FOmYPZvfw3PdFtuSLUVKQpKDtgfRncPBjvEnVIioimpVGqtvDlQGhGNRt+fOnXqHaZpVgLYG/m/NyAD4HbDME6MRCIvO10ZaWLZsmWLEY1GX6usrPzH8EZ1WzarZxMRJQD8iplPj0Qiup1lbbcDUF5e/l0AJwgrpKwMs676BTzTpooKmXVEhOLPzENqzVqk1qwRGbp57ty5N3Z2djqeS1LKDVu2bBmIRqNPVFdXPwWgFkMPtXzrCDAzP6goykm6rt/V3d0dd7pC0sQVi8W6o9HofdXV1e8C0DD0vck3SQB3GIbx5Ugk8lgsFrP9OoFPPVT8fr9XUZSVEPQBKgUFmPWrq1DgbxARznGcTmPN5b9AYvkKkWG/Ku8KkHYkEAjsBeASIvoSYPvtpVYZAB4DcLWu6285XRlpctI07WAAlwM43OGqjEYSwF9N07wyEokIX+ffmU91AAKBwAVEdJOoAmp/+L8om3+oqHA5wejvR+f3f4j0li2iQrbrut6MMdziJE0+gUCgiYi+A+BU5N7Gp24iup2Ibmxvb+90ujKSBAB+v/9QRVG+CeB45N4egVUA7jEM48/jTeVr1Sc7AKqmaWEIurWs4oiFmPqdb4kIlXMSrR9g9SX/J+weAWY+KRwOPygkmDShDc/SHQXgLABHwbmjUAMAnmbmB+Px+CPy6l4pVw1fy308gDMxNCvg1JLaVgzNkN2t6/oiCDrPP14f+xACgcBCIhKy49AzYzrq/vB7KN6Je5FT19//ia6/C0vo97Su60eJCiZNDo2NjT7TND+HoeNQCwD4bS6yE8ArRPS41+t9atmyZXJtX8orTU1Nsw3DWIih78thAOzcnGYS0XsAXmTmF1Op1OJcugvmYx0ATdPuAfAVEYFnXfULFLXMFREqZ3Emg1Xf+1+k1gpJYW643e4Zra2twhMOSJNHQ0PDTFVVDyOiuQCCpmk2EtEcAK4xhsoA+JCIOkzTbBu+C+TVUCi0XnilJclBfr+/WVXVQ5i5GYBGREFmnomxzxIMAggB0IlIZ+albrf7pdbW1pjwSgvy0S/Y0tJSPDg4uBFAidWgZYcegtof/cBqmLwQf+99rPn55aLC/UjX9WtFBZMkAJg3b567r6+vAUANERUDKGXmCgx91wlDV1VvJaIBAH2GYawuLy9fLfNTSJNVbW1tUVlZWQMAn2EYJcPfm3JmLsPQpr1+RVH6TdPsYeZ+l8u1ob29fTXybB/XRx0ATdO+CuAuywE9HjTcehNcVbm2R8k+a3/5a/S/KWTD8/u6ru8lIpAkSZIk7cy2R4pOERGw/PAFk6rxB4DqU74sKtSewzdeSZIkSZKtFGAonSKGbiSzhFQVvhOF5Q/KGwX+BhTvLWzgng/nViVJkqQ8pwBAOp3eDwLS/pYedCDcUyZaCvPRqTrheFGhFogKJEmSJEk7MrIEIKTRKV9wmIgweamopQXummoRoeYj97O9SZIkSXlOAQBmttxyuyrKRU6D5x36//buPD6uutwf+Of5zkwmaZammdAlLW3azJxJKC1gBWQviBevCyguKDuy6OUHXpAr4L0iiqiICkLFWwqWpZdFkb2gyFYLZWvL0pImc2aStrRJ10nbbE1mcs7z+yOpr7J0Sc73zJnleb9e96Wva/Kcp9POzHOe8/1+H6VQftxxOkJVhcPhQ3QEEkIIIfZEAfAR0ZFOA5UfcwygCvvGteJ4LQUAlFJHawkkhBBC7IEyDGMKgBKngUoPlZvW4qm18I0erSOU7AQQQgjhKgUg6jQI+XwYdfB0DenkOCJdr4PjvxMhhBBibxQROf6yCdbWQpU63kSQF0pnHOw4ho6/EyGEEGJvlG3bzguAKZN15JIXiqZMcRyDmQ+cOXOmVFRCCCFc4yeiWqdBiiZNdJ5JniiaqOW1oN7e3ikAVukIJoTIfrNnz/Zv2rRpIjMHU6nUptbW1h1e5yTym5+IRjM7G0ms6UsvL/grR8NXVgaru9tRHCIq15SSECKLRaPRU5n54vb29s8BCAKA3++HYRgriOgpAPNjsdhqb7MU+cjPzI6n/xXa2f/74g+FHBcAACp05CKEyE7hcPgApdRDzLyn479nMvNMAP8djUZfAHBXWVnZkzKlUeiiADi+01QljncR5hUdrwcROS7MhBDZqaGhYYJS6k3s3+wPxcz/xsyPdHV1rTMM46a6urqw2zmK/CcFgAtUSbGOMPIIQIj85LNt+1EAU0fwu+MAXOPz+UzDMF4wDOOMoWFuQgybIiLH394qKP/+dqeKtRQA0gEQIg8ZhnEWMx/lMAxhsHvwcDqd3mQYxp0NDQ3O9yCLgqKYuc9pEDslj6R2Z/c5fkkBQF5UIfLTlZrjVQK4xLKsFdFodFEkEjmztrZWy12IyG8KQJfTIPbOnRpSyR+aXg8tVYQQIntEo9EaAG6dm07MfAIRPVBUVLQ+EoncGolEGly6lsgDipmlANBMRweAmXs1pCKEyC71GGzfuy1ERFcQ0SrDMJYZhnGJHC4mPkoRkeP9ata2bTpyyRsDyQ7HMYhos4ZUhBBZhJm92N47C8CdfX196wzDuF3WCohdFBF1Og2SWt+mI5e8YHV1wepy3FQBM2/VkI4QIovYtr3Jw8uPAXC5ZVkrd3UFpk+fLouNC5hi5rVOg6TapADYJdXWriMMl5SUfKAjkBAiqzQCSHmdBIa6Aul0er1hGHcYhjHN64RE5ikAMadB+tY6riHyRr+e12LtihUrenQEEkJkj0Qi0QngH17nsZvRAC4F0ByNRm+ePXu23+uEROYoZnZeALS0wu6VNWsA0LvyfR1hZAiQEHnKtu1fAHA2gEW/ADP/sK2tbaEcLFQ4lN/vd1wAwLbR2yjfWWBGz4qVjsMQkbyYQuSpRCLxBhHN8TqPT0JEp6TT6azMTeinxo0btxpAv9NAPe+t0JBObkutWwdr+3YdoZp0BBFCZKcJEyZcBeDPXuexBxcbhnGE10kI96lFixYNAFjmNFDXktfAtq0hpdzV+coSLXGY+TPTpk2brCWYECLrLFq0aMA0zW8DuAqAlrsGjYiZf+h1EsJ9CgCY+SWngQaSSfRqaH/nLGbsWPRPXdEu9vv9qw3DeD4ajX5j1qxZAV2BhRBZg03TvCUYDE4D8CMALV4ntAsR/Xs4HA56nYdwlwIApdTLOoLteHmRjjA5qbexEelNWrf4KgAnM/Nfurq61kQikRsaGhqm6LyAEMJ7K1eu3Gaa5k2maYaVUp8GMA+A18erlgYCAelC5jkFAP39/a9Dwz+4rsWvIL1li+OkclHHE0+5Gb6GiK6zLKtVugJC5K/m5ublpml+17btKcx8NQDHB7WNVDqdDnl1bZEZCgDWrFnTB+A1p8HYstDx5NOOk8o1/avXoHup42UU++NDXYFoNPpz6QoIkV/C4XBQKfXvRHQ2AC+ODgYABAKBpFfXFpmhdvvvf9ERcMdz/8DA9h06QuWMrX95BOCMb+utYeYfD3UFnjUM46tyiIcQuSsajdYYhvFTpVQbgPsAzPQwnS6llJzwluf+NZVq2rRpo/1+/wYAJU6Djj75s5jw/cuchskJO1c1Ye2P/seLAuCTbMTgB8c80zRbvU5GZI+pU6eO8/l81UqpUgAVzFxBRKVEFADQZdu2rZTappTabFnWRtM0ZRZFhkSj0ZOY+TIApwLweZ3PkMdM0/ya10kId31oLKVhGH8B8A3nUQlTbvolShrqHYfKaraN1u9fidQHWXdsv43B40bn1dTUPD201TMn1NXVjfX7/RcAOI2ZIwAqAWwGsJSZn6ioqHhg+fLlaW+zzF61tbWVfr//OKXUDABRDI6fNTD4Og5HCoPHhDcBWMXMy4qLi19buXKljP7UoKamZlRZWdnZzHw5EWXddD7btk9NJBKF9zy3wHyoAIhEIl8iIi1/6cHaKai95bcgf/52pTseexyb773f6zT2ZQOAe4jo7lgsttrrZPaCDMP4AYDrAZTv5edW27Z9QSKR0LbnMpfV1NSMqqioOM6yrJOI6EQAn4J7d5EMYBURvWjb9kJmXpxIJBwfIlZI6uvra5n5Uma+EECV1/nswfqampqpuXTjIEbmQwXArFmzAl1dXasBTNQRvOrLX8LYiy/UESrr9MUTWHvNj8ADOfMesZn5eQDzKioqns6yu2hlGMZ8AOft588PAPiOaZoLXMwpm6loNHoCM58L4GvYe8Hkpm4ATxPR/bFY7HkAlkd5ZL1oNHoiM1+O7Grz78kNpmle73USwn300f+HYRhXArhFT3TCxGuvRvlRn9ESLltY3T1Yc+VVuvf9Z1JWdQUMw7gewE+H+WspIjopFovpOX4xB4TD4Uk+n+97AM5h5mzbo91ORPOVUn9samra4HUy2WBXmx/AZQBmeJ3PfrIGBgamtba2Zt1zTaHfxwqAmTNnlvb19a0GcICOC/jKSjHlpl+iaHK2fV6NDFsW1t/4S/Qsf9vrVHSwiegF27bnVVRUPOVFV6Curi7s8/maAIzkWdF7pml+CoNrHvJWOByuU0pdC+BcANk+qS0F4GFmvikejxfkTIscafPvybOmaX7R6yREZnysFbVp06Z0KBQKAPisjgtwKo2uN5ei4pijoEpLdYT0DjM23v4HdL32uteZ6EIA6ojom6lU6uLQoNXJZDJjC72qq6tvJKIjR/jr46urqxuTyWReTk+MRCINoVDo90qpuQA+jexvHQODOR5CRN8LhUJ1oVBoRSb/PXkpGo2eGAqFbmHmOwAcCw07qjxwdTKZbPY6CZEZH+sAAP/aErgGw185vEdFEydi8q9uhL9SW8iM2zz/XnQ88aTXabgtk10BMgxjHZytOXnVNM3jdCWUDaZPn142MDDwE2a+AkCun/iYJqLf+/3+GxobG7u9Tka3oTb/WQAuR+60+fekvaamZoos/iscn1gAAJrXAgwJjBuHyTdcj8CECTrDuo4tC5vuvAvb//6c16lk2iYA99q2fVcikdA+qMQwjGoAOs6OPsI0zaUa4nguEomcTkS/B3Cg17lo1kZEV8ZisUe8TkSHhoaGKQMDA5cS0UXIvTb/JyKiX8RisR97nYfInD0WALNnz/a3t7cvh+bTqHyVlTjw+utQXDdNZ1jX2P392HDL79H1+htep+IlG8CLRDSvrKzsSV1dgWg0GmVmHe3G+0zTPF9DHM/U1dWN9fl88wHk+/PXPwcCgUsbGxs7vE5kJHJsNf9w2EQUzoZFwSJz9lgAAEA0Gj2GmV/Z188NlwoGMe6SizD6cyfrDKtdqq0NbTf/Fv2r17gR/s8AVgC4CMBUNy7gkk0A7rFt+26nXQGNHYB+y7Imt7S0bNYQK+Pq6+tn27b9AIAar3PJkHYiOicWizkeQ54Jedbm/0TM/Fw8Hv+813mIzNprBZtMJtdVV1dPAXCYzouyZaH7raVIbdiI0kMPAQWy7zFn5z8XY/2Nv8LAFldORN0QDAa/0NTU9HwymZwzZsyY15RSowBEkP13FWUAjiWiy0Oh0LHV1dV948ePT2zZsmXYe8CTyeTOUCj0HwCcrg71+3y+rmQyudhhnEyjaDT6n8y8ABrX2+SAcgBnh0IhNfR3lhXnaH9UNBqtCYVCVxUVFT0I4AwA47zOyUXXdHR0FOSujUK2zzv7+vr6kG3b78ClZ5L+UAjjLvoOyo852o3ww5basBGb77ob3cuWu3YNIvpKLBb72GrC6dOnj0+n0xdgsCuQG89IBm0CcK9lWXe3tLQkhvOLhmHMA3Cxhhzay8vLa7PsgKM9mj59elk6nX4EQEHfdRHRo11dXee2t7f3ep3LLkNt/ssAnIbsL8h12FheXj45V947Qp/9au0PPQpYhJHt1d4vpYcdigPOPceztQFWdw86nnwSHY8/CU6lXLsOM8+Nx+P/sY8fU+Fw+GSfz3cJM5+K3FkJzhhaK+D3+59sbGzc5wsZiUSOJCItCyyY+cx4PP6QjlhuGnr08SyAw73OJUu8AeDLXg4gyrE2PwN4Afq2Gt5kmuaPNMQROWa/n+1Ho9FrmPkmN5MBgNJDD0H1md9CSX1mBglZnZ3Y9syz2Pb0QljdPW5fbmVvb++R69ev37m/vzB16tRxRUVF5zPzxQDqXMxNt20AHrFt+/ZEItG4tx80DOMNACM9C2B3b5imeZSGOK5paGiYYlnWcxgc1COGMHPcsqyTM30CXY6t5u8eelw0h4hCAF7REJNt2464sctHZL/hLO4jwzAWAviCW8nsrrhuGkafOBvlxx+n/ewAtix0L38bnS8vQvfSZa7e8e9mm8/nO7KpqSk+wt9XkUjkswAuIaLTkFtdgZeGugJPfFJXIBKJnElED2i63pGmab6lKZZWhmHUY/DOTcusjTy02ufzndjU1OT6HPqhhZeXIzfa/C0A7hgYGJjf2tq6AwAMw7gfwDkaYr9gmubnNMQROWhYq/unT59elU6nFwOY7lI+H6cURjXUY9TMGRg1YwZK6qMjmjCY3rAB3e+twM6V76PnvRWwOjtdSHaPUkT0+Vgs9rKOYFOnTh0XCAR2rRXIpa7AZiK6Tyl11+6F0PTp04vS6fQaAI4PiGDmB+Lx+NlO4+hWV1d3oM/nW4L829+v22rLsk5oaWlZpzvwpEmTSkaNGrWrza91e7MLGMALtm3PSSQSz2C3465nzJgxpr+/vw0a2v9E9M18OZtBDN+wt/cNDSRZ4tkwEqVQNH48gpMmIlAzAf7RlVAlxaDiYlAgALu3d/D/+vqQ2rARqbY2pNs3wOpxvb2/R8z8nXg8fo8LoXfvCpyK7D8nfhcG8DKAeYFA4PHGxsZUNBq9jplv0BA75fP5arNpIM3QQtrFAA7yMg+/D5h4gA+jigmjyxRKgoNv/539jB3dNnr7GG1bLAx4P9NvVTAYPHblypVajhDO1Tb/nmYpRCKR7xPRbRqutTkQCBy4P2t1RH4a0f7+oQEuSwCM1ZxPPvqRaZqur53I9bUCRPQwMz8LoFhDzJ+ZpvlTDXEcGxqu9QKAjI7E9Cng4LoAjjioCAfX+TFtoh8TD/DBp/b+e5YNrN9sYXW7hZUtabzVmEJjaxpW5sctLU6lUqesWbOmb6QBcqzN3wrgjlQqNX/NmjXb9/aDkUhkJREd7PSCzHxzPB6/xmkckbtGfMDP0Ort5+HdLPJc8FPTNH+W4WuSYRifBXAJBj/4cqkrMAA9axs22bY9JZFI9GuI5QQZhvEYgK9k4mJ+H3DsIUX48rElOHpmEUYV6zm/q6ePseS9FJ5Z0odX3+vPZIdg2Cc85mCb/8WhhbIfavPvSTgcPkop9ZqOa/t8vqiDNUkiDzj6hKivr59l2/azkE7AJ7neNE0dLe0R260rcBGAsJe5eOBc0zQXeJlANBq9gplvdfs61ZUK53y+BKcdX4IxFfu4xXeoo9PGU6/04f5ne5Hc4X5bgIgujcVi/7uvn5s2bdpkv99/KQbXxYRcT8yZHma+n5n/kEgkhjXJ0jCM3wH4gYYcXjJNU8vEV5G7HN8iGIYxDcBzKLwvmD2xmPmyeDw+1+tEdjdUrF2CwZXDuTimdFiI6O1YLDbLq+sbhnEEBrdpudaBGR/y4cJTR+G044sRDGg9rXuf+lKMxxf1Yf7TPdi8zdVCIAXg2D0Ne8rXNv+eGIbxLoBDNOTybdM0H9YQR+QwLZ8aDQ0NEyzL+hv0/MPMZT3MfG48Hn/M60T2pK6ubqzf79+1ViCvizal1DHNzc062qXDUltbW1lUVPQ2XJrx4PcBZ5w8Cpd9o1Rbm3+kdvYz7n2mF396qgdp94bItgQCgUN3jRMOh8NBpdQZGLwTzoXPnCVEdNuECRMedzpq1zCMrXDe4Ujatj0xCx6RCY9p+/SIRqPlAOYy85m6YuaYdUqprzY3N7t3hrBmBdAVeNg0zW9n+qKGYSwA4MpWxIPrAvj5d8sxrca1QzlHJLHewnV37sCq1a5VAXcMDAzcnGNt/gXMPGe4bf69MQyjA8AYh2F+Z5rmf+nIR+Q27bcPhmFcAuA26FnNnSueUUqd19zcnPQ6kZHY1RWwbfsiIop4nY9GaQBTTdNsy9QFh1rSL0Hze4sIOOvzo3DFGWUIZNd3/7+kB4BbH+rGg//oBesf78MYXCSXC23+P6ZSqT+NtM2/NxoeATARNcRisZiunETucqV/GA6HD1JK/QWZPDDIG31EdG0sFrsdWTrRbLjyrStARL+IxWI/zsS1Zs2aFejq6noXmvf7lwQJv7q0AifOCuoM65oX3urD/8ztQl8qL94S+2PXDIw5sVhsIfZjNf9IRSKRW4noipH+PhH9MxaLzQQU4/4AABCJSURBVNaYkshhrlTTHR0dW4LB4L1FRUWEwTPes71qH4lXmPnLpmku9DoRnbZu3bohmUwurKysvIuItgCoHTp3PFc1lJeXz9m+fbt7T6iHVFRU/BCA1kcOFaWE/726Ep85OFd2cwLTJvpxeEMRXlzaj1R+z5frYeb5zHx+PB6/JZlMxuDyjUBVVdUWIroEI7x5Y+arZOyv2MX1FUR1dXVhpdQfiOgUt6+VIduI6GexWGwOXKz0s0mudwVcPInxX4ZGOScAlOqKWV2pcOe1lQhPytKe/z4k1lu45FfbMrJdMMNWY3A1vytt/n0xDONBjKDQJKLXY7HYMciTbqVwLmNLiA3D+BaAnyNHV54TUS8z3x4MBm/WdURprgmHwwcQ0flDR6oaXuczDO+YpvkpNy8QjUZ/w8zaFlaVlyrc8+NKRA7MzS//XWIfDODCG7ejqzfni4BdQ63mxGKxp+Fh8T+0y+QNDG+i5Gbbto+WqX9id5neQ+SLRCJnENF/I3fWB/QAmE9EN8VisXavk8kSFI1GZzPzJQC+CiAXHk4fb5qmjvGpHzN01v8aAGU64hUXEeZeU4nDorky8HHvljWlcOnNO9Cfzskbzx4i+j/Lsubsa6x1JoXD4UlKqccAHL4fP97q8/lOa2pqet/tvERuyfSzee7o6FiZTCbnhkKh94hoMrJ3OtpGZv61z+c7KxaLPZZMJru8TiibJJPJNclk8tExY8bcicEpf7XI4q1ZzFze0dHhytSzqqqqawFoG6n68+9W4PjDcqGm2j81B/gwLuTDy8tzatv5agC/SKVS57S0tPy1o6Nji9cJ7a6jo6OzvLx8gVJqBxEdhk9+9NRJRLcPDAycHY/HtU9XFLnP21NEANTX1xvMfA4znwNgisfppAAstG373kmTJv3N6aEdBSbbuwIDQ5PPNuoMGg6HK5RSa+B8bzYA4PTZJbj+ovwcr/GTeV14cvFOr9PYm6xp8w/H7Nmz/W1tbUcDOJSIxjHzdiJ6v7u7+5/t7e29XucnspfnBcBuKBwOH09EXyGikwDMQGby6wTwd2Z+Mp1OP+vFop58YxhGNYDzMDiQKGvWCjDz9+Lx+J06Yw6de6ElZniSDw/cUIXiomx6W+qzs59x5nXb0NqedXV1Vrb5hXBb1n7ShMPhA3w+32zbtk8iolkY/CIZ7TCsBWA1M7+rlFoC4NUJEya8K3f6rqH6+voThnYQnA6PuwLMPD8ej1+oM6ZhGK8COMZpHCLgvp+MwSGR/HjuvyfvxNK44MZtbhwUNBLtAO5SSs3J1UO8hHAiawuATzJ9+vTxlmXV27ZtAKjB4KKrcgCVGHwGFsTgHb019J9bmHkDgDZmXt3X19e0fv36rO5B5qvdugIXY3irl3X6m2maX9AVLBqNTmXmFmh4H+Vz6/+jrruzE0+90udlCtrO5hcil+XUHqOh57cbASzyOBUxTKZpbguHw6ZSah28KwA6dQZj5vOg4cu/vFThim9p2UCQE678dhleWtaP7p0ZbQN8rM0vp+GKQpdTBYDIPeFw+ACl1MUALgUw0eN0WjXHO0tHkG9/rgSjy3KqGedIVYXCNz5bgnsWZmR92mpm/mNxcfGfCvX8DiH2RAoA4YqGhoaDBwYGriSiM5Elg6Fs235OV6xwOFwHDYdalQQJZ/5bzh2u6Nj5XxyFh5/fiZ39rnUBpM0vxD5IASC0mjZt2uhAIHCrZVnnEZHyOp/dvJtIJBbrCqaUOlFHnNNnl2BMRTa9TJlRWa7wlROK8dA/9C3JGTqt8/98Pt+cXYfeSJtfiD2TAkBoYxjGRGb+OzMf7HUuH2ER0Q+g9wz0k3QEOe34rGiOeOK047QVAB3MfFMwGLxb2vxC7D8pAIQW4XA4COBRIsq2L38w87Wmab6sMSQBcNwBCE/yIzqlcN+CDVMDCE/yIbHechpqezwe/42OnIQoJIXXexSuIKLvY3D0czbpGZoE+FudQaPRqAFgvNM4Xz6ucO/+d/niMVrWP0wLh8MH6AgkRCGRAkA4Nnv2bD8RaZuE59TQs+C5RGS4MQaYmQ/SEefomUU6wuS0o2foOfhIKbU/Q3GEELsp3P6j0Katre1oIhrrdR4ANgCYx8x/iMfjW128Tr3TAKPLCOGJ8vYzJgdQWa6wvcvZsftDj56e1ZOVEIVBOgDCMaXUpzxOYTmA82pqaiabpvlT0zTd/PIHNMw3OOKgIih590Ep4NMNWjohjosyIQqN3IIIHbwYA9zHzA8CmBOPx98FANM0M3JhIoqyw8PsD5qa32f+D0fDFB9eeMtxGCkAhBgmKQCEY8ycya1XGwHcadv2HYlEwpMZ7cwccRqjdoJPRyp5QcdrwcyTNKQiREGRAkDo0JyBa7wG4Pby8vLHli9fns7A9fam0mmA2hopAHaprdHSDRmHwe2Z2TFnUIgcIAWAcMy27ReVUp0AKjSHTgF40rbtWxOJxOuaY4/IpEmTSqDhfVNTLQXALhMP0LIYoqi+vr5KxvoKsf9kGZJwLJFI9AP4k8aQmwD8GsA00zS/mS1f/gAQDAYdz+z1+4DiosIZ/rMvJUGCT8MnEREVzkhFITSQDoDQIhAI3JhOp78O4EAHYd5i5tuKior+2tjYmNKVm05E5LgAGFUsX/4fNapEoavH2VZA27blZCUhhkEKAKFFY2NjRzgcPk0p9SKAMcP41RQR/dW27dvj8fibbuWni8/nK3W6A6C0RBpvH1VWQujqcRbDtu3CG6sohAPySSS0SSQS7xDRUUT09n78+CZm/rnP56uNxWJn5cKXPwBYluV4tGx6QNapfVQqreU16dcRRIhCIR0AoVVscP7q4ZFI5Ayl1PnMfAyA0qH/uYeZX1RKPWJZ1iNDawdyim3b3crhCT47+6QA+KheDa8JM3dpSEWIgiEFgHCDHY/HHwLwEABfXV1dqLi4eKCxsbHD68ScKi0t7ervd1a37EwxbBtyEuAQy2b0pZwXALZtSwEgxDBIASDcZrW0tGz2OgldioqKup0WALYNdPbYqCyXCgAAdnQzHC6rAAC0trZ2O48iROGQTyAhhmHoECLHjy7WbrQ0ZJMf1m5w/loQUS8AeVGFGAYpAIQYvg1OA6zZ4HgtYd5Yo6EYYmbHfydCFBopAIQYPsdHH7e2yc3qLqvbtRRDMR1BhCgkUgAIMUzM7PjL5t241+MMssfbMS2vRSbmUQiRV6QAEGKYlFKOC4CViTR6ZDsgevoYq1q1FADSARBimKQAEGL4HH/ZWDbwjp4735y2rCkFy9kJwAAApZTpPIoQhUUKACGGye/3vwvA8dfWi0tz7hwk7V5apuU1sAKBwHs6AglRSKQAEGKYhg40cvyF8/xb/VoOwMlVfSnGi0u1zHx6Z+XKldt0BBKikEgBIMTIvOQ0QFevjcXvZOXQw4x4eVk/unqd9/+Z2fHfhRCFSAoAIUZGy5fOn1/YqSNMTvrzi3r+7Eqpl7UEEqLASAEgxAgQ0SsAHK/iW9aUKsjFgMua0rr+3KlgMPiKjkBCFBopAIQYgVgs1kVEWu48736qR0eYnDLvCW1/5hdWrFhReC+gEBpIASDEyN2vI8ir76Xw1qrCWQvw2soU3mzU9uddoCuQEIVGCgAhRqirq+txAFpG0N44vwupdP7vCEgPAL++X9vU3s7u7u6ndAUTotBIASDECLW3t/cCeFRHrLUbLSz4W/4vCLxnYS/WaJj+N+SRob8DIcQISAEghANKqft0xZr7eA+aVufvgsDG1gHMe6JbWzxm1vIIRohCJQWAEA40NzcvArBUR6xUmvHDP3Rq2RufbTp7bPxwzg6k9U1Bfisejy/WFk2IAiQFgBDO/VJXoHWbLFx/VxfsPKoBLJtx3Z2daNuibwQyEf1CWzAhCpTP6wSEyHXJZDIWCoVOBzBOR7zV7Ra2ddo4/rCgjnCe+82CHjz9ap/OkO+ZpvkDnQGFKERSAAihQVVV1XYi+pqueI2rB+BTwKz6Il0hPTH3sR7cs1DvOj0i+s9kMtmoNagQBUgKACE06OjoaAqFQqcBGK8r5tJVaTADhx+Ue0UAM/DHR3tw5+N6z+ghordjsdiVAPJ/z6QQLpMCQAg9OBQKvQ3gQgCkK+jy5jQ2bB18HKC0RXWXZTN+eV83FvxN+w4927btr3V0dKzTHViIQiQFgBCaJJPJtqqqqilEdJjOuLG1A3i/JY1jZhahOJjdVUBHp42rbuvEc2/0uxH+rng8PteNwEIUIikAhNBo7NixS5j5OwBG6Yy7bpOFZ1/rw8F1AUyozs637fLmFL5703bE1urb67ebJIDTk8mkHPwjhCbZ+UkiRI7aunXrzqqqqi1E9BXdsXv6GAtf7UNnL+NQI4Aif3Z0A7p6bdz2cDd+dV8Pune682ieiL5rmuYbrgQXokBlxyeIEHnGMIwFAM52K/7YMQpXnVmGUz5TDPLoXWzbwN/f6MfvHuzC1u2uHlxwr2maF7h5ASEKkRQAQrhg5syZpX19fUsBNLh5nfAkH87/Uim+cHQxfBk61su2gcXv9mPu472ZOLp4VXd39+Fy5r8Q+kkBIIRL6uvrZ9i2/SaAErevNXmcD6efWIIvHB3EuCp3nuxtTFp4Zkk/nli8Ex9s1Heq354QUa9lWUckEgnZ8y+EC6QAEMJFhmGcA+A+ZOi9phTw6foinHBYEQ6fXgTjQP+IHxHYNhBfN4Clq1JY9HY/lsfSmTyimJn57Hg8/mDGrihEgZECQAiXRaPRq5n5115cu7JcYUadH7UT/Kid4MPk8T6Uj1IoKyGMKh58+/f2Mbp3Mjp7bHyw0cLajRZWtw/g/dYBbO/ybCjBf5mm+TuvLi5EIZACQIgMMAzjtwCu8jqPXMDMN8fj8Wu8zkOIfCfbAIXIgGQy+Xx1dfVkAFoPCco3zPxAPB7/f17nIUQhkHHAQmQGx2KxiwHc5XUiWez+ioqKCyDn/AuREdIBECJzOJlMLgyFQgAw2+NcsgoR3W6a5vc2bNjg/vYCIQQAKQCEyLhkMrmoqqpqGxGdAlmHw8x8tWmaP/E6ESEKjRQAQnigo6Pjzerq6iYApwAIep2PR3Yw81nxePxPXiciRCEq9LsPITxVX19fa9v2wwCO9DqXTCKitwcGBs5oaWlJeJ2LEIVKOgBCeGjr1q3bx4wZs0ApVYHCKQIW9Pb2nr527drNXiciRCGTDoAQWSIajZ4KYA4zT/Y6F5esYebL4/H4Qq8TEUJIB0CIrJFMJmPBYHBeUVHRAICjAPi9zkmTNBHdEQgEvt7c3Py+18kIIQZJB0CILBQOhw9SSs0BcJLXuTj0PIDvm6bZ7HUiQogPkwJAiCxmGMaxAK4B8CWvcxmmJQCuN03zRa8TEUJ8MikAhMgBkUjkUCL6bwBfR/a+bxnAM8x8Yzwef9PrZIQQe5etHyRCiE9QV1d3oN/vP9O27QuJKOJ1PgBARB8w80OWZd0t2/qEyB1SAAiRmygajR5t2/bZRPRFAAdm9OJEH9i2/QwzL0gkEq9n8tpCCD2kABAiD9TV1YV9Pt9JGFw0eCKAsZovsQnAywBesm37pUQi0aI5vhAiw6QAECIP1dXVjVVK1RNRlIgMAFFmHsvMpURUBmA0gIqhH+/E4LG83UTUw8yblFImM5vMHLNtu7mlpUUO7REiz/x/B7cfm2/FI9cAAAAASUVORK5CYII=;" vertex="1" parent="1">
          <mxGeometry x="720" y="400" width="80" height="80" as="geometry" />
        </mxCell>
        <mxCell id="OGwYj7ShU7cMMN8LMooF-81" value="" style="shape=image;imageAspect=0;aspect=fixed;verticalLabelPosition=bottom;verticalAlign=top;image=data:image/png,iVBORw0KGgoAAAANSUhEUgAAAgAAAAIACAYAAAD0eNT6AAAACXBIWXMAAA7DAAAOwwHHb6hkAAAAGXRFWHRTb2Z0d2FyZQB3d3cuaW5rc2NhcGUub3Jnm+48GgAAIABJREFUeJzs3Xd4FOXaBvB7dlM2HdJ7gBC69A4qvUgHaSJ+iIhYUGxYUBBFEQWBY6EISrEAAiJIEwGRLr3XUEISQjqpm7KZ748FD0dBk9l3d3Z27991cfkdyPvMzQdknp15C0BEREREREREREREREREREREREREREREREREREREREREREREREREREREREREREREREREREREREREREREREREREREREREREREREREROQUJBWvHQTgPgA1ANQEEAfA+9aPSlA3GxERkSgygGwAebd+nL/14xyAEwDS1Qhly5usF4DOANoD6ACgro2vT0REZG9kACcBbAewDcAWAAW2uLC1b8A6AK0BDAcwFICPla9HRESkZYUAfgawFMAGACZrXchaDYA7gBEAxgOoZqVrEBERObJ4AB8BWASgWHRx0Q2AG4BnALwCIEJwbSIiImeUCOBjAHMAlIgqKrIBeBDA5zC/2yciIiKxzgN4DuZ5AhbTCahRGcA3AH4Db/5ERETWUgPAZgBLYF4tZxFLnwA0BbAcfM9PRERkSwkAhgDYq7SA3oKLvwhgGYBAC2oQERFRxfnBvMIuB8B+JQWUNAASgBkA3lE4noiIiCynB9Ad5g/im2HeU6DcKvoKwA3AYpgfOxAREZF9WA3gEQBF5R1QkQbA5dYFelUwFBEREVnfTwAeBlBani8u7yN8CcCX4Cd/IiIie1UL5kn5a8rzxeVtAD6Cee0hERER2a/6ML+u3/pvX1ieVwBDAXxnaaJ/YvDwgbePPzy9K8Pd4AW93gV6vQtcXFx5WhAREWlaWZkJptISGI15yM3JQG5OBgoLcqx92cEAVvzTF/zb/bUGgIMQfIiPJEnwD4xCaEQc/AOj4OHp+7dfN7gbIEm8/RMRkePJz8tGeupVJCacQXrqVchyhSbwl0cOgCYALt7rC/7pDusOYB+AhqLSuLi4IbLKfYip1gDuBu97BnI3GKCTRGxSSEREZN8KC3IRf+Egrlw8gtJSoWf+HAbQCvc4SOif5gC8CfPjf4tJkoToag3QsHkvBIdWhYuL2z2/1s3NDXodtxcgIiLn4OrqjuDQqqhSvSFMphJkZ6WIKh0GwAhg591+8V5PAKoBOAnAw9Kre/v4o17jLvD1C/7Xr9Xr9XB3c7f0kkRERJqVnZWCQ/vWITcnQ0S5ApjP6bny11+410ftpQDqWHrV8MhaaNiiJzw8fP/9iyUJBjd3vvcnIiKnZvDwRnTV+1BQcBM5N9MsLecK84f6ZX/9hbs1AK0ATLP0ilWrN0Ht+u2hK+fjfDdXN+j1fPRPRESk0+kRHlkTAJCelmBpuZoAfgVw7c6fvNsd90sA1S25Ulzt1oit1bLcX6/TSXDjo38iIqL/ERgcDZ1Oj7TUq5aWCsVflvT/tQFoAvOmP4pViW2M6hW4+QOAq6sbdDrO+iciIvqrgKAolJQUISsj2ZIy1QGsBfDnDMO/3nVftKR6QHAM4uq0qdAYSZLgonex5LJEREQOrV7DDggKqWJJCQl/ucff2QD4AOintLK7wQv3Ne5S4Ul8vPkTERH9M0mS0LRlL7gbvCwp0x/An5vw3NkADATgqbRqzXoPwM2t4qsGOfGPiIjo37kbvFCvYQdLSnjB3AQA+N8GYJjSigFBUQgNj6vwOJ1Ox3f/RERE5RQVUxeBwdGWlHj09v9x+3m9F4BMmE8QqrDm9w9EpcphFR7n6uoKVxdXJZdURJZlZGUmIz83C4WFeQAADw9veHlXRuWAcLvYg6C4uBCZaYkoKMhFcXEh3NwMMHh4wz8gAgaPu2+fbGvZWSnIvZkOozEfZWUmeHj4wNPLD/6BkWzoiIisLCM9ETu3fqN0eBEAfwAFt1/At4XCm79/YKSimz8A6G10szAW5uL8mX1IunYGRcaCu36Nu7snwqNqoUbtVvDwFHr2UblcT7qA+PMHkZGWcM9DISr7h6FqXGNExdSzebNSXFyIC2f2IzHh9D1PsXJ1NSAsMg41areGt09lm+YjInIWAYGRCAiKQkbatX//4r9zB9AawK+3X8A/CXMTUGFxtVvD2zegwuMkmJf/WftGdu70HhzY8xMy0xNhKi2559eZTCXIzryOK/FHIMsyAoKibHKTzc/Lxv6dK3Hh7H4U5N/8x681FubhetIFXE88b9MnApcvHsb+nauQlnoVpSVF9/y6srJS3MxOxZX4IyguNiIoJAYSD3UiIhJOp9PjeuJ5pcOTAGy93QBMAlDhlwouLm6o27AjJAWf5HU6nVUf/5tMJTi4dy0uXzwMWS4r9zhZLkN6agJuZqciNLx6uXcyVCI9NQF7fluGvNzMCo0rKirAtSun4OMbAB/fQCulA8rKynDs4GacO70bZWWmco+TZRlZGclIT7uGsPA46G34moeIyBl4e1fGpQuHKvS9+Q4ygEW379y1lVQICIqCTuEyPmt/uj68fz2SE88pHp+SdAF/7P7RGmc0AwBuZt/A3p0/oLi4UNF4k6kEB/aswY3r8YKT/deJw1tw5dJRxeMz0q5hz47lMJnu/eSFiIgqTu/iisCQGKXDawHmVQABt35UWOXASKUXV/TUoLzOntqNpGtnLa6TmnIZZ0/e9RRFixQXG7Fv58p/fCVRHrIs4+C+df/66kCJK/FHcTn+iMV1srNScPzQFgGJiIjoTkHBihuAYACVdTAfEqCI0sl/wL3PIbZUYUEOLpzZK6zehbP7kZ+XLaweAJw/vQeFBblCapUUG3H6+A4htf6sWSK25tXLx5GVeV1YPSIiAvwDIywZXlMHQHEFT+9Kiq8sWakFOHd6D0ymUmH1yspMOHtql7B6xsI8XL54WFg9AEhMOC3iyMg/xZ87oPjVxL2cOSG2SSEicnbePv6WDI/Q4Y5tASvCzd0TLi6KVg5ajSyXIVnAo/+/up54XulEi7/XSjovtEG5LSnhjLBaiQmnhdW6Le3G1XsuwSQioopzdXWHu7viDXx9dDCfAaDowpawxuf/jLREFBcbhdctLS1G2g2Lj2IEYF7vbw3Xky8KqZObk4G83Cwhte4kyzJuXBeTkYiIzFzdFN+LlTcA9ri0q6LL6SpWO0NQHetkzMsRlU9MnbvJzbHenw8RkTNycbGsAVB0J7fHDV4KC8VMrLsb462tg+2lzl+VlZlQXGT5e3tr5TPXtt6fDxGRM7Jg+3U3+7uLW8JKa/bNpa1XWxQRGa3525Rh//8/JCJyFg7VAFhza1xRtS08y/medDo93A2KJ4P8yeBhnXwA4OFh+zMWiIjo7hyqAfDytt4BNN6Calsro5cFSzLvJOr3eTfW/PMhIqKKcagGIDA4Gi4Wrk64G73eBUEhVYTUCg2PFVLn73WrC6njWykYnl5imom/Cgmzzu+diIgqzqEaAJ1OjzBBN8I7hYRXF7bqITyyplUmUIZH1RJXK7KGsFq3BQRGqnLMMhER3Z1DNQAAULNuG0tmRf6NJEmoVbeNsHqeXn6IqVpfWD3A/Om/sr/ybZn/Kq52S+GbPNWqp+i0aSIishKHawC8ffxRtXpjYfWqxDaEr1+QsHqA+Wbo5mYQUkuvd0HdBu2E1LrN3d0TNeq0FlYvLKKGsFcoREQkhsM1AABQt0EHBCo/JelP/gERuK9RJwGJ/pfBwxst2g6ATqe3uFajZg/BxzdQQKr/VaN2S0QIeK3g7eOPxi0eEpCIiIhEcsgGQKfToXmbvgiw4Lhi/4BwYTfpuwkIikKTlr2g17soGi9JOtRv3BmRMXUEJ/uvxs17WDRp0cc3EK0fHARXVzFPO4iISBw9gHa3flSIwcMbkTF1FV/YRa8X+q7+r/R6V0RVqYvi4kLczLpR7nGSJKFKbEM0bdXHkj2Wy8XXLxAhodWQnna1QmcYGDy80bx1X6ve/AHzpMqI6DqQ5TJkZSRXaKOhiKhaaHn/ALgbrLc3AxGRs7t66ZjSXXB3OGwDAJg/JYeGV0dYRA0UGfNQkH/znjcxnU6PkLBYNGvVB1ViG1o9220GD29UiW0Md4MX8nIzUfIPjYDBwwdxtVuiWave8PENsEk+SZIQFFIFEdF1UFxciPy8LMhy2T9+bZOWPVG9ZnPoFD7dICKi8rGkAXCK79B+lYLRou0AlJQUITXlMvJyMmA05gOQYTB4w9s3AMGhVS0+4VApnU6HanGNUS2uMXJupiE9NQGFhbkoLiqEq6s7PDx94B8YKXSmf0V5+1RG05a9YTKVIDXlCnJupqHImI+yMhMMHt7w8q6MkNBqcHP3UC0jERGVn1M0ALe5uroLmdhmTb5+QcJXHYik17siLCIOYRFxakchIiILOOQkQCIiIvpnbACIiIicEBsAIiIiJ8QGgIiIyAmxASAiInJCbACIiIicEBsAIiIiJ8QGgIiIyAmxASAiInJCbACIiIicEBsAIiIiJ6T4LIDS0mJkpF1TfGFXFxfo9XrF44mIiJxdSUmR4rGKG4D83Ewc2vuj4gsTERGRevgKgIiIyAmxASAiInJCbACIiIicEBsAIiIiJ8QGgIiIyAmxASAiInJCbACIiIicEBsAIiIiJ8QGgIiIyAmxASAiInJCbACIiIicEBsAIiIiJ8QGgIiIyAkpPg2wbuPmmLd2u7AgBjdXeLm7CqtHRETk6IZ0aoVjB/YpGssnAERERE6IDQAREZETYgNARETkhNgAEBEROSE2AERERE6IDQAREZETYgNARETkhNgAEBEROSE2AERERE5I8U6A5NhMJhPyc3MAAEVGI7x8fODp5a1yKiIiEoUNgBMpMhqRePUykhKuIOnWf28kJyE7MwNZGenIykhHdmYGCvLz7jo+ICgYnXr2wxPjxiOqSjUbpyciIpHYADioxKuXcfrYYZw/dQLnT53AuZPHcO3KJciyrLhmRloqln89D6u//RpvffwpBo0YLTAxERHZEhsAB2AqLcXJIwdx9I+9OLR3F478sQfpN1Ksdr2S4mJMeuEp6HV6DHjsCatdh4iIrIcNgEZlpKXiwO4d2L5xHbZvXIfcm9k2z/Deq8+hdYfOCIuMtvm1iYjIMmwANORq/AVs/HEFNq9ZibMnjqodB0VGIxZ9PhNvTJ2pdhQiIqogNgB2LiU5EetXfIcNq5fj9LHDasf5m982rmMDQESkQWwA7FBZWRn2/74NK76ejy0//whTaanake4pKeEKTKWl0LvwrxIRkZbwu7YdyUhLxbKFc/DD4i9xIzlJ7TjlYjKZUFCQDx9fP7WjEBFRBbABsAMJly7im3mf4ofFC2AsLFA7DhEROQE2ACo6fewwPv9wMn7b9DPKysrUjkNERE6EDYAK4s+exmdT38Hmn1ZatDEPERGRUmwAbCj52lXMnPwmNqxaxk/8RESkKjYANmAsLMCCWR9h4eyPYCwsVDsOERERGwBrkmUZ61Z8i0/eeV0zs/qJiMg5sAGwkmtXLmHSC09h72+/qh3l7tw9gIgqQHAEEBwOyADWLVE7FTmJ3JybSEq4gqz0NNUyeHn7ICK6CgKCQ1TLQKQmNgCCmUwmLJ0zG7OnvG0fS/okCYiJA+o2g1SjPhBbG6haGwiLBnS6/37dsb2Q2QCQFZ05fgRb1q7G1g0/4fypE2rH+VNoeCQ69OiDTj37osUDHaC7898FkQNjAyDQlYvn8dro4Th+6A/1QuhdgHrNgObtITV9EKjbBPDmJj2knvOnTmDGpNfw+5aNake5q5TkRHz35ef47svPUbNufbz87jTc36mb2rGIrI4NgCArFy/AB6+PQ2FBvu0vHhACPNgD0oO9gKYPAl4+Nr38qL5dEBYZjZCISERExaBK9RqoWqMWIqKr8NOUEzOZTJg5+Q18/ekMzax6OXfqOEYP6I4OD/XGtPlL4e3jq3YkIqthA2Ch7MwMTHx+NLasW23bCweEAN0GQ+o6EKjX/H8f59vY8UN/3PWph8HDA7E166B+k+ao17gZ7mvcDLG16rApcAJ5uTl4eeRQ/P7LBrWjKLJtw1oM6dQKXyxbi+iqsWrHIbIKNgAWOHnkIJ5/dACuJybY5oKubkCHvpB6PQq06mx+3G/HjIWFOHX0EE4dPQQsnAMAqOQfgOZt26Hlgx3Qun1nxMTGqZySRCspLsaYgT1waO8utaNYJP7saTz20INYse0PBIeFqx2HSDj7voPYsVVLFuK9V59DkdFo/YuFRkF6+Emg30jzJ38Ny87MwC9rV+GXtasAALE1a6N9997o2KMPGjRrCUmSVE5IlnrnxTGav/nfdiM5CWOH9cOSDTvgbjCoHYdIKDYAFVRSXIwpr47FikXzrX+xmg0gjRwPdB4A6PTWv54K4s+dQfy5M1gwaxrCo2LQa9Aw9Bo0DLG16qgdjRRYv/J7rP7ma7VjCHX80B+YPeUtjJ8y3arXKS0pQUZaKjLTUzUzZ8JZ6V1cEBAYjIDgEE2/0mQDUAE52VkYO6w//tj1m3Uv1LA1pFFvAG26mpfxOYnka1cxb8YHmDfjA9Rv2gJDRo5B9/6DYfDwUDsalUNxURFmvTtB7RhW8e38zzBs9HOIiK4ivPbFM6cwd/r7+G3Tz8jPyxVen6ynckAguvZ5GKNffgNhkdFqx6kw7bYuNpZ49TKGdm5t3Zt/zQaQPlsLadEOoG03p7r5/9Xxg/vx5jOP48FaEfj47Ve5k6IGrFg0H4lXL6sdwyqKi4rw2dR3hNdd8sUs9G3TAOtXfs+bvwZlZaRj2Vdz8VDT2ti05ge141QYG4ByOH7oDwzp2BKXzp+1zgVCoyF9+A2k7/8A2na3zjU0Kic7C1/9Zzo6N6iGCc+ORPy5M2pHontYu2yp2hGsavOalULP8vh+wReY+saLMJlMwmqSOoyFBXhFg6te2AD8i4O7f8fI3p2QkZYqvrirG/DIc5BWHwO6DVZ1KZ+9KykuxupvvkbvlvXw4v8NwtX4C2pHojvcSE7CySMH1Y5hVYUF+cK29k6+dhUfvvmSkFpkH0wmE954egTycnPUjlJuvOP8g9+3bMSo/t2s82iuTVdIa05BGj8T8PQWX99BlZWVYdOaH9CzRV1MeuEpZKTeUDsSAdi97RfIsqx2DKvbKWg3wyVzZqO4qEhILbIfmelpWPPdYrVjlBsbgHv4dd2PeO6RvigyCj6+188f0ntfQfr8Z/NhPKRIaUkJViyaj26Na2Dh7I9RUlysdiSnZrO9MFR28dxpIXV2bF4vpA7ZHy29BmADcBdbf16DFx8fLP6m8kAPSKuPA72Gi63rxPJyczB94nj0alkP+37fpnYcp5WWcl3tCDaRfiPF4hqyLCP52lUBacgeXbtySe0I5cZlgH+xa+tmvDhyCEpLSsQVdTdAenEaMPhpp57Zb01X4y9gZO9O6DdsBMZPmQ6/yv5qR3IqmQqP9R0U5oP59Wy/udXchGy8fi69wuMKC8Sc8MkNrxyXlvYF0E5SGziwawfGDuuPEpHv5qrWhPTNXmDIM7z5W5ksy1j9zdfo2aIuH7HamAxl7/+99Op8C/JQel0B8xwkSUJklWoW1yH7FF2tutoRyo0NwC2njx3G04N7wVgopsMHAHTsZ775x9UTV9MODY/wxYP+Hogw2McDpfQbKXh6cC+8+9IzYv88iQRp162n2hHISrT0Z2sf37FVdj0xAWMG9RI321+nh/Tcu8DjrzrFp/4PagTCx8XcSxaYynCxoARn8oqxP9uIPVmFOJdfrPDzoXKyLOP7hXPwx67fMHvJSqttLZyXm4NdWzfj2uV45GRnW+UaajF4eCAmNg73d+rGVyqCPTbmBXw3/3N1jg8nqwkNj0SfIY+pHaPcnL4ByMvNwZhBPZGWkiymoMET0odLgXa9xdTTGE+9DvV93FHfxx2Dw3wAABklJuzLMmJnViE2pOUjoVDg/Ip/EX/uDAZ1aIHJs+eh58BHhNXNy83BvOkfYPlXc5Gbc1NYXXvk5u6OYaOfw/MT3uO2zIIEh4XjnZlz8NpT2rlZ0D9zcXXFtC+XaurfiFO/AjCVluKF4Q/j/KkTYgoGhEBauNVpb/73EuCqR49gL3xYMxDH28ZgW4sovFClMqp4uNrk+gX5eXh11DBMfX2ckF3Xtv68Br2a18WCWdMc/uYPmLfB/frTGRje/QHkZGepHcdh9B4yHB988TVPGXQAvpUqY87ydWjetp3aUSrEqRuAjyeOx57tW8QUi6oGackuoG5TMfUcWGNfd0yOC8DRtjHY3iIKj0X4wqCz/quSJXNm45nBvRTv1HUjOQljH+2P54b1Q0pyouB09u/kkYN45QlxT1EI6DdsBDYcPIuhTzyNoNAwteNQBUVVqYYnX3wdmw6fR9uOXdWOU2FO+wpgw6plWPz5TDHFqtWGNG8TEBQupp4TaeTrjkZ1gjE5LgBLknKwMDHHqq8Ift+yEY90aYP5KzcgNCKqXGPKysqwbOEczJz8pqa2+bSGnb9uwrYNa9HhIT7lEiU8KgYTP/kCEz/5AoUF+Ujn7pZ2T6fTISAoRFOP++/GKRuA86dOYMJzo8QUq90I0pwNQKVAMfWcVGVXPV6oUhnPxVTGz6l5mHopE2fzrLO734XTJzG0cxssXPMLqtWo9Y9fe/7UCUx8YTSOHdhnlSxatPqbr9gAWImHpxeiuESQbMTpXgHk5+Xi+eEDYBQx+7bGfZDmbuLNXyC9BPQJ8caeltGYWy/EavMEUpKu4dFu9+PE4QN3/XVjYSFmTn4TAx5swpv/Xxzau0vtCEQkgNM1AO+Pf17MSXJVa5pv/n5cHmUNOgkYEuaDA22iMaN2EILd9MKvkZWRjif6dMbxg/v/5+f3/vYr+rSuj/mfTBW7I6SDuJmVCVNpqdoxiMhCTtUAbFrzA378dpHlhcJjIM3bDPgHW16L/pGrJOGJSD/80ToGwyN8IXqqYG7OTYzq1xXHD+5HVkY6Xh/zf3iibxckXLoo+EqOw8vbB3oXp3x7SORQnOZfcUpyIiaOG2N5IT9/SJ+vB4IjLK9F5VbJVYdP6wRjSJgPXjidiosF4j6Z324CXFxdkZVR8f3hnU29RlzpQuQInOIJgCzLmPDMSORmZVpWyN0AadZqoGpNMcGowtpU9sCuVtF4qWpliFw5mJtzkzf/cuo1+FG1IxCRAE7RAPz0/RLL1/tLEqR3FwKN2ogJRYoZdBImVg/AqkbhCLLC3AC6t1r3NUSfITzOmsgROHwDkJF6A1MnvGx5oRGvAF0HWV6HhGkf4ImdLaPQprK21+JqRUh4BD79djXf/xM5CIdvAD54fRxyMjMsK9KmK6Sx74kJREKFurtgbZMIvFS1svAJgvRf7br1xA/bDyAypqraUYhIEIdu5fds34INq5ZZViQ0GtLUpYCOj5rtlV4CJlYPQKynK8adTkOJgDPblXJxdUXTVvdD0mm/t67kH4AqsXHo1Ksf6jRorHYcIhLMYRsAk8mED9+08NG/3sV8sp9vZTGhyKqGhfsiwuCC4cdSkFtaZvPr12nQGO99+iVvlkSkCdr/mHIPyxbOwYXTlp3yJz09CWjYWlAisoV2/p7Y3CwSYe626219fP3wxoezsGL7H7z5E5FmOOQTgJtZmfjP1HcsK9K4LTByvJA8ZFsygCA3Pa4XWX+3uk69+uGtjz5FSDj3hSAibXHIBuDLmR9aNvHP3QPSO18CDvAe15kYy2RMi8/EZ1ezrT4PIDQ8Em9N/wwde/Sx6nWIiKzF4RqA9BspWDr/c4tqSM+9C0RXF5SIbOG3zAK8eDoNl614lDBgPgb0kSefxbiJ78PL28eq1yLnYywsQEZaKsrKbD+HhcrPxcUF/oHBcDcY1I5iEYdrAOZ/MhXFhQXKC9RtCgwbKy4QWVV6sQlvnU/Hsuu5Vr+WTqfDkvW/oUnr+61+LXIeydeuYsGsj7B1/RqkXk9WOw5VQHTVWHTrNwgjnnsJlQO0dyqsQz3jTkm6hu+/mqe8gE4H6c1PueRPA2QA3yfnosWeBJvc/AGgrKwMh/bxKFwSZ813i/FQ01r4fsEXvPlrUMLleMz/ZCq6Na6B3dt+UTtOhTlUA7Bg1kcoLS5SXqD/E+YnAGTXLheWoO+hJDx96gYySkw2vfacj6Yg+dpVm16THNPa5d/gjadHoMhoVDsKWSgnOwtjBvXEgV071I5SIQ7TANzMysTKb75WXsDPH9LYKeICkVVsSsvHA/uuYUdmoSrXNxYW4IPXXlDl2uQ40lKu4x0Rp5OS3SgtKcH40cNhLFTne5MSDtMALPtqLooK8hWPl0aOB/z8BSYi0Q7eNGLEcXU2+bnT1vU/Ycfm9apmIG1bMmc2Ci34fkX2KSXpGtYuX6p2jHJziAaguKgIS+Z9prxAaBQw5FlxgUg4kwyMO5MGY5l62/ze6YPXXkBpiXVXHJDj2r5pndoRyEq2b9TOn61DNAAbVi1D5o3risdLT08C3LW9nMPR7c4qxMlcC+Z3CJZwOR6rv7XglZODkRQexVRoUudpjuJGUrL8yClZlpF45ZLFdcg+JVy6qHaEcnOIZYDLF81XPjiyKtBzmLgwZBXbMyxY2mklcz6agr5D/w9u7u5qR1Gd0iVQy67n2mwVhwgenp5C6sgqHlhF1qWlPRw0/wTgwumTOLp/j+Lx0uPjAb1D9EEO7ZpR7La+vi46TK0ZiGA35Us+U5KuYfnXFiw7dSBBoWFqR7CJgOAQi2tIkoTwqBgBacgeRVWppnaEctN8A/DD4i+VDw6OAHoNFxeGrMZNZ/mj19t6B3vjj9bReDq6Et6rYdnmHfM/mQqjJRtPOYiwyGi1I9hE9Zp1hNR5oMtDQuqQ/dHSn62mG4AioxFrln+jeLz0yHOAGx/fakFtbzeLa4QbXPB9wzAsaRCK0FunBQ4K88H9/h6Ka6bfSMGKRRY0oQ6iTYfOkAS8H7d3bTt2FVLn/54Zx1dHDiggOAT9ho1QO0a5aboB2LllI3KzMpUNdvcA+o0UG4is5qEgL+gV3l90EvBUlB/+aBWN7kFe//NrEoDpHh7RAAAgAElEQVTptYIsesLw7fzPNPXezxpCI6Ic/ihkg4cn2nTsIqRWeFQMXnt/hpBaZB90Oh3e/2yhps4I0XQDsGH1cuWDHxrCdf8aEuvpikFhFf+HVdfbDVuaRWJarSB4u9z9r3tNLzeMjPRTnC3h0kXs3LJR8XhH0Xvwo2pHsKouvfvD4CFmEiAAPPLks3jt/RnQ67n1uNYZPDwxfeF3eLBrD7WjVIhmGwBjYQG2bfpZ8Xhp8DMC05AtTK8VhHo+5Xts6qGX8E5cAH5rGYUmfv++xPOlqpXhqVf+z+GbeZ8qHusoBo8c47CT21zd3PDcm5OF1x3x3EtYvfMIHhowBJ5e3sLrk3VV8g/AoBGjseHgGXTvP1jtOBWm2envv21er3znv1oNzT9IU7z0OqxpHI5nT6Vic/q9/+w7BnhiRu0gVPFwLXftYDc9xkT74ZPLWYqy7d72Cy5fOIeqcTUVjXcE7gYDXnh7Cl4b7XgTa4eOesZqs7tr1L0PM776HiXFxUhPTUFmeppVrkPiSJKEgKAQBIaEavoJjmYbgF9+WqV4rNTrMYFJyJYC3fRY1igMWzMK8F1yDo7nFOFGsQkRBhc08HHHqCg/NCvHJ/67GRtTCQuu3USOgq2GZVnGsoVz8MaHsxRd21H0Hvwo9mzfgp++X6J2FGHqNWqKFyd+YPXruLq5ISwy2mlWVJD6NNkAmEwm7FJ69KKLq/n9P2mWBKBTgCc6BYh7HwsAlV31GB3lh+kKnwJsWL0c4/lOF+/Ono+r8Rdw9I+9akexWFBoGD77bg0MHspXihDZK03OATh2YB9ys5V9k0bLTkDlILGByGE8EeUHV4XL2dJvpODArt/EBtIgN3d3zF+5QdiSObVUq1ELSzfsQEh4hNpRiKxCkw3Arl83KR4rdegrMAk5mjB3F/QK8fr3L7yH9auWCUyjXT5+lTD3h/V4fOzL0Om0922mXbeeWLZ1H2Ji49SOQmQ12vuXCWCn0gZApwfa9xIbhhzOU1GVFI/dsnY1SoqLBabRLr1ej/FTpmPVzsOaeRoQV6ce5v2wHnOWr4OPr/KloURaoLkGIC83B6ePH1E2uFEbPv6nf9WikgH3lXO54V/dzMrEbqXzUxxUrXoN8OXqTVi54yCeevlNVK9dV+1I/yMkPAJDRo7Bl6s34cddRzW1lSuRJTQ3CfDYgX0oM5kUjZXaaONTCKlvUJgPTig8fnjH5vVo162n4ETaV7dhE9Rt2ATjJr6PnOwsXLtyCTlK5/IIYPDwRGRMVac5yIjorzTXABzau0v54JadxAUhh9Y/xBuTLqRDybHxe3dsFR/IwfhWqoy6DZuoHYPIqWnuFcARpUf/+gVw8x8qtwiDC1pUUrb062r8BSQlXBEbiIhIME01AGVlZThx6A9lg5s9CGhwNjKp5+FQ5Vuz7tuxTWASIiLxNHVHvHY5Hvl5uYrGSvVbCk5Djq5roPLlgPv4GoCI7JymGoDzp04oH3xfc3FByClEGlxQ3bP85wnc6Q9uCEREdk5TDcC5U8eVDXRxBWo3EhuGnEI7hdsNp15PRkbqDcFpiIjE0VQDoPgJQLVagEHsvvHkHNr5K/97c+bEUYFJiIjE0lQDcOn8GWUDY+uJDUJOo01lA5SdDACcZQNARHZMMw2ALMtISriqaKxU3b52HiPtqOyqR7SHsnkAZ08cE5yGiEgczTQA6TdSYCwsUDY4to7YMORU7vNxUzTujNItq4mIbEAzDYBFG6vE8EQvUk7puQBXL12ESeG21URE1qaZrYAtagBCo4TlIOfTQGEDYCotRfqNFJ4nf4uptBQH9vyObet/wqG9u3Dtcjxyc26qkkWn0yEgOASBwaGIq1MPHR7qjfs7dYOnl/LNn4i0RjMNQFrKdWUDKwUCHso3dCGq7qXsFQAA3EhOdPoGoMhoxDfzPsXC2R8hKyNd7TgAzLuKpqVcR1rKdZw5fgRrly2Fu8GAhx8bhafHv42AoGC1IxJZnWZeASj+xhHGT/9kmUiDi+KVANeTrgnNojU7Nq9H9yY1MX3ieLu5+d9LkdGIb+d/hq4Nq2Px5zPVjkNkdY7fAASEig1CTsegk+Dvqlc09kZSouA02rFkzmw8M6Q3ricmqB2lQvLzcvHhmy/hpceHwFhYqHYcIqvRTANwMytT2UDfymKDkFOKMCh7W5aS7JwNwAevvYCpr49DWVmZ2lEU27h6OUY/3B0lxcVqRyGyCs00ANmZGcoG+rEBsLZZV7Jw6KYRZbLaSawnXGEDkHMzW3AS+7fsq7lYOvc/ascQ4sCuHZj80tNqxyCyCs00AIUF+coG+vmLDUJ/M+NyFjr+kYiav1/GmJM3sDolD9kl2v3kdzeVXJT9UzEWKNy7QqNOHD6A98c/r3YMoVYt/QorFy9QOwaRcJpZBaD0MZzEMwBsJq3YhGXXc7Hsei5cJAnNKhnQJdATXQK9UNdb+Ux6e+ChV9gAKN28SqOmTXgZpSUlascQbtaUt9B9wGB4efsIr11cVISfli3Br+t+RMLleGSmpwm/Boml0+kQEBSM2Jp10K3fQHTtOxA6nWY+T/9JOw1AicL3cK7avvFoVaksY29WIfZmFWLyhQxEGFzQJdALnQM90c7fA54Kb6hq8dArWwfgTJPItm9ch0N7dqodwyoyUm/g609n4Lk33hFa9/jB/Xjp8SGW7XNCqsjOzED8uTP4Ze0q1PrkQ8xavAIxsdradE4z34UVT8RhA2AXkoyl+DrxJh45eh1Vf7uM/oeTMTchG/EF2vi06KlT2gA4zxOAZQvnqB3BqpZ/PU/opMbD+3bjsR7tePN3AGdPHMWQTq2QcOmi2lEqRDMNQLHSBsCFDUC5SEpXuldcUZmMbRkFeP1cOprsvoomu6/i9XPp2JZRgCI7nUloUPwKwDmeAOTn5WLf79vUjmFV6TdScPzgfiG1CvLzMO7/BqLIaBRSj9SXnZmBF0cM1tTKF800AHq9snXYKONe7OXi7afapeMLSjA3IRv9Dyej6m+X8cjR61iUmIMkY6lqmf6qRGFjosX3gkrs3vYLiouK1I5hdds3rhNS5/svv1C+uynZrdPHDmPLutVqxyg3zcwBcHVT+Em+2PG/KQkRFQsYPAGjuo+sC0xl2JCWjw1p5lUfdb3d0CXQC10CPdGskgEuNnxScad8k7KuXvHfW425Gn9B7Qg2IeqEx80/rRRSh+zP5jUr0bXPw2rHKBfHbwCUTh50Nq5uQPs+wMbv1U7yP07lFeNUXjFmXslCJVcdOgSYVxV0DPBEkJvCp0IKFJiUPQFwdZI5KKnXk9WOYBOitnaOP3dGSB2yP/HnTqsdodw00wC4uSk7kY0NQPlJoydA3rrabp+aZJeUYXVKHlan5EEnAY18/7vMsIGPOxTO0yuXAoVPANwNBsFJ7FNG6g1lA5u1gzTqdbFhykH+dTXww/wKjyvIy7P82rKMoiK++3dUhfkK96xRgXYaAHdlDYCcn6P4IBenU7UmpLe/gDxxFCDb52S828pk4NBNIw7dNGJqfCaC3fTodOtVQfsAT/gp3LjnXvIVPgHwreQcO1GWlCpczRETB7ToKDZMOUhJV6DkT7TMZPmcIkmSEBQShhQnPyjKUYVERKododw0M0PJx6+SsoE3FW4h7Kx6PQZpxgrAX1vHoaYWm/Bdcg5GHE9B7G+X0eNgEmZfycKZPDFPgG6WKvvG71eZO1HS37VqZ/umh2yjdbtOakcoN800AJX8A5QNzGIDUGEd+kJaexrSa7OAJg8Aes08KAJg3oRod1YhJl3IQKu9Cbhv5xW8dCYNm9LyUajwk3xCobIVCYr/3pJDGzb6OUgqTWgl6zF4eGLA8CfUjlFummkAKgcEKhuYbd9nkNstbz9g6LOQFm6F9Nt1SB9/D/R+DAgIUTtZhV0zluKrxJsYcvQ6qv52CQMOJ2PetZu4XFi+x9YmGYqXJAYEaetJCtlG3YZNMHyMY52ZQMBL70xFcFi42jHKTTMf7RR/kkrnWluL+VQCOj8MqfPDQFkZcOYw5J0bgV0bgdOHzD+nEcYyGVszCrA1owCvAYjzckPnQE90CfRE60oecLvLTMLkolKUKJwTERYZbWFiclTjp0xHzs1srPlusdpRyEKSJGHMKxM019RppgHwDwxSNvD6NfNmQDrbLRlzaDodULcppLpNgTFvA5mpwO7NkHdtAvZuAXKy1E5YIRfyi3EhvxhfXM2Gl16H9gEe6HxrMmGYu/mfR0I5nxTcTXhUjKio5GD0Li6YOmcR7u/UDV9Me5dLAzWqftMWGPf2FLTS0Lv/2zTTACj+RlpaAqQmAaH8JGYV/sFAr+GQeg0HTKXA0b2Qd28yPx04f0LtdBWSbyrDz6n5+DnVvIznPh93dAn0RLEF2xOHRfHvHf2zhwYMwUMDhuDyhXO4cvE8MlJvoEzWzlM1Z6TXuyAwOAQ16t6n6ad8mmkAIqKrKB+cdJUNgC3oXYAm90Nqcj/w/PtAyjVg1ybIuzYC+7cBhdpZHwsAJ3KLcCJX+Z4I/oFB8PFVb4tl0paqcTVRNa6m2jHIiWhmEmB4VIzyWbNXnWObUrsTGgU8/CSkWash7bgBac4GYNhYILq62slsonqtumpHICK6J800AO4GAwJDQhWNlS9q61G0Q3JzB1p1hvTqJ5DWnoH083lIb88BHuhh/jUHVL02GwAisl+aeQUAADGxccpO0NLYu2inEFkViBwFacAo86uB/VvNKwt2bza/OnAAShtWIiJb0MwTAACoWbe+soEX2ADYNQ8voF1vSG/PgbTpkvnpwKufmLeIdXFVO51i/5nyNjrdVxWTXngKm9b8gPy8XLUjERH9SVNPAGrUvU/ZwJuZQPIVILyKyDhkLZFVgWFjIQ0ba15WuHeLeZnhrk1AVpra6SokKeEKViyajxWL5sPg4YHmbdvhwa49cH/n7oiqUk3teETkxDTVACh+AgAAR/ewAdAi38pA10GQug4ybzh0+hDknRuAnRuBs0e0tQlRYSF+37IRv2/ZCACoVqMWHuzaA936DkT9pi1UTkdEzkZTrwDi6tSDTqcssnx0j+A0ZHM6HVCvGaSnJ0H6bh+kLQmQ3l0IdH7YvHWxxlw6fxZffzoDgzu2xLCubXHp/Fm1IxGRE9FUA+Dp5Y2qNWopG3x0r9gwpL6AEKD3Y5A+/h7SjhRIC34FRrwCVNfe7PvD+3ZjSMeWOHZgn9pRiMhJaKoBAIBGLVorG3jxJA8GcmR6F6Dpg5DGTYW08iikjRchTfjcvMzQ4Kl2unLJzbmJsY/2R3YmT7AkIuvTXAPQuEUbZQPLysx71ZNzCIsBBo6G9J815k2I5m0CHn8VqKrwCZKNpKVcx4JZ09SOQUROQHsNQEuFDQAAeddmgUlIM9wNQIuOkF74ANKPJyCtOQXp5Y/Nywxd3dRO9zc/frsIssLTB4mIyktzDUB0teoICFZ4Jv2eXzQ1a5yspEoNYPg4SPM2mZ8OfPID0P8JIDhC7WQAgMz0NCRevax2DCJycJprACRJQpv2nZUNzkozLwckus3TG+jQF9LEuZB+uWI3mxDl5+aodm0icg6aawAA4P7O3RWPlX/5QWAScji3NyGatwnS1kRIU5cCPYYBlQJtGsOvsr9Nr0dEzkdTGwHd1qZDF+j1ephMpooP/nU1MP4TQKcXH4wci58/0H0IpO5DgDITcPKgeROiXRuBs0cBK72n9w8M0vQZ41QxJpMJv/78I35d9yMSLscjK11bu106I0mnQ0BQMGJr1UG3vgPRpkMXtSMposkGoHJAIOo2aorjB/dXfHB6CnDwd6B5e/HByHHp9ED9FpDqtwCenQykXwd2bYa8ayOw91cgX9wj+3bdegqrRfbtwumTePmJobhw+qTaUaiCEi5dxJH9e7By8QI0a/sgPv7yW4SE28c8ovLS5CsAAGjfvZfisfJPiwUmIacUGAb0HQFp+nLzJkRfbgEeewmoUtvi0h179BUQkOzdmeNH8EiXNrz5O4ADu3ZgcMcWSEnS1kmmmm0AuvcbpHzwr6vMBwQRieDiCjRrB+npDyEtOgbpwzWKS3l4eqG10kmupBlFRiPGDuuPPE72dBg3kpPw8sihmlrCq9kGICY2DnUaNFY2uMgIrP9ObCCiYvN/5F3rFJdo160nDB4eggKRvVqxaD6SEq6oHYMEO7xvN3ZsXq92jHLTbAMAAA/1H6x4rLxyvtUmcZETKgYgA8jJALYoby57DRomLBLZr42rl6sdgaxES3+2mm4AuvUfBEmSlA2+dAbYzZ0BSZCiW83kugVAUaGiEpX8A9C2Y1eBoTTASZtwvvd3XOdPnVA7QrlpchXAbRHRVdDigQ7Yt2OrovHy0pmQ2nYTnIqcTikAE4DSEsg/zlFcpnu/QXB1s7+ticvD28dX2cAtqyAnqrDr4bWLioa5GQwWX1qWZRQW5Ftch+xTfl6u2hHKTdMNAAAMGvGk4gYA+7cB544BNRuIDUXOxXjrU+zvPwLpyYrLDBzxpKBAthccGq5sYE4WsF/hv18VVBKwQZMkSQgIDkHqdeV/V8h+BYcp/LegAk2/AgDMS6YqByjfpU1e8KHANOR0Sm/9KCuDvHSq4jL1mzRH7fqNhMWyNS1907NETGyckDot7uc+JI6quYb+bDXfALi5u6PP0MeUF/h1FXD+uLhA5FwKb336//V74PIpxWUGPf6UoEDqsOSUTi1p3radkDpDnnhaSB2yL27u7hgwfKTaMcpN8w0AAAwd9Qz0eoVb+8oy5C/eEZqHnESJbH73X1IMedG7istU8g9Aj4eHiMulgtr1GyE8KkbtGFal0+ks2oDsTo1btkH/Rx8XUovsx9Pj30ZEdBW1Y5SbQzQA0VVjLds9bcfPwMkD4gKRczDe+u/PC4Fk5RPZhj7xNAwenmIyqahr34fVjmBVTVrfr/wo8ruY9MkcdHiot7B6pK6ho57BUy+/qXaMCnGIBgAAHh/7svLBsgz545eddkkSKVB869O/Md+id/9u7u545MlnxeVS0cixr8DTy1vtGFYz9o3JQuu5ubvj029/xMQZnyMoNExobbKdmNg4zFy8AhNnfK58WbpKNL8K4LaGzVuhUYvWOLJ/j7ICx/YCm5YB3YeKDUaOySgBkCEv+wTITFFcptegYQgMCRWXS0WBIaF4fOzL+PxDsTdKe9CuW080a/ug8Lo6nQ5DRz2DQY8/heMH9+Nq/AVkpN6ADH4YsWc6nR6BwSGoUfc+1LqvodpxFHOYBgAAnnzxdTwzRPkjNXn2BEjt+wAG7T+OJSsqlIEyANcuAN99rLiM3sUFo196Q1wuOzBq3Hhs37gOp48dVjuKMP6BQXjr40+teg29Xo9GLVqjUYvWVr0O0Z0c5hUAYD4hsH7TFsoLpFyDPPc9cYHI8ZQCKIL5tdHMsUCx8d9G3FPvwY8iulp1YdHsgcHDE3OWr9Pcsaj34uLqipmLV2hqYhdReTlUAwAAz09QPhsbALB0FnDacT69kGAFtx7NblwMHN6muIzexQVjXpkgKJR9CQ4Lx9wVPyM0PFLtKBYxeHhixlffC1v6R2RvHK4BaNOhC5q0vl95AVMp5MmjAVOpuFDkGIwwP/rPSoU893WLSvUf9rjDffq/U637GmLF9j/QoFlLtaMoEhoRhW8370SX3gPUjkJkNQ7XAADAixM/sGw25rljwFcfiQtE2mfCnwf+yJ++CORkKi7l4emFsW863kS5vwoKDcPSDTvw5rTZFu3WaUvuBgNGPv8KftpzTPlx40Qa4ZANQJNWbdGt70CLasjzpnBvADKTAeTL5v9uXAxs+8GiciOff8Vpln25urlh+Jjn8cuxeLzy7kdo2LwVdDr7+7ZTrUYtjBr3GjYcPItX3/sYvpUqqx2JyOokAO8AmFTRgXUbN8e8tduFBTG4ucLL3VVYveRrV9GjWW0YC5UdzQoAiIqFtPwg4Om4a5upHApgXvd/9Szkp1oBRuUnuYWER2DDwbMOvV7+36TfSMGR/XuQePUysjLSIau0/4aPnx/Co2JQr1FTVKleQ5UMRJYa0qkVjh3Yp2ToZIdaBnin8KgYPD72Fcz5yIJZ/dfiIU99AdJ7C8UFI20pgvnmX1QIefIjFt38AWDCtP849c0fMO8X0Ll3f7VjEDk9+3sWJ9CTL75m+f7k65YAK78UE4i0xYQ/D/uRP38FuHTSonIde/ThjY+I7IZDNwAenl6YNHOOxXXkj14Eju8XkIg05faSvy3fA2stawK9vH2svpkMEVFFOHQDAAAPdO6OXoOGWVakuAjyq0OA9OtiQpH9y7u11//xXZA/Gm1xuRfenoLQiCjLcxERCeLwDQAAvDltNgKCgi0rciMR8tg+QEGemFBkvwpg3vEv+RLkiYOBkiKLytVr1NRhDvwhIsfhFA1AJf8ATPjoP5YXOnME8hvDgTKT5bXIPhXK5kl/N9Mhv9oDyE6zqJzexQXvffol9Hq9oIBERGI4RQMAAN37D0afoY9ZXmjHz5A/HGd5HbI/xbg1698IecLDQFK8xSWfn/Cupk8LIyLH5TQNAABMnPE5YmLjLC+0Yi7k6a9YXofsR4lsnvRXUmxe7ndS4bHSd7i/UzeMGveagHBEROI5VQPg6eWNjxd8CxdXARsOfTMbWDDV8jqkvhIZyIf55v/OEGD3zxaXDAwJxQdffG2Xu94REQFO1gAAwH2Nm2Hc2+8LqSV/NhFY/ImQWqSSP2/+RZDfHiTk5q/X6zHz6+UIDAm1PB8RkZU4XQMAmPdi795vkJBa8szXIM9+U0gtsrH/+eQ/FNi3QUjZ596cjKZtHhBSi4jIWpyyAZAkCe99tgCxNWuLKfj1x5BnvgaotKc5KVAM882/IBfym/2FfPIHgNbtO2P0S28IqUVEZE1O2QAA5p3Z/vPNavj4+okpuPgTyJNGAaUlYuqR9RhhnvCXngx5bHvgwC9CykZXjcX0hd/xvT8RaYJTf6eqVqMWPvt+DVzd3MQUXLsE8jM9gNxsMfVIvAIARhm4dBLys/cD8ceFlPX28cVn363RzLn3RERO3QAAQPO27fDOzLniCv6xHfKIB4GkK+JqkuXKZCD31iY/+zZCfu5B4MY1IaX1Li6YvXQl4urUE1KPiMgWnL4BAID+jz6Op199S1zB+NOQH2kB7N4sriYpZwKQKwGlMrBsBuQJA4CCXCGlJUnCe//5Eq3bdxZSj4jIVtgA3DJ2wrt4+P9GiSt4MxPy2N7Alx9wcqCaimD+5J+dBvmNvpDnvgGYSoWVf/mdD9Fv2Ahh9YiIbIUNwC2SJGHyrHnoOfARcUXLyiB/Pgnysz2B9BRxdenfyTDP8i+UzSf6jWoG7Nso9BIjnnsJT4wbL7QmEZGtsAG4g06nw4dzF6Njz75iC+/5BfLAxsAOMUvN6F+UwPypv8gELJ0K+cUuQFqS0EsMHfUMxk+ZLrQmEZEtsQH4C72LCz75ahke6PKQ2MJZaZDH9Yf87hgg76bY2vRfhTKQLwMXTkB+9n7ICycJfeQPAIMffwpvT/8MkiQJrUtEZEtsAO7Czd0dn337I7r0HiC2sCwDqxdC7lcf2LZGbG1nVwIgRwZyCiHPfwvyUy2BMweEX2bIyDGYNHMOb/5EpHlsAO7B1c0Nnyxajt5DhosvnpYM+aWBkF8aCCRfEV/fmZTB/Ik/XwYObIX8eCPgu4+ssiHTE+PGY+InX/DmT0QOgQ3AP9Dr9Zg6ZxGGjnrGOhfYtgZyv/qQP58EFOZb5xqOSoZ5Q59cGbh0HvLEwZBf7g4kX7LK5V6c9AFemTyNN38ichhsAP6FTqfDxBmf45XJ06yzxWtRIfDlB5D71AV+/Fr4+2qHVAwgF0DidcjTn4E8oiHw+49WuZSLqyumfLaQ+/sTkcNhA1BOT4wbjxlfL4O7wWCdC6QmQZ48GnLfesDP3wBlJutcR8uKZfN7/tQsyHMnQH60NrBugdWaJh9fP8xfuQEDho+0Sn0iIjWxAaiAbn0HYtG6bQgIDrHeRa7FQ37rccj96wOrvwKKi6x3La0oApAD4NJVyJ++CnlwdfN7fmOB1S4ZGVMV3/2yG63adbLaNYiI1MQGoIIaNm+FlTsOokGzlta90JXzkN99CnL3WPNugtnp1r2evSmTzaf23ZSBg3shvz0Y8iO1gB9mA/k5Vr106/ad8cNvB1C9dl2rXoeISE1sABQIDY/E0g07MGTkGOtfLOOGeTfBLlUgv/4o8Md2x95auBTmHfyu3wR+XAT56fshP/sAsGO11V+LSJKEJ154FfNXbUQl/wCrXouISG0uagfQKlc3N0yaOQf1m7bAlFfHoiA/z7oXLC4CNi2HvGk5EBULPDQUUtdBQLXa1r2uLZQBKJKBgmJg3y+Qt3wL7FkPFBttFqGSfwCmfLYQHXv0sdk1iYjUxAbAQv2GjUDjlm3w6qhhOHFY/MYzd3UtHpg3BfK8KUD1upC6DAQe6AHUbABoZZlaKYASGcjJAw7vgLx3I/DbKiAnw+ZRmrdth2lfLkVoeKTNr01EpBY2AALExMbhu19247Op72DBrGkwmWw4g//iKcgXTwFfvAMEhgFtukBq3QVo3BYICrddjn8jy+bd+opk4OxR4MAWyAd+BU7uAUqKVYnk5u6O5954ByOffxV6vV6VDEREamEDIIiLqyvGTXwfD3R5CBOffxLx587YPkT6deCnxZB/Wmz+3xFVgEZtIdVvCdSsD1SvC3j5Wj+HDPMnfBOAa5eBs0cgnzsCnD8CnDsE3FR/QmPdhk0wdc4ixNWpp3YUIiJVsAEQrHHLNli98wjmTn8fC2ZNQ0mxOp9uAQBJV4CkK5B//sb8vyUJCIsBYusCUdUgRVQ1NwnhVQD/QMAvAHB1K1/tsls/igqB5EQgJQFISYScfBVITQSuXwEuHAVys6zwG1PO4OGBp16ZgCfHvQa9C//6E5Hz4ndAK3Bzd8fzE95F9zu76/cAABvgSURBVH6DMGncUziyf4/akcxk2Xz2wK3zB+66lsDTx9wIeHgBru7mn/OpbJ6QV1RoXoJXWmL+7+2f04gHOnfHhI8/RXTVWLWjEBGpjg2AFcXVqYdvN+/C+pXfY8bE15CSnKh2pH9XkGv+4UAioqtg/PvTxZ/uSESkYdwHwMokSULPgY9g4+FzeOa1iTB4eKgdyWn4+PrhlcnTsP7AGd78iYj+gg2AjRg8PDH2zcnYfOQiHnnyWbi6lfNdO1WYu8GAx55+AZuOXMAT48Zb7/wGIiINYwNgY8Fh4Xh7+mf45ehFDB/zPNzc3dWO5DBc3dwwaMRobD5yEW98OAv+gUFqRyIisltsAFQSGhGFN6fNxvoDZzB8zPPw9PJWO5Jmefv44okXXsWWY5cwefY8hIRHqB2JiMjusQFQWWRMVbw5bTa2n07Ai5M+QFBomNqRNCM0IgqvvPsRtp+5hlfe/Yg3fiKiCmADYCd8K1XG6JfewPbT1/DVT1vQre9A7k53FzqdDq3adcLMxSvw6/FLeOKFV+HtY4PNjYiIHAyXAdoZvV6PVu06oVW7TkhKuIJVS7/C2mVLkZRwRe1oqoqJjUOvQcPQZ+hjiIypqnYcIiLNYwNgxyKiq+D5Ce9i7JuTcfzgfmz8cQU2//iDNvYTECA0Igode/RBz4GPoGHzVmrHISJyKGwANECSJDRo1hINmrXE+CnTcezAPvz+ywbs/HUTTh87DFm+655+miNJEmrWa4B2XXugY8++qNuwCSStnG5IRKQxbAA0RqfToVGL1mjUojVeeHsKMlJvYNfWzdj3+zYc3rcbCZcuqh2xQqKqVEPTNg+gdfvOaNWuEwKCgtWORETkFNgAaFxAcAj6DH0MfYY+BgBIv5GCI/v34PD+3Th7/CjOnjyG7MwMlVOa+QcGoWa9BqjTsDEaNWuFhs1bISA4RO1YREROiQ2AgwkMCUXn3v3RuXf/P38u9Xoyzp8+gQunTyIp4QoSr15G4tXLSLp6GcZCsYf5eHn7IDQiEhExVRFTrTpiYuMQExuHGnXuQ3BYuNBrERGRcmwAnEBwWDiCw8LRtmPXv/3azaxMZGWkIzsz488fRmMh8nJuAgAKCwpQXFQEAHBxcYGXjw8A843e29cPPr5+8PGrBP/AIIRGRMLD08t2vzEiIlKMDYCT86vsD7/K/mrHICIiG+NGQERERE6ITwCI6F/dSE7CL2tX4fSxw8hIvYHS0lLVsnh6eSEsMhqt2nXCA527w8XVVbUsRFrGBoCI7slUWopZ772FJXNm/TkXxF58M+9TxMTG4Z1Zc9HygQ5qxyHSHL4CIKK7Ki0pwTNDemPBrGl2d/O/7Wr8BYzq1xUbVy9XOwqR5rABIKK7mvXeBPy+ZaPaMf6VqbQUbzw9AvFnT6sdhUhT2AAQ0d9cT0zAkjmz1Y5RbkVGI2a+N0HtGESawgaAiP5mw6rlKCkuVjtGhezYvB452VlqxyDSDB0ARVvBuRsMgqMQkb04c/yI2hEqrLSkBOdOHlc7BpFm6AAkKBkYGhktOAoR2YvM9DS1IyiSkZ6qdgQizdAB2ArAVNGBzR/oKD4NEdkFuaxM7QiKlJkq/K2MyGnpAKQC+LYig8KiYvDgQ32sk4iIiIis7vYkwNcAJJZrgF6P8dM+g6ubu/VSERERkVXdbgBSAHQDcOWfvtjN3YCJsxegGXfdIiIi0rQ7lwGeAtAIwDQfP7+SO7/I3d2A9j374+vNe9Gp7yCbBiQiIiLx/noWQDaA1/dcSr//8vmzrdNTU+Dl44vo6jVh0vHADSIiIkdx18OAXFxc5Lg69RBXpx4AoKikFHlGbW0KQkS2JzWsCql1LYvrlC3YAhSrd+IgkTPgaYBEJIzUsib0bwywuE7ZNzvYABBZGbcCJiIickJsAIiIiJwQGwAiIiInxAaAiIjICbEBICIickJsAIiIiJwQGwAiIiInxAaAiIjICd2tAWg/ZlCPGu1qR6JegCtaVwvCUwO6Yf2yJTCVcmMOIiIiR3BnA+AJYBmAbTs2bwi6kZwEU2kpsjLSsX/HVkx95Wk83rUVEq/EqxSViIiIRLndALgCWAtg8D998aVzp/FMv05ISUywejAiIiKyntsNwHgAHcszIDMtFVPGjbZeIiIiIrI6HQAPAK9WZNDRfTtxdN9O6yQiIiIiq9MBaA/Ar6IDd2xcJz4NERER2cT/t3fn0VGVhxvHn0z2BFB2XLAgsiguBaxBRBRcUGmxP6UgFtRWal2q4qkCakWxStFWBReUFrAoKAhYBdGi7EsIkBD2fQs7IQsQkkkmmUz/CPwKRSBz5868M3O/n3M4eHDe9z45ycx9cpf3uiS1tDJw17bNNkcBAACh4pJUy8rAY0eP2BwFAACESpykGNMhEF28FRVakbFYWzeuU/GxIqNZEpOS1bjJpWp/UxclJacYzYLI4C4pVsb8OdqTs0NlpW6jWVJr1FSzVleoXfuOio2LM5oF0YefKNjG5/Np0sej9MGwIco7eMB0nFMkp6Sqz++f1OMDX6II4EeVukv0wbBXNX7Ueyp1l5iOc4q6DRrq8QEvqXe/xxUTw+9ssAdLAcMW3ooKPfvw/RryzGNht/OXqn6r+8c7w9Tnjk4qzM8zHQdhpiDvkH7d9UaNHv5G2O38JSk/96D+/Owf9MyDPVVRXm46DqIEBQC2+NvLA/Xt1ImmY5zTupVZevqBHqqsrDQdBWHC6/Xqqb73av2qFaajnNPMr6fozT89azoGogQFAAHbumGdPv1whOkY1bZ80Xx988UE0zEQJqZPGq+s9MhZ12TC39/XpnWrTcdAFKAAIGBTPh0jr9drOoZfvvjn301HQJiY9PEo0xH8UllZqSnjRpuOgShAAUDAMhcvMB3BbyuXLVG5x2M6BgzzlJVpdeZS0zH8tnzRfNMREAUoAAjYoYP7TUfwm9frVf6hg6ZjwLCCvNyIvB4k98A+0xEQBSgACFikXpXs4QiA40XqzwBHr2AHCgAAAA7EQkCARXtydmjS2FFaMm+WDu7fK09ZmdE89Ro0VKurfqruvfropq7djGYBEP4oAICffD6fxox4U+++PjisDsUePVyo7Zs36tupE5V2Y2e9NfZz1W3Q0HQsAGGKUwCAn956ZZDeenlQWO38/9fShXN1f9eOOlyQbzoKgDBFAQD8sHDWvzVm+JumY1TLru1b9Ur/R03HABCmOAUAY2IurifVTg1sEk+FfJv22hOoGt57fXDItmWH76dN1ca1q9TqymtMR4k+l7WWEhIDm+NoobRnhz15AD9RAGCM64/d5erRIaA5fDsOqqLTizYlOrv9e3ZpzYrlIdmWXXw+n36Y9iUFIAhi3p4iXXJZYJN8P1m+AffbEwjwE6cAgGratmmD6QiWbNu43nQEAGGIAgBUU9GRw6YjWHKksMB0BABhiAIAVJPP5zMdAQBsQwEAAMCBKAAAADgQBQAAAAeiAAAA4EAUAAAAHIiFgIAgS02Wxr4WE/A8E76Rps3lTgQA9qAAAEEWHyf9qmvgBSBrnU/T5toQCADEKQAAAByJAgAAgANRAAAAcCAKAAAADkQBAADAgSgAAAA4EAUAAAAHogAAAOBAFAAAAByIAgAAgANRAAAAcCAKAAAADkQBAADAgSgAAAA4EAUAAAAHogAAAOBAFAAAAByIAgAAgANRAAAAcKA40wGcZNf2rcpaskj5hw6ajqI69Rqobfsb1OSyFqajADBkx5ZNWpGxWIX5h0xHUd36DdWuw426pGkz01EcgwIQAhvXrNRfBj2jZYvmmY5ymrbtb9Dzw4bryjbXmo4CIERWZy3TsOefUfbSdNNRTpN2Y2cNGvaOWl15jekoUY9TAEE2a/q/1Pu2DmG585ekFRmL9euuHTVjyuemowAIgRlTPlefO24My52/JC1dOFe9b71es7/5ynSUqEcBCKL1q1bo2X73q9TtNh3lrDxlZXr+sYe0ctkS01EABFH20nQ9/9hDKvd4TEc5q1K3W8/2u18b16w0HSWqUQCCaOig/iorLTUdo1rKPR69PuAp+Xw+01EABIHP59Nrzz0Z9jv/E0rdbg0d1N90jKhGAQiSbRvXKyt9oekYflmbnan1q1aYjgEgCCLx/b180Xzt2LLJdIyoRQEIkswlkbXzPyFz8QLTEQAEQaT9QnJCZjqfScFCAQiSvIMHTEewJPfAPtMRAARBXm6Efibt5zMpWCgAQVJRXm46giWRmhvA2ZVH6Hubz6TgoQAAAOBAFAAAAByIAgAAgANRAAAAcCAKAAAADsTDgMJMaqxLzVPjA55nW0m5iioqbUgEwMlqxrnULCXwz6QtxeUq9vKZFE4oAGHm6lqJ+u7aiwKep8eKfZqVX2JDIgBOlnZekqa0vTDgee7M3KslheH9XBSn4RQAAAAORAEAAMCBKAAAADgQBQAAAAeiAAAA4EAUAAAAHIgCAACAA1EAAABwIAoAAAAORAEAAMCBKAAAADgQBQAAAAeiAAAA4EAUAAAAHIgCAACAA1EAAABwIAoAAAAORAEAAMCBKAAAADgQBQAAAAeiAAAA4EAUAAAAHIgCAACAA8WZDmCat6JCKzIWa0/ODhUcypVPPlvmzV6abmnc3tIKDd9ZGPD2d7rLLY1bm52p0cPf8GuMu6TE0rZ8c9aoMveIpbH/P0fBMctjv/h4lM6vU7far9+4ZpWl7ZR6pDfGBP5ztXS1tTn27c7x+3u6b3eOpW35srercuR3lsaeoszaz++cb6f5lf1wQb6l7UiSb+o/FHN+PcvjJcm3eY2lcR5Pmd/f07Urllva1k53uS2fSXtLKyyNy16a7vfXeiYxilGd+g3UuMmlapPWQbFxzt4Fxkh6RdLL/g5s3fY6jZo217YgSQnxSk2Mt22+c6koL9e4kcM1ZsSbKszPC9l2AQDm1a5bT/36D9SDj/eP6CJw363Xa9XyDCtDhzjyFEDxsSL97p479LfBA9j5A4ADFebn6a8vPad+99yhkmLrRxIjmSMLwMBH+ipjwRzTMQAAhmXMn61Bv3/QdAwjHFcA5n43XbNnfG06BgAgTPww/UvNnznDdIyQc1wBmDjmQ9MRAABhZuLYj0xHCDlHFQCfz6dli+aZjgEACDNLF9h3UXukcFQBOHb0iErdbtMxAABhxl1SrKKjgd2WHGkcVQCSU1LlcjnqSwYAVIPL5VJKSqrpGCHlqL1hXHy8mrZoZToGACDMNGt1RUSvB2CFowqAJN11Ty/TEQAAYeZOB+4bHFcA+j72tOo1bGQ6BgAgTNRvdIEeeOxp0zFCznEFoGat8zR83GQlJSebjgIAMCwpOUUjPpmi1Bo1TUcJOccVAElqd31HffrdAjVt3tJ0FACAIZe2aKUJMxeqTVoH01GMcNYVDye5ss21mp6xVjO/nqLZM77Wnp3beS4AAES52nXrqXHTZrql2926vfu9jrvw72TO/colxcbF6a5779Nd995nOgoAACHlyFMAAAA4HQUAAAAHogAAAOBAFAAAAByIAgAAgANRAAAAcCAKAAAADkQBAADAgSgAAAA4EAUAAAAHogAAAOBAFAAAAByIAgAAgANRAAAAcCAKAAAADhRnOoBpWekLNXfmN8rZtkXFRUVKSExU/UYXqH2nLrql291KSk4JSY4jhQX6ftpUZS9NV97BA6qoqAjJdhG4xKQkXXBRY7W/+RZ1vuMXik9IMB0pKpV7PJr77+laMneWDuzbo7LSUqWkpqpx02a66fa7lNapi2JiYkKSJWfbFs38eoq2rF+r/EO5Idkm7FGjZi39pFlzdb7zF2rb/gbTcYyKkfSKpJf9Hdi67XUaNW2ubUGSEuKVmhhv23znsnvndr3w+G+UuXjBGV/T4IIL9cIbI9T17h5BzfLpR+/qvdcHq+jokaBuB8HXuMmlemX4R+rQ+TbTUaLKotkzNeSZx7QnZ8cZX3Nlm2s1dOTHan7FlUHLUeou0dCB/fXl+LHyer1B2w5C47qON+v1kWN18U+amo5i2X23Xq9VyzOsDB3iyFMAWzesU68uaWfd+UtS7v59eubBnvpk5PCgZXl9wFMaOvBpdv5RYvfO7Xrk3js1bdJ401GixrSJn+rRX3U7685fktZmZ6r3bR20ctmSoORwlxTrwW6dNXncP9j5R4lli+apZ+frtHXDOtNRjHBcASh1u/VE77tVmJ9Xrdf7fD69+adntXzRfNuzfDn+Y40f9Z7t88Isr9erl57sp83r1piOEvE2rl2ll576XbV3uMXHivRkn3t09HCh7Vle6f+oVmcts31emFWYn6cn7v+lykpLTUcJubApAKE5cydNHPOhdu3Y5tcYr9ervw0eYGsOT1mZhv/5RVvnRPjg+2uP4a++KE9ZmV9j8g4e0JgRf7U1x4bV2Zr+xQRb50T42LV9qyaN/ch0jJALmwLg8/lCsh2rb+LVWcuUs22LbTkyFszRoQP7bZsP4WfBD9/pSGGB6RgR63BBvhbNnmlp7DeTP7P1M2XGlM9D9hkFM5xY8FySPFYGVlSU2xokFG8tr9erTWtXWR6/bmWWbVnWr1ph21wIT96KCm0M4OfN6TauXSWvxbth9u3OqfZpvupYl23fex/hacOalRF5bUe5x9IuXJI8LknHrIwsOWZp2BmFol2XHCsK6Bt8xMbzikVHDts2F8LX0UL7z0U7RdHhwN4jdl4HcJT3a9TzVlSo5FiR6Rh+K7aeucglydLo4iJ7r1r3hqAA1Kh1XkD3aNer39C2LHXq1rdtLoSvug3s+5lxmjr1AnuP1K3fwKYk9s6F8JSYlKQatc4zHcNvAfwyWWT5CEDBoVwVF9nXliorK4N+GiAmJkZt06wt/OByudQmrYNtWdpe39G2uRCekpJTdMU1bU3HiFit27RTUnKypbEtWl+lmuedb1sW3q/Rr03aDSFbSMouRUePqCDvkOXhLkl7rY7etX2z1aGn8fmkysrgHwW494GHLY27qWs31WvYyLYc1/ysvS67vLVt8yH8/Lzn/ZZ3YKgqUN169LY09t6+1t7nZ9K9Vx8lJCbaOifCSw+L+waTdmzeGMjwvS5Jm6yOXrfC3ntiy0NwAUa3Hr3VrsONfo1JSa2h5/5s721FLpdLL775rmJjY22dF+GhTr36evL5IaZjRLwnX3hVtevW82tMy9ZXq/fDj9ma48LGP1G//gNtnRPh42cdb9Kd9/QyHcNvAS56tcklKV+SpctlV5xjJT1/VXgrbZ3vx7hcLo34ZIpatL6qWq9PTknVO/+cpKbNW9qepX2nLhr89khKQJSpdX5tvf/ZV2pwwYWmo0S8hhdepPc/+0q1zq9drddf0rSZPpj4dVCex/DEoJfVvVcf2+eFWS1bX63h4ybL5Qqbu+KrLWPBHKtDcyUVnviKN1iZIWvxXJW6S6wGOE0ojgBIVRf0fP5Duvo++tRZPyiu63izJs5aok633xW0LD0fekRjp81Sy9ZXB20bCJ2b7/i5Js9bbuv1Ik7Xtv0Nmjx32Vnfh7GxserxYD99MXeZLrqkSVByuFwuDRv1iQa/PTLgCxRhXnxCgh54vL8+n5Uekd9Pd0mxMuZbLgAbpP8uwPcXSYOszPLy+x/rtl/2tBriNLVSEhUfwt+IDxfka/Gc77Vz62aVut2Ki4tT/UYXKK1TFzVreXnIcvh8Pq3NzlR2xmLl5R5k0ZEIEh8fr4YXXawOnW9T4yaXmo4T1Xbt2Kb0uT8od99elZeXKzEpSY2bXKqOt3QN6R0XnrIyZSyYo83rVusIt3pGlOSUFDW5rIVu6HK7zqtdx3Qcy6ZNGq+Bj/S1OnyopBdPFIDbJVlacqvN9Tfqvcn/thriNInxcaqRxONUAQA4kz53dlJW+kKrw2+VNPvEKYBFkvxbcPu47CULtWa5fU/f8pRX8NsvAABnkL00PZCdf5mkdOm/zwIokWR5ttFvvWZ16Gl8ktwea8t/AgAQzXw+n94e8nwgU8yT5JZOfRiQ5SchZC2apznTpwYS6BSlHAUAAOA007+YoMzA7sAbf+I/Tl72qKak/ZJSrcxYt0Ej/fP7DNW26WrK5IR4pSTG2zIXAACR7tCB/fq/jj9V/qFcq1Mck9RIUrF06hGAIkn/sjprfu4BvfrUb1VZac+9/G5PubwhWBcAAIBw5/V69Vy/Xwey85ekL3V85y9J/3u/XY6kR3TqkYFq25ezQ8VFRUq7+Tbr8U5SUVmpxPg4a2EAAIgSQwc+re/+9UUgU/gk/UbSgRP/8L8FYL+kNEnNrW5h3YpliotP0DUWH7pzssrj1wHEx7FSHgDAmT7862sa/c4bgU4zQ9I7J//Dj+1Zt0nqF8hWshbPU9Hhw0q7+baAn65U4a1UfJxLsRG4TCMAAFb5fD59MGyI3h/6sh3T/VbS7pP/4ccKwB5J7SQFtPj9+uzl2r1jq9JuujXgdbk95ZVKiI+VK8Ie1QgAgBXFx4o06PcP6LPRI+2Y7itJpz3R7kx71KaS1kkK+FmmlzRrrpfeHaPLr2kX0DwuV4xqpSQplhIAAIhiqzOXasAjfZWzbYsd05VIukJV1/id4kwn1w8f/7tLoFs+UligGRPHqeBQrlq3+ZmSklMszePzSZ5yrxLiOBIAAIg+BXmH9MYLf9Srf3xChwvy7Zp2sKrO/5/mbHvSRElLJLWxK0Vyag3d3ee36vnwE2pw4cWW5nDFxKhmcqLiYrkmAAAQ+fbv2aVPPhyhSWNHyV1SfO4B1ZclqYMkz4/9z3P9Kt1cUqakWnYmcrlc+mn7jrqlew+163izLm7SzK/xMTFSckKCkhPi7IwFAEBI5GzboiXzZ+u7qZOUmb7AtjV0TnJEUltJ28/0guocS+8laaJdiX5M/UYXqmnLy3XJpS1Ut2EjJaemKiEh8Zzj4mJdSoiLDfhOAwAAgsVTVqaS4mPK3b9PO7du1pYNa5W7f1+wN/srSVPO9oLq7jmHSRoYcBwAABBsr0v607leVN0VdmZLulhVhxMAAEB4+lTSU9V5oT/HzuMkTZXU3UoiAAAQVF9J6iHJW50X+7PGbqWqHiRwmaSr/M8FAACCZIKkPpIqqjvA30X2vaoqAamqurUAAACY9a6kR1XN3/xPsPqUnR9UtVhQlwDmAAAA1pVJ6i/pVVU97c8vgd4/107SJEn+3cgPAAACkSPpPkkZVicIdDm9LEnXquqqQ7/bBwAA8ItP0jhJ1yiAnb8U+BGAk3WS9IGkK22cEwAAVNkk6Q+SZtkxmZ3n73MkjZaUp6q7BGxdPhgAAIfaLelFSf0kbbVr0mCtoZsg6SFJA8T1AQAAWLFV0huSPtEZHugTiGAvou9S1e2CfSX1llQzyNsDACCSuSV9o6pr676Vn7f2+SOUT9FJkXSrqm4d7KKqawV4ig8AwMl8ktZImnP8zyxVlYCgM7kDrqeqawVaSGp5/O8ax//UNpgLAAC7FUoqknRM0ubjfzapauefbzAXAAAAAAAAAAAAAAAAAAAAAAAAAAAAAAAAAAAAAAAAAAAAAAAAAAAAAAAAAAAAAAAAAAAAAAAAAADR7j82ZZhm/vw3YQAAAABJRU5ErkJggg==;" vertex="1" parent="1">
          <mxGeometry x="720" y="250" width="80" height="80" as="geometry" />
        </mxCell>
        <mxCell id="OGwYj7ShU7cMMN8LMooF-82" value="" style="shape=image;imageAspect=0;aspect=fixed;verticalLabelPosition=bottom;verticalAlign=top;image=data:image/png,iVBORw0KGgoAAAANSUhEUgAAAgAAAAIACAYAAAD0eNT6AAAABHNCSVQICAgIfAhkiAAAAAlwSFlzAAAOxAAADsQBlSsOGwAAABl0RVh0U29mdHdhcmUAd3d3Lmlua3NjYXBlLm9yZ5vuPBoAACAASURBVHic7N15fFxXeTfw391mn9HMaJctW/LuOIuzJyQ4zuY4IWmAAH0JBQIN+1agQN/St5SWLhRKS0uBliUBCm2BQiFxNggJgSwQskBiJ7ZlWbZlSdau0exzl/cPx1m9SHPvzDl35vf9fPwBgnXPkzujc5577jnPAYiIiIiIiIiIiIiIiIiIiIiIiIiIiIiIiIiIiIiIiIiIiIiIiIiIiIiIiIiIiIiIiIiIiIiIiIiIiIiIiIiIiIiIiIiIiIiIiIiIiIiIiIiIiIiIiIiIiIiIiIiIiIiI5KWIDoCIiGixnJv6kiaKb3MU5VoAawC0i46pekpFgXPIcZSDUJzHVMX5sTYX+5ny/oFSTVut5cWJiIi8Vrq55/UKnC8ASIuOpYamFSif1iPqvyivGy7UogEmAERE5BuVm7s+7ED5DJpk/FKAg1CdNxhvGvt5Da5NREQkv8o3u69wbNwGQBUdS30pFTjO+wNvGf2yl1dtsptIRER+5HwXmmPjc2jKccsxoOBL5Zu73uXlVZvwRhIRkd+Y2c6LAJwkOg6x1M9XvtF1sWdX8+pCREREtWIr6qWiYxDPMeAo33K+uzTsxdWYABARkfQUBctFxyADB1hi5u33eXEtJgBEROQHjugAZOHA+ZhzU1/I7XWYABARkfQcB/tFxyCRtKUWXa8FYAJARETSU1Xnp6JjkIntqNe4vQYTACIikp4eHrsPwHbRccjDOdPtFZgAEBGR9JTXwVKgfAiALToWSXS7vQATACIi8gXjhpG7FCj/V3QcclC63F6BCQAREfmGccPI3yuK8iei4xDPMdxegQkAERH5ivHmkU8zCXCPCQAREfkOkwD3mAAQEZEvMQlwhwkAERH5FpOA6jEBICIiX2MSUB0mAERE5HtMAhaPCQARETUEJgGLwwSAiIgaBpOAhWMCQEREDYVJwMIwASAioobDJODEmAAQEVFDYhJwfEwAiIioYTEJODYmAERE1NCYBBwdEwAiImp4xptHPg0H/yY6DpkwASAiooZXvmnJRih4jeg4ZMIEgIiIGtrhwd/+KYBW0bHIhAkAERE1LA7+x6aLDoDc2/ydkTYlZl6gaNrphmGsV1SlQ9O0FDSlRdO1uKZrEU3XdcBRVF3TAEBRFUU7/F9hWxZs2wEAWBUTcACzYsIsV1Apm7DKFZhlE+VSBeV8CaV8EaV8EbZlexK/A+QUoHz4fylzgGNDwSxsTCjAlANlylGcKRWYsBVnn2pjbzGk7x3+0MsKbtseGJvvMB1rkwNlA+Csg4M1AFIAkgBiAAy3bVBt6dYhRMq/RLjyKALmbhjmEDR7BipyAAAbUVhqChW9D2V9NQqBM5E3LoCpdQqOnGotkHnKtB55i6ZV5hTRsciIN8VHNv9w70YtELxSD+oXGIZxkhEKtBshI6IHDCEzOZVSBeV8EYVsAflMHvm5LAqZPMrFcr1COOQAQwqwC3CeUKD9tmJbT+z7+KbR4/3QztG5s20HrwecywFsAH8PfEezp5EofB8the8hVHm8qmsUjdMxF3ktMqHrYKlpjyMk0YLzT6P7N2+BVpkVHUrNBG4YddV3seOT1CXfHlyutIbfZOj6lmA0dFIoGkpqhu6LVzZmqYJcJofs9DzmpzPITs8fnlmonwkAvwWcBwHlAUcpPnjn285wzLL2dsfBWxVgfT2DIe/o9ihas19AS/5bUB3XE0AAAFuJYDbyRkzH3gtT7fLkmiRWMwz+ABOAhrHpu0P9gUTo/YFQYEsoGl4RjIZCSoN8Oo4DFOZzmJ/KIDM5h8z4LMw6JgSKAqe3JWSf0hnVTumK4vSeGKIBrW7tk3uKU0EyfxPa5/8GqpOrSRu2EsZ07H2Yir0fDoI1aYNqr1kGf4AJgK9d/OP91wYi4XeEIsFzI8lYWmmUEf8EHMdBfi6HuYlZzI5NIzudgePUr31NUdCfDmFjdwxn9yawvj0CtTluvS8FzAEsmbkRQXN7Xdor6idjJP1VlLWVdWmPvNNMgz/ABMB3Lv7x/mtD8eifxJLxs42QwcdQAOVCGdMjk5gemcT8VKbu7bdGdFywPIkL+lpwUkeEvxQSiRdvRffse2v21H8sthrDaMu/Yj50VV3bpeo12+APMAHwhUu27X9LIBx5bzwVP80Ice75eEqFEqYPTmJqeAK52Wzd22+PGriwrwWb+pNY3Rque/v0nJb8f6Er80EoTl3XjzxH0TCW+DvMRm4Q0z4tWDMO/gATAGltunOgN4j438TS8evCsTBHkioU5/OY2D+O8X1jMMv1HwR6W0K4dFUSV6xOIx5k3lZPyfw30DX3x6LDAAAcavkbzETeJjoMOoZmHfwBJgDSufSW0feEE6EPx1oT/armi0X70rMtG9MjkxgfGhPyiiCoKbigrwVb16RxUke07u03m3jxViyZvRFwLNGhHKZoOJi8CfOhK0VHQi8SzOxA9yNvhVaZEx2KEEwAJLD5HkfXi6OfiKXifxRpicVEx9PI8nNZjA6MYHJ4AnVdOfiMFekwXnlSGzb3t0DlykHPBay96Ju8FKo9LzqUF7CVKIbafoKyvlp0KPSMZh/8ASYAQl1xx1C3rYb/taUteU0gHGBVxToq5YsY3zuG8aGxum4pPKIzFsCVa9O4ck2aWwo9oqCMvoktdVvtv1hF4xTsa70TjsLikKJx8D+MCYAAV9wx1K0Y0W8lOpKX6LrOeyiQWTExuvsgxgZHYJv1nzKOBzS86uQ2/N66NoTEFGRsGK3Zz6N9/lOiwziu8fhfYDr2HtFhNDUO/s9hAlBHm78z0ma0af+e6kxdK6r8Lh2dWTYxunsYhwZHYHl0RsFixIMarju5Hdesa0OQOeGi6fYYVoyfC9XJiw7luGwlisH2h2BqrBgoAgf/F2ICUAfX3DISKQX1byQ7k6/mwC+3crGMgzsPYHxoTMgagXTEwP85pR1b16S5RmAROjMfRyr376LDWJDp6LswnvhL0WE0nWZe7X8sTABq7NJbDn60pSv9yVAsFBIdCy1cIVvA/icGMXtoRkj7SxNB3Hh2N85aGhfSvp9o9jRWjm/0rLZ/rdlKBHs6HuMBQnXEwf/omADUyEU/2nd5PJX4eqI9uVR0LFS9uYlZ7PvdIArzYqaWN3bH8I5zutGbZP54LKncv6Mz83HRYSzKocTfYSb6h6LDaAoc/I+NCYDHzr/jQDqpB7cle9rOa5ba/I3OsR2M7B7GyK4DsAWsD9BVBa85uR2vO7UdAdaGeIm+ycurPtJXlGLgDAy13ik6jIbHwf/4mAB46OJbD7473ZX+x2A0FBAdC3mvlCti8PEBZCbEdCbd8QDee/4SnNbNUhFH6NYYVo2fCqD+6zXcUTDQ8SRMrUN0IA2Lg/+JMQHwwKY7B3pjRuqWlq70aXzob3yTB8ax73eDQuoHKAA2r0zh7ed0I876AUgU/gc9s+8UHUZVRlJfQSb0StFhNCQO/gvjNgFo+vnIS285+NGOjt69yW4O/s2irbcDp1xyOhLtybq37QC4Z88M3vej3fjtaP0PO5JNuPKo6BCqFir/RnQIDSmY2YHu39zgq8HfMlqQWfo60WEsWtNWr7vmlpFIJWLclupuu4gDf/MJhINYf8HJGNszgv3bh+DY9V0bMJmv4M/u2otr1rfhLWd1wlCbMxcPmLtFh1C1oLlHdAgNJzj/NLof+UNf7fO39DhGz/gKSi2nwIz0Ir3rH0SHtGBN2etcfOvwK/TOlsl0Dwf/Zte1sgcnb96ISKL+h/w4AH781CT+6NYBDM0U696+DALWoOgQqmYwAfCUH6f9LT2O0TO/hlLLKQCAmb4bMb3mw4KjWrimSwAuv2vs65193beG4xEe0UsAgEgigpMuOg3ty8Qs6No3U8KHbxvA3QP+6fi8otr1P93RK5rj39hl0wiD/xEzfTdiful19wkKa1GaJgE497bdiat+NvV4e2/nW3hML72YpqlYccYa9G9cBUVABb+S6eAf7z+ALzx4EKbttxXx1VPtnOgQqqbaXMPhhUYa/I+YOOlTCUVR/qTOYS1aU4yEW24dObM73XUw2Z0+TXQsJLeOvi5s2HQagpGgkPbv2DWNj9y2B+PZipD268/PyU79a0o0mkYc/AHAAU4bvPzpr8meBDR8AnDpLaPvSfa2/TrSEuPma1qQaDKGDRedhnhrQkj7u6cK+PBte7Bj3L9PxwsRnH8aqPPiS09ZNoJzT4iOwrcadfB/hmLD2mS8eeTTMicBDZ0AXHb7yOfa+zu+wAN8aLGMYADrLzgZbb3tQtqfKVTw8TuHcM+gfzrHxTjS+cP08QyABXQ/8odMAqrQ4IM/AMBR1A0AIHMS0LAD4+V3HfpB+/LuD/J9P1VLUVWsPHMtlqxbJqT9im3jc784gO/8dlxI+7Xygs6/7OOdyCUNmjnPJGCRmmHwBwDFsdce+e+yJgENNzpuvmlv6Kp7p7e393a8ilv8yAtL1y1D/+mrIeJsCAfAdx4/hH++fxhWAywOfHGRF6fk32qIR2LXzHl0P/o2BDM7BEckP78W+Rk96+ZFDf6HKWue/7+MN4982nGUT3oYmusOoaESgPPvOJCOr27dn+xMnSQ6FmosHcs7sebc9RA1o3TXwAz++p59KAs4zMgrRyvy4uT9OwPg5I1n/7tWmUP3b27gTMBx+LrIT6KqIaXtxf8g+JaRv/BwJmDC7QUaJgHY8oOBjo5Ey+54a1zMS1tqeMmuNNadvwGaLuap9dfD8/jznw6hUPFfEnCsJz87axzjJ+Rn516YvHAm4Nia68n/WfGj/UMPZwJ2ur1AQyQAl3x7cHmkp3MgmoqnRcdCjS3e1oJ1F5wC3RDz5PrkWA4fv2sQ82VLSPvVCGZ2oPuRtx79yc9UfTkL4OR1wHxp96lV5tD9yFuZBDzPcT9/SVlGC0bP/Hq1T/5HHDUBAA7PBLhNAhTHucXNzwMNkABcum14TWJ1145IS+yYN5vIS7FUDOsuOBl6QMzAtWuygP93117Ml+RPAhYy7WvPiam54IY9Ezrm/8fXAc9pwmn/5zvuF9vl64AZPRD4apU/+yxfJwCb7hzobWlPPxqJhyOiY6HmEk3GsF7gTMDAVAF/etcgshLPBCx02teeCQK2j1bs2grsucBx/wpfBzTttP+iVPk6wHEc5d3KG/bPuG3fR791L7T5OyNtLSvjA9FErEV0LLIzFAdhxUHkmf8EAA1A4Jn/XnYUHBlGCo6CvKOg4CioOL79etRNdnoeTz3wJGxTzEC8rj2CT13ej5BkpS4WO+2rdeegthVqHJU37MkwrNGFHR7l0VSy7zTxtP8LrO9JLqgTrdzU9RFHUf4OJ34otxU4HzVuGPPkyEFf9vDn33Eg3dGSHIgmYynRschAAZBSbXRoFtpVGy2qjZRqI/HMn2qfUU0AGVvFnK1i9pk/E7aKCUvDjK36uoirl+YmZrHroR2wBa3QP607hk9cuhwBSWpeVNP5K4YNfc0MoEr+rbIVVHamjvr+/1iaLQng4P+chSYAAFC5uWeLA+cfARwriO2Ko3zQeMvIT7yJzocJwDW3jESQig0182r/uGJjqW5hmWahRzfRodrPPs3XS9lRMG6rOGjqOGBpOGDpyPppGtdjs2PT2PmrpwBHzAB2ztI4/uzi5VAFHGT0fG46f7U9D60rX4OovGONRmFPLv4g0WZJAjj4v9BiEgAAcL4LzSx0bbJt5TJFRS8AOA72q4pztx4eu095HTydavRdj33VvdPbm22fv6446NctrNIqWGmYSKlybgObtlXsMXUMmAaGTA1mk71CmNh3CIOP7RbW/uWrU/jAy5YKa991hTcF0FfNQgmZ3gbmEaegw9yTrLr8SjXV5PykWSr8LcZiE4B6kzq4F9v604m700vaLhEdRz0EFQdrdRPrAxWs0CtVT+OLYgIYNA3sKBvYaeooN0kycGD7EEZ2Dwtr/4Yzu/Cak+s/OeZV568ELOirZ+V7FWArMAeSrisXNmoSwMH/6JgAeOTy28b+qb2/8wOi46glFcBKw8TpRhkrDf8N+sdiAthdMfB4JYDBit7wh6jueWQnJg+4LtJVFQXAh17ei4tXJOvWptedv5ooQ1ue8eRaXrH2JWBnjr/yf8HXarAkgIP/sTEB8MBltx58X3t/1z8rqhyLnLwWV2ycEShjY6CChKTT+17J2CoeqwTwWMnAvNOYn6dt2Xjq/ieRnRYziAU0FX99RR/Wty9spbobter81XQR2pKsp9esljUcO+6+/6qu2SBJAAf/42MC4NLmH+7d2N7f84gRDDTcaNGpWjgrWMapgXLDPO0vlO0AT5sGHiwFMWL590CYY6mUKnjy3sdQLpSFtJ8M6/j81avRGqndN6vWnb+aKkFbOl+Tay+UdTAGe9rbwf/Za/s8CeDgf2JMAFy45paRiNqeGI22RBOiY/FSr2ZhU6iIFbqci53qyQEwaOr4eSmEg2ZjJQLZmXns+MXv4Ag6xW9tewSf3roCeg12BtSr81cTZWi98/VfE2ArsA7EPZv2Pxa/JgEc/BdG9gRA6qdqKx56pJEG/w7NwnWRPG6IZTn4P0MBsFI38dZoFn8QzaFHk7ey3WLFUnEsP3mFsPZ3TuTx1YdHPb9uPTt/OxM4vPiuWL85Mqegw9ydrPngDzxTMfCRP/RV2WAO/o1D2uzk8tvHvtze1/kO0XF4Ia7YuDRUxMmBirw3XBIOgKcqBn5aDGHOljo/XbDBx3ZjYt8hYe1/4IKluHyVNzWzRHb+amvhcJ2AWs0G2MrhKn/jYaDOu1b8MkBx8F8c2WcApAzukv89eE3Hqq4fizp73Su64uCCQAkvC5ah17lQj99VHAX3l4J4sBSE3+dKLMvG9nsfQ2FeTKnboK7gn65ejd4Wd4fuSNH56za09gLUdNG7RMBWYE+HYE2EF1Xhz2uyJwFSfP6LJPqeMgFYpHNv253oaV8yFo6FF19uSyK9uolrwgW0Nviq/lqbtlVsK4QxZPp7mWRuNovt9/1W2HqAla1h/MNVK6teDyBdhTfNhposQU2VoISrSxGdvA57NgR7NgBYcjxsyFoxULrPfwFkuJdMABbpynsmf5Pqaj1TdBzVCioOtoSKOC1Qlu/m+pQD4LFyAHcXQyj6uKDQyO5hHNg+JKz9157cjjef2bXon5P+yU+3oUYrUCImlKAFBCzAAHBk27BtAxUAZQ1OSTs88OcMoU/7xyP6qfXFpP/8j0KWe8gEYBEuveXgRztW9nxakSqqhevVLLwykkeST/01kbFV/G8hjH0+nQ1wHODpB55EZkJMR6oqwF9d3o/TumML/plG6Pwb4d9BFN47d2RPAKRJgS/59uDy1NK2v/Hj4K8qwEXBIt4Uy3Lwr6GEauON0RyuCBfgxw2DigKsPGM1NENM9LYD/OP9w8iXF/YdbZTOvxRfh9GzboJl1K86olsy7A5olM+fjk2aBCC0JHlHIBTwXb8eV2zcEMliU6gkz81sYAqAcwJl3BDL+rJqYiAcxLKT+oS1P5mr4ObHxk749xqt82cSsDiN9vnT0UkxZl26beT9yc7UOtFxLNYy3cSNsSyW6I2zd90vejQLN8ay6PdhPYX2vm7EW8WVt7hj5xS2jx/72N1G7fyZBCxMo37+9FLCE4Bzb9udSHamPiM6jsU6O1DGGyM5xGQ7tayJRBUH10dyODMgptxutRQF6D99NURtc7Ud4F/uH0bZeukMSqN3/kwCjq/RP396IeEJQDrQcmcwGqp9yS2PKDj8vn9ruIAaVFilRVIV4KpwAVeEC3KtaD2BcCyMnjW9wtofzpTw3SdeeGJhs3T+TAKOrlk+f3qO0ARg0y0Hrkr2tJ0nMobFMODgtZE8NoVKokOhFzknUMZ1kbyvDlXqWb0Uoai4chfff2ICI/OHv8vN1vkzCXihZvv86TChCUBLquVmxSfL/g3Fwe9H81hrVESHQsew3qjg+mgOAZ9UXVRUBctO7hPWvmk7+Ppvxpq282cScFizfv4kMAG49JaDH423xttFtb8YIcXBG6I5Xy44azbLdRNvjOYQ9kkSkOpuRUuHuAHoof0Z7P3lZ5u282/2JICDf3MTkgBsvmlvqKU79Zci2l6soOLgD6I59DbQKXWNrkezcH00h5BPkoDlp6w4vDJQkE9PXwfL8ccO3Fp0/s2aBHDwJyEJQGBJ9FuhaNjdySR1oCsOXh/Jo5uDv+/0aBZe75PXAeF4BJ19ncLa32MuxfcKlwprf6Fq2fk3WxLAwZ8AAQnAlh8MdCQ7k6+ud7uLZeDw4N/LaX/fWqpZ+H2fLAzsWbtM2LZAAPhS9joUHXk349Sj82+WJICDPx1R9x5HjSVu0gOG8O2Hx6MAeGWkgD4O/r7Xp5t4ZSQv/RbBQCiAzr7FH9TjlXErhf/OXy6s/eOpZ+ff6EkAB396vroOxJf+6FBnojO5tZ5tVmNLqIh1XO3fMNYbFVwaKooO44R61vRC08W9i//37KuQc+Q6hVtE59+oSQAHf3qxuiYARlT9juxP/2cHyjgnyH3+jeb8YEn6ioF60EBnf7ew9qftBL6T2yKs/RcT2fk3WhLAwZ+Opm6D8SW3HFiS6ExeXK/2qtGnm9gSKogOg2pka6iAZZK/1ulevRSqJm4W4Ou530PBEb8+V4bOv1GSAA7+dCx1ezW69a7xH6d726+pV3uLFVMdvC06X7Pa/qqiIBbSEQnoCBkaDE2F+kwtYdt2ULFsFCsW8mUT2aIJ25F/9bof5WwFX8nGMO/IOxG174lBjO0ZEdb+nyZuwhujtwtrX7bOX/oBVLehxipQIiaUoAUELEADoD3TvVsOYAEoa3BKGpy8DjtrAKacvwOyff5urO9JSr38qC7Bbb5pb6htY898IBSQckG2BuDN0dqc6hfQVbRGg4iHDagL3OttOw4yhQqmcyWUTf8deSu7A5aGb+ZisCXNsUr5Ih7/ySOAoCRwiTaBO9vfD02p//ZXy2jB6JlfRylxUt3bPp5gZge6H3krtMqc6FAO02yoyRLUVAlKuLpZLSevw54Lwp4JApYcyYCsn3+1ZE8A6vKpG92Rz8o6+APAxaGi54O/oijoSITQ3x5HSySw4MEfODxbkIwE0N8eR0ciJLJGTEPq1SxsCsq7KDAYCSHd0yqs/YNWO35SOrfu7Vp6HKNnfEXKzr+UOAmjZ90s/HWAYtjQenIw1s1A68lVPfgDgBIxoXU/c63uHBRD7MOGzJ9/o6pLAhBNxm6oRzvV6NVNnOvxor+ArqKvLYp0NOhqikUBkI4Gsaw1Bp1HD3rqwmAJyyVeD9CzeqnQ9r+Wre/bOj9M+wpdE6AAamsB+poZqK0FwMtXlaoDte3wtbXOvLfXXiA/fP6NqOYJwKW3jL4n0hKJ1rqdagQVB68OFzy9CSFDw/LWGIIebucKGxr62mIIGv4o1+oHCoBrwwVpywVHkzHEWxPC2n+yshKPltfWpS0/df4ikgAlaEFfOQutJ1fbwVl1oHbkoa+YO7yWoE789Pk3mponAOFE6MO1bqNaW8JFJFTvpr0CuoredBRaDZ7WdU1FbyrCmQAPtag2LpG4PkD7cnGFgQDUpTywHzv/eiYBaksZ+qpZV1P9i6WETeirZqEmar9t1o+ffyOpaQJwybcHl0db4/21bKNay3UTpxnefcEVBViSjNRk8D9C11QsTUfhlyOU/eCMQFnaUx5bl7RBN8Qtnbmj8DLM2bWbvPNz51+PJEBNlaAtywiZkofqQFuegdpauwTZz59/o6hpAmC0Rz+nCdzTfCy64uCacMHTLRDt8VBdpuhDhobWmPh92o1CAXBluCDleQGqpiK9VNyJ2UUngNsKF9bk2o3Q+dcyCVDTRWhL5z2/7mJpPVmobd7XRmmEz78R1DQBiCTjV9by+tW6IFBCyuOp/1S0foNyOhrgqwAPtao2zpe0+qPI8wEA4L8L3p8P0Eidfy2SALWlDG1J1rPruaV15zx9HdBIn7/f1SwBuGTb/reE42G5CosDSCg2zg96+26r1eVq/8VSFQVt8VAdW2x8FwZLnq4H8UqkJYpoMias/Z2VZdhR8e4tXiN2/l4mAUrAkuLJ/8W03nlPFgY24ufvZzVLAALhyHtrdW03Lg0XYXi48ltVFMTDhmfXW6jEIgoL0YnpioOLJZ0FaF3SJrT92woXeHKdRu78PUkCFAfasnkx7/xPRH0mNhddTiN//n5VmwTAcdRYKn5qTa7tQrdmYYPHp/zFQrqQgfhIaWHyzimBMjq1+le/O5FWgesAAGBb8QI4Lue4mqHzd5sEqG2Fuq72XywlZB6uQVCFZvj8/agmCcDF20beKWPlv82houdT9RGB/5oi225ECoDNIflmAQLhIKKpuLD2x6xWPFFeVfXPN1PnX20SoBg2tA75DyLTOvOAvrhXZc30+ftNTRKASDT89lpc141ezcKqGmz3CgkszsPCQN5bo1dqciaEW22CXwPcXjq/qp9rxs6/miRAbfe4ul+tqA609oUnKs34+fuJ9wmA46iRZOxkz6/r0qYaFXwxNHGHaAQEtt3INgXkKw6UFpwA3FE4f9GvAZq5819UEqDZUFPyfeeORU0XAe3EswDN/Pn7hecjyKXbhq83RD4WH0WnatWs2IvIhXhcBFgbqwwTnapcswCBcBDRFnEVtcesVuw0ly3477PzX3gSoCZL/nj6P0J1oCaPv5OKn78/eJ4AGOHQDV5f063zQqW6btMj/zsnVPsyqIvV0pES2v59pdMX9PfY+T9nIUmAmpJv3cmJHG/Ggp+/f3ieAISioXO8vqYbccX2fOX/89mCzmwX3XajO8UoI67IVRcg2Sk2AfhlaeMJ/w47/5c6bhKg21Kv/D8WJWwedTEgP39/8TQB2PTdof5IIipuufJRnBEoo5bvIyqWuEGiLLDtRqcB2BisXeJYjXhrAprAswEeLa/FvBM55v/Pzv/YjpUEqDG5vmOLoUZfGDs/GjprLwAAIABJREFUf//xNAEIxkIfgETvpRUAGwO1/QUrVsS9Ky4JbLsZnGGUa39c5mIoClraW4Q1bzkaHiodvXNn539iR0sClIj/nv6PeH7s/Pz9ydP+zYgEtnh5PbdWGWbNy7vmy+J+gXMl/3YefpBQbfRJdlJgor1+59AfzUOlDS/5Z+z8F+7FSYAX5XVFORI7P3//8jQBCMVCK7y8nlune3jc77Fki6aQd/G24zABqIONAbkWA8bTCaHtP1pZ94L/zc5/8V6QBAR8/DsctPj5+5xnCcAl3x5cHoyEpTmnNqA4WFnDxX9H2I6DTKH+7/EyhQoXAdbBWt1EwMOzI9wKJyJC1wHsrix7dh0AO//qHUkCoMvzynTRNPDz9znvZgCSwRskev2PtYZZtzPep3Ml1HOIcBxgKuu/rUN+pCsOVkv0GkBRFMRS4k4HtKDid+XVHPw9UIqvA1SpVpksjqby8/c5z759wVDA+4PDXdig12/qtmzamMnVb0CezpWE7j5oNrXcRlqNeKvY1wCPmKdy8PeMRE9Ni+bj5IUAePgJBiKh9V5dyy1DcdBv1PepbWK+iEIdVuUXyhYms/4pG9oIVhgmjLrO8RxfTPA6gF8Hr+Hg7xFbFVfd0S1bFTcTRd7wLAEIRUJilyc/T59u1W36/wjHAQ5O52r6ZG5aNg7O5sFX//VlwEGvRAcERRNiB42BeZ5C6RVbFbet0y1LEZuIknueJACX3XbwdC2gSzMftEoTM2Vr2g6GZ/Iwa5AEVCwbB6Zrc206sVqcJFktPWjACBrC2p8rmpgtyHM//Kys9YsOoWoVfaXoEMglTwZt23Fe4cV1vLKyztP/z1eqWNg7mfW0PkChbGHfZBYlU56n0GazQrJ1ABHBswB7Z/kaygtlfbXoEKpWYgLge54kAAEjUN1h4TUQV2ykalz850Qs28GB6RwmsyVXW/WOrPbfP52FaXPeX6R21UZMohPbwgJPBgSAfdNMALxQCJwpOoSqFYyzRYdALnnyMk8LGetO/LfqQ5Z3tY4DTM4XMZsroS0eQiJsLPj43iO1BaayXO0vkyWaiZ22uKn354skjl2Tvx6GOAPgibxxIQ7vBJAnuVwYBQV5nvuoSp4kAEYg0OnFdbzQq8mRABxh2g7G5goYzxQRC+mIBHQEDQ0BTX02IbAdB2XLRqliIVcykSuJqS5Ix9erWdhZkSMBCMfCQts/OCdXhUS/MrUOFI2NCFUeEx3KohQCZ8LUOkSHQS55kgAEwwGxvdHz9Ei0WOv5jjzVi6gaSN5YKtF3KxAJCW3/UI4JgFfmIq9FaM5fCUAm9FrRIZAHXK8B2PKDgQ5ZdgAoADoEv/+nxtWp2tKUbQmEAtA0cb92M/kKSiZnqbyQCV0HWxH7SmcxbCWCTPiVosMgD7juQSq6PC+CkqotVd12aiwBxUGLRAlmICLu6A0HwDhnATxhqWnMRt4oOowFm43eAEtNiw6DPOA6AVA07XQvAvFCp2Tv/6nxdKryfMdEvwYYzzIB8Mp07L2+mAWw1RimI+8WHQZ5xHUCoOuaNDsA2iV6OqPG1KbJ8x0LCZwBAIBDWa5n8YqpdmEq/mHRYZzQZPQjMDVp1nyTS64TAFXXurwIxAtJJgBUYzJ9x/SA2B0JmaI8iyIbwXTkXSga8p6xUDROxUz0baLDIA958ApATXkRiBdk6pypMcn0HROdAMyXmAB4yVEMjKS+BluNiw7lJWwlipHkv8FR5NgGS95wnQBoqirNIUAyLdCixsQE4DmZkjzrIRpFWevHaMsXAEUTHcpzFA0jqX9DWV8lOhLymPsEwNCkOc8yLlHnTI0pIdEuEyMg9lQ+JgC1MR+6CmOJvxcdxjMUjCU+i2zwCtGBUA24XwOgaVIsXQ0oTt2PAKbmoysODEnKtuoCTwQEuAaglmYjb8Joy7/AUQT2aoqGsZbPYDbyB+JioJpyPwOgaVKMu2GJnsyoscnyXdMMsb962TJnAGppLvJ/MJL8Omw1Vve2bTWO4dQ3MBt5c93bpvpxX0pMVaSoAhiRpFOmxheW5FRARRVbl5AnVNbefOhKDLXdXdfdAUXjVAy13c1p/ybgxSJAKaqjsgIg1UtQklcAqio2964wAaiLsrYC+1rvwqHEX9d0NsBWwpiMfxT72m5HWeuvWTskD/c9iLLAM25rTKI1s9Tg5Eh5JZgBsJgA1Iuj6JiJvh2DbQ9iOvpOT6sG2koE09F3YbD9YUzGPgIHAc+uTXJz/RJRWegh9zWmSREFNQNdku+aInwGgLtu6s3UujCe+CtMxT6IRPEHSBS+j3D5UWDRs1IKCoEzkQm9Bpnwq2HJU86F6siLBMCLOFzTJJmWpcYny3dN9Ns3k2sAhbHUNGYiN2ImciM0ewLR8v0IlX+DoDkAw9oHzZ6CaucAALYahaW2oqItR0lfhWLgLOQCF8BS2wX/W5BoUqzgJyKi6lhqOzKhVyIT4hG9tDiu5xAdSRYCWdKc1E6NTpbvmi34d0/nwhsiX/MiAZAiA+B6JKoXU5LvmiP4HbwheA0CEbnj/jfYkSQBEB0ANQ1JJr2Ez77pXHlL5GuuEwDLkqM7LDnsjKg+ZPmu2cJnAOS4D0RUHS9mAKTYC5SXpFOmxifLd42vAIjIDde/waZlV7wIxK2CJJ0yNb6iJN81U3At/liQCQCRn7n+DbZNs+BFIG5VHAU8m4xqzXQUVCTZBWCWxebeiSB3ERP5mfsEwLKyXgTihYzNJxKqrTlJnv4BwBKcAMSZABD5mvttgKYz60UgXmACQLU2J9F3rFwWO+eVCMlzL4ho8TzYBWDNeBGIF2Yk6pypMcn0HeMMABG54cUrgENeBOKFWYk6Z2pMMs0AcA0AEbnhfheAaT3tRSBemJCoc6bGNGHJ8x0r5ktC2++MGULbJyJ33PdmFTziQRyemLBYnJxqa9yW5ztWzhWFtt8Z57nxRH7m/hVAXnnQi0C8MGOrKEu0SpsaS9lRpHoFUCqImwFQAHREOQNA5Geue7N7r++ZNMsVKaoBOgDGJeqgqbEcslVIUfcaQKVYhm2J+7VLhXUENP6uEfmZJ7/B5UJFimJAAHDQ5MIkqo0DEn23SnnB0/+xoND2icg9TxKASrkszU6AA1wHQDUybMrz3SpkxebcS1r4/p/I7zxJAMySucOL63hhvyXPUxo1DgfAsETfrcJcTmj7/amw0PaJyD1vEoBy5QEvruOFnK1gmusAyGNTloqcRAtM85m80Pb7UnwFQOR3noyUVrl0uxfX8coeid7VUmMYMOVa8Z7PiJ0BWJ4KCW2fiNzzJAG491X9j8uyEwAA9kjWWZP/yZRUVkplVEriqgCmwgaSIXnuBxFVx7O58lKuKM2hQEMVTZojW8n/KlBwQKIFgPk5Tv8TkXveJQCF0navruVWBQr2SvTERv42UNGlSiiz0xmh7a9vjwhtn4i84VkCUC6W7vLqWl7YUeZrAPLGjopc36X5KbEJwEmdUaHtE5E3vFsubzs3OY4sddKAnaZcT23kT6ajYLdEs0mO4yA7My+sfU1RsLaNMwBEjcCzBOBn1/QeLOWKYsuTPU/ZUTBQkafjJn/aaeqoyLT9by4Hy7SEtd+XDiFscJstUSPw9De5mCsMenk9tx6vsFoZufN4Wa7vkOj3/ye1c/qfqFF4mgCUC6U7vbyeW3squlSnt5G/zNqqdItJ5ybmhLZ/WjcTAKJG4enoaE8XPw+J1gE4AH7LxYBUpcfLAWlO/wMOv//PTIpLADRVwSldTACIGoWnCcDP3rBiX24uJ3aO8kUeLQcg7o0p+ZUJ4DHJXiHNT2VgVUxh7Z/UEUE0IE89BCJyx/P58WKu+Guvr+nGvKNiu2TvcUl+T5YDyNryLP4DgLlDM0LbP3NJXGj7ROQtzxMAq1C5yetruvWAZFO5JDcHwEMSJo2z40wAiMg7nicAP726+7/KxbJUs+4TloZByRZzkbwGKjomLLmmukuFEvICjwBujxro4wFARA3F+yXyimLnZud/5/l1Xbq3GOIsAJ2QA+C+knwD3fTwpND2X97fwrJaRA2mJnvkStnyl2pxXTdGLI2FgeiEdlUMjEj29A8A0yMTQtu/cHlSaPtE5L2aJAA/u7r7a+VCWdxy5WO4t8RZADo2B8DPi/KddFfKFZGdyQprvzMewOq2sLD2iag2alMl5/BrgMdrcm0XxiwNT7IuAB3DbysBHLLle/qfGhE7/b9pOaf/iRpRzcrklQrlf67Vtd24uxhCWaLa7iSHsqPgnqJ87/4BYGpY7PT/pn5O/xM1opolAD97Rc+3CtlCoVbXr9a8o+KBknzTvCTWfaWgdPv+ASA3mxW6+n9Vaxj9aTkTIyJyp6aF8vMz2Vtref1qPVgKYopnBNAzJmwVD0uaFE7sGxPa/pbVaaHtE1Ht1HQULDiZD1uWVCUBABwu87qtEOaCQIID4LZ8GNKtWAVgWzamBG7/C2oKLupvEdY+EdVWTROA+65YdSA7PS/VEcFH7DN1PCZhtTeqr0dKAey35NweOjU8AVNg7f9N/UnW/idqYDWfB89n8v9Q6zaqdXcxxOOCm9isreJnEhb9OWJc8PT/FWs4/U/UyGo++t1z9ZIvFjJ5cZuYj6PoKPjffBi26ECo7hwAPy6EUZJ0R0h2Jovs9Lyw9te0hbGuPSKsfSKqvbo8/man5r9Wj3aqsd/SuSugCf2iGMQ+ic+HGN09LLT9605uF9o+EdVeXRKAkeVTHy0XypV6tFWNn5dCOCBh+Veqjf2mjl+U5Z36L+WKmBmdEtZ+ZzyA85YlhLVPRPVRlwRg+4YN5czE7LZ6tFUN2wG+n49i3uF6gEaXtRX8IB+GLfEWkNGBg3AccQG++qQ2aIqcr0aIyDt1G/EUp/Bus2JK2+1mbQXfz0Ug36ZF8ortAP+Tj0id6JmlCib3HxLWfktIx2WruPiPqBnUrSe8c2vf6Nz4zE/r1V41hi0NdxZ46Emj2lYMS7vl74iRgWFYlrhlqddtaEdQ59M/UTOo66OQk8n8gVmuSL3o/pFyAA9yUWDD+WUpiMclr/tQKZUxPjgqrP1U2MAr1rUKa5+I6quuCcBdr141Pjc+d1s926zG3cUQnqzw1MBGsb1i4F5JD/p5vpFdYp/+X3tKG5/+iZpI3V+GlrLZN5aLZalftTsAfpyPYEDibWK0MHtNHT/OR6Qv+1wpljE+JK7wTzqs44o1fPonaiZ1TwDufVX/bGZ85vv1bnexLADfy0ewn0mAbw1bGr6bj0hZ5//Fhp/eD1vg0/8bNnYiqPHpn6iZCFkOfXDp1JuK2UJRRNuLYToK/jsfwQhrBPjOQUvDd3JRlCWt9Pd8+bkcJvaJW/nfnw7hstUpYe0TkRhCEoDtGzaU5yam/0xE24tVdBR8KxfFEGcCfOOAqePbuai0ZX5fbOiJQaH7/t9xdg/3/RM1IWEbou++auk/ZKYyYk87WaCyo+A/8xEMMgmQ3pCp4zv5iG8G/+mDk5ifnBPW/gV9LTi5KyqsfSISR2hFlPnZ+esdW+pdgc8yHQX/nYtiB3cHSGt7xcB/+mTaHwBsy8b+HUPC2g9oKt56Rpew9olILKEJwM+vXnrP7Nj0/SJjWAwTwA/yEdxXZJ0A2fy6HMAPfbLg74iRXcMo5cQthXntKW3ojMtdG4GIakd4TdTp0uxVxXyxJDqOhXJw+PCg2wpy15NvFhaAWwph3FkIS7/V7/kK8wWMCDzxr7cliNecwhP/iJqZ8ATgV1etzsyOzLxP4BqoqjxSDuCbuRiytj+mmxvRvKPiW9mY9BX+XsxxgL2P74ao11+qArzvZUtgqMJ//YlIICl6gJ9d0/OVufHpHaLjWKwDloavZmM8SliA/aaOr/j03o/vHcH8VEZY+69Y24aTOrjwj6jZSZEAAEC2NLO1XJC7QuDRzDsqvpmL4b5iEP5YzuhvNoAHSkF8Kx9FzoezL6V8CQd27BPWfkfMwJvO6BTWPhHJQ5oE4L4rVh2YHZn8oMj90NWyncPrAm7OxTBtS3NLG86creKbuSjuLoZ8uf7CcYDBx3bBMsXkuaoC/NHLehE2+B0lIokSAAD46dVL/mVudObXouOo1kFTw9eyMTxaDvhqQZrsHAC/KQfwb9kYDvi4FsPorgPITIjb8//aUzpwajen/onoMKkSAADQ8qWL85l8TnQc1So6CrYVwvhmNooJzga4NmOr+I9cFLcXwr4p7nM0udkshnfuF9b+qtYwXn9ah7D2iUg+0o1Qt1zTk5+bmPl9y/LdcoAX2G/p+Op8HPcWQ74pTCOTsqPg7mIIX56P+74Ms21ZGPjNTjiC3lsEdRUf2dQLXeX3kIieI10CAAD3XL1029TwxJdEx+GWCeAXpSD+NRvna4EFcgA8UTbwr9k4HigFfVXY51j2Pr4HxWxBWPvvOW8JliRYvIqIXkjqR4Kr7p16ItmZPll0HF5p1yxsCpaw3qjIfeMF2Wvq+GkxhDEfbu07lrE9B7Hvib3C2r/2pDa87exuYe0TNbP1PUmpu3qp51a1+dK5uXB2JJqItYiOxQsTlob/yUfQo1m4KFjESsNs+kTAATBQ0fHzUgijDTTwA0B2OoP924eEtb++PYq3nMla/0R0dNKPPy//0eCpXcuWPmqEjMYaHQCkVRtnB0s4I1CWOxOrAQvAjrKB+8tBTDTYwA8AlVIZT9zzOCrFspD2U2EDn79mFdLhZvtmEclD9hkAqYM74pJtI+/sWN75JVWTcsmCazHVwRmBMjYaZbSojV1OaNZW8XglgMfKgYYto2xbNnb88gnkZuaFtB/UFPztFSuwpj0ipH0iOowJgEcuu33kc+3Luz+o+CbixVMArNBNbAyUsUY3oSuNsWzQdBTsNHU8Xg5gr6k39GJIxwEGHn4a0yOTQtpXFeBjFy3DBcsb4q0Zka8xAfDQ1p+M35le2r5FdBz1YCgO1ugmNhgVrPRhMmA6CgZMHdsrBnaZOswm2Qq5/8m9GB04KKz9PzyrG6/a0CasfSJ6DhMAjzXazoCF0AEs102s0k30GxW0S/qaYNJSscc0MGDq2G/qDbGFbzHGh8aw9/EBYe1fsSaN952/RFj7RPRCsicAvlshlN+bOVvT9aF4a6JpTjQxAewxdewxdaAYQlRxsFQ3sUyzsEQ30anaCNR5hqDkKBi3VQybOg6YGoYtHbkmeco/mpnRKQz9do+w9s9blsC7z+sR1j4R+Y8ve+zN3x2PJXpCe2Otcc514vCHmFRtdKgW2jQbSfW5PwnFqfr1gekoyDgKZm312T+TlopDtoY5W23od/mLMTcxi10P7YBtiZmZ2dgdw59fuhyBBl0kS+RXss8ASB3c8Wz+zkhby4r4QLSlMWoE1JIBB2Hl8J+Q6kAFoAHPzhqUHQUWDh+1W7QVFJzDf1iu6MSy0/N46oEnYQs64W9dewSfurwfIZ7wRyQdJgA1dMktB5YkO1t3huJhHnFGdZefy+GpXz4BsyJmtUN/OoS/vWIFYoHGq6NA1AhkTwB8/djws2t6D87vnzq9MJ/Pi46Fmkt2Jit08F/TFsbfcPAnIhd8nQAAwE9e07s7M5pdkZvNzoiOhZpDZiqDpx8QN/hv6IzgU5evQJyDPxG54PsEAADuvrbz0Nze+TXZmfkp0bFQY8tMzGHng9thVcS88z+1O4pPXtqPSKAhfnWJSKCG6UXuvb5nMnNoatX8VOaQ6FioMU2PTuHpB7cLW/B3/rIEPnlZHxf8EZEnpF6gUI0N27cHlk90PdJsxYKotib2jWHw8T2Ha/0KsGV1Gu89rweq2nC/skQNS/ZFgFIH58bldx36QdvSjlc18tkBVB/DT+/Hwaf3C2lbAfD6jZ24/rQOIe0TUfVkTwAadi7xJ1s6X31o38hnRRVnIf9zbBsDD+8UNvgbqoqPXNTLwZ+IakLq7MQLm7cNv6N9SfsXjSBXTdHCVYpl7PrVU8gKOtI3Hdbx8YuXYy2P9CXyLdlnAKQOziubbxlZ19IWfyCajKVEx0Lym5/KYODhp1EuloW0v6Ejgo9dtAzpiCGkfSLyBhMASWy+aW8o3Je4J9WVPk90LCSv8aExDP12DxxBi/22rknjXef2QONiPyLfYwIgmctvH/tyurftHZrGIir0HNu0MPj4AKaGJ4S0HzJUvO/8JbioPymkfSLyHhMACV3yo/2bEp3pWyMt0bjoWEi87EwWex7ZiWK2IKT9NW1hfPjlvViSCAppn4hqgwmApDbftDcUWha7I9XdepHCvYJNa2zPCPZv3wvHrv+UvwLgmvVteOtZXdA55U/UcJgASO6ybSMfTPW0fsYIsbB6MynlS9jzyC7MT80Jab8jZuDDF/ZiQycPsiRqVEwAfGDLDwY6tFTqR8nO9HmcDGh840Nj2L99r5B6/gqAK9ak8dYzu1nPn6jBMQHwkc3bht+R7mr9fCgS4svYBlTMFbD3sQFkJsU89ffEg3jfy5bglC4+9RM1AyYAPnPubbsT6WDylmRXepOi8gmtEdiWjZFdwxjZfUDIu/6ApuK1p7Thtad08F0/URNhAuBTF39/77mRjuR3WtqTK0THQtWbGZvGvicGUcoVhbR/Tm8Cbz+7G13xgJD2j8iXbTx8MIPfjuYwNFPAoWwF2bIFS0BCRETPqgCYBZwhKMrjgPMzXVG37fzYhXUpQcoE4AQu2zbywXh78q/D8XBYdCy0cMX5PIae2Iu58Rkh7fe2hPC2c7pwRo/YnaYHMyX8zxMT+PnQLEomB3siH8g7Cv4Tqv3pwY9etLuWDTEBWIAN27cHeg623pxsT7/OCBncLSCxcqGEgzsPYGLfISHV/NoiBl5/WgcuW52CJnBFacly8B+PjeFHT03B5lM+kR9VAOWfrFLlz4f+4uKaTGEyAViEzd8djxktzpeSncnrebiQXMxSBaMDBzE2OAIRJ0C2hHS8akMbrlnfhqAm9tdqZL6Ev75nH/bNlITGQUSeeMi0nVfv+/imUa8vzASgClt+MNChJFpuTrS3bDUCBu+hQGa5gpHdBzE+OAJLwMCfCOq47uQ2XL2uDUFd/FdhcLqA//eTIcwVTdGhEJF3hm3becXej2/6nZcXFd9j+diWHwx0ONH4PyRaE68LRkNiV3k1mVKuiLHBEYwPHYJt1X8/f2c8gN9b34atq1MI6nJMBo3Ml/CR2wY5+BM1pmFLM88e+ujFY15dkAmABzbf4+h6cfQTsVT8A5GWGM8XqKHcbBZje0YwOTwBCHjHv7I1jGvXt2FzfwtUibb0lS0bf7xtDwZnxOx2IKK6eKQU1F4+/KGXeXJwiTw9WIO4ZNvIO0Px0B/H04mVPHHQG5ZlY/rgBMaHxpCdrsvumBcI6gpe3pfE1jVprGuP1L39hfjab0bxw+2TosMgohpTHOUvB/70wk94ci0vLkIvdcktB5ZogcDfRVPxV0fiYTlHDckV5vOY3D+O8aExmJX6T2v3JkO4dGUSV6xJIy7xUREHMyW860e7udqfqDlkLc1c7cWrACYAdXDZLSPXByLBD0RS0TMC4aAuOh6ZlXJFTI1MYmp4Avm5XN3b74wH8PLlLbioP4n+dKju7Vfjn+8fxl0DYuodEFH9KY7ypYE/vfDdrq/jRTC0QI6jXrxt5IZgJPieeCp+Gk8gPKxUKGH64CSmD04iO1P/Kf72qIEL+1pwYV8L1rb5a7ImX7bxxu/tYJEfoibiADlDVbrdVgzk02g9KYp9D/B1HP6Di28bvUjX1Q9EYuGLIi3RdLOcPeA4DvJzOcyMTWN2bBq52Wxd29cUBf3pEM7pTeCcpXGsbA37NhN++GCGgz9Rk1GAqGnjKgD/7eY6TAAEuueq7p8D+DkAbLpzoFe3w+8PhkNbQtHw6lA0FFYa5Gxix3FQyOQwPzWPzMQs5iZn63oUr6YoWJ4K4aSOCE7rjuG0rljDHMX729H6vyYhIhk4l4AJQGO474pVBwB85Jk/uOSWA0sUVXtTIGRsDUSCG4KRUEoPGL4YtSqlCvJzOcxPZ5CdyiA7Mw/LrN+Anwzr6E+FsL4jivUdEaxriyDsj1u3aEMznuwGIiL/OdXtBRrjEbNJbP7B/pM1Q7tKD+oX6MHASUZQ7zRCgaiossTlYhnlfBGF+QLy83kU5nLIZ3KolCp1aT8dMdAZDWBpSwDLkyH0pUPoS4WQDDVPXnv9fz2FTImFf4ia0Pie//vyTjcXaJ6esgHc++plTwJ48sX/fPMP9yYVw7hA1bUzVFVZr6pal6aqaUVTWzRNi6mGFtYNPQAAiqboiqJAVVWo2uFKNrZpwXYcwAGsZ7bbVcomrHIFlbIJs1x59k8xX0I5X0QpX/Ky5n4WQAVwbECZO/yPnClAmbp4RXJrIqghHtSRCOnojBnoiAXQGTMQ0BrzqX4x8nV8lUJEUmlxewEmAA3g3lf1zwLY9syfRfn2LwaOvYJMAxB+5g+AwxNGoWf+eOMNL1913FmoW0dmucLtOEzu/SdqVkG3F+AjFBERURNiAkBERNSEmAAQERE1ISYARERETYgJABERURNiAkBERNSEmAAQERE1IdYBaHJnrGw77v9v2w7Kpo1MoYKpTAGFMgvPkDc0RcGq1jBO7opiZWsIS+JBtEYNhHUVQX1xzyYl00bBtDGVq2A4U8LgdBFPjGWxZ6oIy/FnrYRmvD99qRC2rE5hY3ccnTEDAHAoW8Fjo1nctXsK+2ZKgiNsLEwA6LhUVUEooCEU0NCeCGEyU8DwZB4O5Ok0yF/6UiFcvjqNzf0taPGobHPwmUExGdKxsjWMi/oP//PZoomf753DT3ZPY2im6ElbtdaM98dQVdx4TheuXNMK9UWlwZYlg1iWDOLqdWncsXMaX3l4lAWwPMIEgBZMUYD2ljBCho6B0QyTAFqU1a1hXL+xA2ctTdTtEJJkSMe161vxe+tb8fCBDL7z23EMTMl5gFKz3h9DVfHJy/pwanf0uH9PUxS8Yl2YJDErAAAbmElEQVQrlrYE8YmfDjEJ8AATAFq0eMTA0vYIDkzwKFo6sWhAw5vP6MLWNemXPN3ViwLgnN4EzlqawO27pvDNRw8hJ8nrrGa/P287p/uEg//zndYdw41nd+PLvxqpYVTNgYsAqSpt8TBCAU10GCS5Va1h/NPVq3DVWnGD2/OpCvCKta34wu+txtr2iOhwmv7+9KVC2Lomveifu3JtGsuSrkvhNz0mAFQVRQHa4t4dCkSNZ1NfEp+9aiW64wHRobxEe9TA323tx8v7XB+oVjXeH2DL6lRViY+mKLhi9eITB3ohJgBUtXhEvo6L5HDV2jT+eFMvdBkea4/BUFV8ZNOyqp5A3eL9Oez07ljVP7uxO+5hJM2JCQBVLbDIrUjUHDb1JfHOc5dIMaV9IqoCvPu8JXWdCeD9eU57tPqHiI5ntglS9bgIsMm84SnnFAe4EcClAPr+as7d9X71yydd/fzqv3/ACYQCpXA8/FQ4HvnkL17T/7/uIiKR1rZF8KGXL/XF4HaEqgAfevlSjM2XsbvGK+B5f14oZFT/EBF28bN0GO9gk7hytxO8fofzRQd4HMD7AWwAsPCltzViWxaKuUJwZmx64+jugz888+vbf7f5u+PVzwuSMNGAho9eJPe09rEYqoqPXbQM0RoubOX9IdkwAWgCV+52gikTt0PBuyDxZ+7Aweyh6VOmp0b2Mwnwnzef0YXOmH/XhXTFA3jj6Z01uz7vD8lG2sGAvJOq4J8AXCw6joXKzc6n5vPj94uOgxZudWtYyGI6r125No3+tPe7W3h/SEZMABrcG55yToGCt4uOY7HmRmdPfdn39l4rOg5amOs3dvjqvfaxaIqCN5zm/VMu7w/JiAlAg3tmwZ/vPmcHDkrZwp+LjoNOrD8VwllLE6LD8My5yxJYnvKuyAzvD8nKdwMDLdplogOoVjGXO0l0DHRil69O1a12fT0oAC5f6d10Pe8PyYoJQONbJjqAapULFT5mSE5TFGzqT4oOw3ObVyShKe6Hbd4fkhnrADQ+366mt02LPYzkVrWGkfToyNqH9mdwx+5p7J4sYK5oLupnkyEdq9siuGJNCuf1up9uT4Z19KdDrk/G4/0hmTEBIKKqndzlvpREybTxmV8cwEP7M1VfY7Zo4uHhDB4ezuBlyxP48IXLENTd5Y+ndkddD3C8PyQzvgIgoqqt8GBLmNvB7cUe2JfB5355wPV1+lNh19fg/SGZMQEgoqotTbhbpvHQ/oyng9sR9++bw68OzLu6xtIW90tQeH9IZkwAiKhqrVF3B7LcsWvao0he6s7d7q7dGnb/hpT3h2TGBICIqhbW3dWG3zVZu3fIuybyrn7ei7r3Mt+fnRLcHxKLCQARVc3tidAly/ImkKNY7Er5F/PiuOuAy4V28yV3/w7Hk5Hg/pBY/ASJqGrzZXcDeHe8du+RHZc/78UeVLfXcPvvUMtrc4+u/zEBIKKquX1CPc2DbXLHU6jYQn6WyA+YABBR1TJFdzMAr9rQDkOtXTc0mStX/bPj2YqHkRDJhwkAEVVtYLro6ufbogY+dlFvzcrKPjqaq/pnHxtxt02OSHZMAIioak+PVz/AHnHesgT+7JJl6IoHPIjohe7aPQXLWfzbbstxcOfAjOfxEMmECQARVW2HBwkAAJy9NIEvXrsa779gKda0Rzy5JgDsmynhjp2L3+++7ekpHJh1N7tBJDtWciCiqk3lTeyczGNtm/tBO6Cp2LIqhS2rUhicKeKOXdP4+eAsci53Gnzl4VEsbQnitO6FnYv1+GgWX/vNmKs2ifyAMwBE5Mpdu72fKl+RCuHd5/bgm69d53pWwLQdfOKnQ7j16eO/DrAcBz9+ahKf+OkQLLuWG/CI5MAZACJy5b69s3jbWd0IGd4/TwR1b2YFTNvBl381gtt2TuGK1Wls7I6jM3a4TO+hbAWPjczjzoEZTvtTU2ECQESuFCo2fvz0JF53SkdN2zkyK3DjWV349YF53LFrGo+PZhd1jf2zJXzl4VEAo7UJkshHmAAQkWvffWICl61KI12HA2ICmooL+1pwYV8LDswVcffALO7cNe26KiFRs+EaACJyrVix8Y1H6/9U3dsSwg1nduFmD9YKEDUbzgAQkSfuHpjFqZ1xXLoqWfe2n79WgLMCRAvDGQAi8swXHxrGnqnaHWG7EEdmBb7xunX4k4uWYeMCt/8RNRsmAETkmZLl4G9/vh+TOfF19I+sFfjUln585qoVOHNJXHRIRFJhAkBEnhqbL+Ojd+zByHxJdCjPWt8exScv68PnXrEKa7lOgAgAEwAiqoHxbAUfu30vdk2KfR3wYmvawvjM1hV44+md0FSeaE/NjQkAEdXETKGCj9y+B//1u3HYElXWU1UFv39qBz571UqkwobocIiEYQJARDVj2Q7+47FD+Mgdg9g5mRcdzgusbg3j01f2oyPGJICaExMAIqq5nRN5fHjbHvz5T4Y8O0HQCz3xIP5+68qaHEVMJDsmAERUN4+OzOOjtw/ij24dwB27plGs2KJDQlvUwJ9dvBxBnd0hNRd+44mo7gamCvjCgwfxpu8/hS88eBCD02IXC/alQvjABUuExkBUb6wESETC5Ms27tg1jTt2TWNNewRb16RxUV+LkKfxTX1J/GZ4Hj/bM1v3tolEYAJARFLYNZHHrok8vvrwCDb1JXHV2jRWpMN1jeGtZ3bjoQMZ5MviX00Q1RpfARCRVI7MCrz/loG6rxVIhnVct6G9Lm0RicYZACLyTF8qhC2rU9jYHUfnM9vrDmUreGw0i7t2T2HfzOKqAx5ZK3DTI2O4aEUSW9eksSIVqkXoz7p2fRu+9+SEFAsUiWqJCQARuWaoKm48pwtXrmnFiwvsLUsGsSwZxNXr0rhj5zS+8vAozEUWBsqVLdz29BRue3qq5msFQoaKTX1J3LV72vNrE8mErwCIyBVDVfHJy/rwirUvHfyfT1MUvGJdKz55WR90F2V4d03k8c/3D+NN33saX/zVCAZnilVf61i2rk55fk0i2TABICJX3nZON07tji7475/WHcONZ3e7bvfIrMD7f7wbH7ptD+4amEHZ8mbafk17BOkwJ0ipsTEBIKKq9aVC2Lomveifu3JtGsuSQc/iODIr8O4f7cavD2Q8ueb6zoUnNUR+xASAiKq2ZXXquNP+x6IpCq5YvfjE4UTG5sv41D378IuhOdfXOqmdCQA1NiYARFS107tjVf/sxu64h5E8x3aAz/1iGJO5iqvrrEjXdrcBkWhMAIioam3R6g/RqeUpfBXbxg93TLi6RjKkeRQNkZyYABBR1cJG9V2Im59diN+Nujt1MB7kIkBqbEwAiKhqi9vN/1LVbwY8sZH5xRUderF40P0MgMz3x+213f67eXGNWt6fZsAEgIiqVjbddeG1fMoO6+4G8MUWKzoat/cnEard/Wlxee2SB5USZb4/zYAJABFVrVCxXP382vaIR5G81Jo2dwcJ5cru/t0A9/dnTZu89ydvuk8AZL4/zYAJABFVbSrvbqX9FWtqV3GvmvoEzzdVMF3H0Mj3Z9rlvxv+f3v3HhxXed5x/Hf27K6k1epqW5ZkS1gGYxtVGEwKDuSCHbAChEmaKW2TdtJ2kmkb0mnTlJDSScFuM1OcTDJJZhJoKZ1J47qZ/pEmgzEYE4gNGeyQxjdcjC+S8EW2bOu+klZa7Z7+YZwEsHU7Z/fdc87387/f8+gZyfvbc877vCru/oQBAQDAnJ0acvecfU1Tpd7bXOlRNb9225Iq3dzkbt1Tg+5+Nsmb/tx6VXH25+Sg+xHMxdqfsCAAAJizjj73HwIPvL/Z0//Eb1tSpS/c1uR6nc7+MddreNGfv31fs267qsr1Opd41Z+uWZ7seDnF2J8w4Q0KAHN28GzK9RolUUt/f/tV2nNyWNuP9unIhVENzPL2e3VZVNfOK9OHl8/TzYu9GTC03+U2Qsm7/jx0e3PR9Wdvt/ufrVj6E1YEAABzdrw3rYH0pKo9eBv7lqYK3dKUn+mAs9U/llFnn/s7APRnan7vz/hkTj2pjPaeSem5o71604O7IoXEIwAAc5Z1HO3sdD93v9j8tGNQHuwCDGx/Xjw+6MkcAL/3pyQaUXN1iT66cp6+fe8yffaWRldHXRcaAQCAKzuO9nnyYVAsHEk7jvV5tl7Q+iNJL3UNeLZWUPpjW5buWTFPG+9Y4psQQAAA4EpXf1qvenQEbzHYfWJIJwa8u5UbtP5I0p/d0uDZKOeg9WdVQ1Kf+e0G02XMCAEAgGtb9p/z5Ja5aVnH0X/t6/F83aD055KVC8q14Y4WlXoUAoLWn7uW16q5usR0GdMiAABw7VjvmJ450mu6DNe2vdGrjn73W9PeKSj9+U2tdQn9051LPLkTELT+2Jal9mXuBi0VAgEAgCf+45c96hmeMF3GnJ0ZntD393r/7f8Sv/fncry8ExC0/tzQUBw7NqZCAADgiZGJrDbtOqFMzv2M+EKbyOb06M4TGp3IX+1+7s9UWusS2uhBCAhaf+qSMdMlTIsAAMAzRy6MadPOk8o6/nmgm3Okb7x8Ssd73e9rn44f+zMTXj0OCFJ//PAjEAAAeGr3iSE9vrvbFy915RzpO7tP6+Wuwu1F91N/ZsOrxwFB6c/5EfeHJeUbAQCA55450qevFfnt3Ewup027Tmj7Ee/2/M+UH/ozF611CW1Y534ffBD6s+/MsOkSpkUAAJAXL3UN6oFtHTpThC92nUtl9KVnO/WzAn7zf6eXugb14LYOnS3C/rjxW/XlnuyD93N/so6jZ4/2my5jWgQAAHlzvHdMn996TE8f7i2K57pZx9FThy/oL586oiPnR02Xo6O9Y/rrIuqPV7zaB+/X/jx9uFcnB7zfTuo1AgCAvBqZyOqxPd36/NZj2n1yyMjYV0cXny3/zVPH9C97zuT1bf/ZKob+eM22LLVfO8+TtfzWn31nUnryF2dNlzEjnAYIoCA6+9L6ygtvqrm6RO3LavXBlmpVl+X3v6D+sYx2dgzquWN9no73zQdT/flpx6B2dQ7oMzc3qrUu4dnaNzYkPVtLMtOf2cg6jp4+3Ksnf3FWWZ+8weiPEwswZ598Pb/3zfb86OV8Lq+tf9yW1/X97iPfO2i6hDmzLUsttaVqqy/X1fPKtKiyRPMTUZVF7Vm/SZ7O5DQ2mdWF0UmdGhxXR9+YDpwdUWffmG/fJve6P6OTOfWNZnRyMK3O/rT2dV/sz6X2lMYi2nhHi2chIJ3J6Xe3HPJkrcvxsj9zlc68dRxw97C2H+sv+G3/4w+939VnePHEJwChknUcHesd07EC7L/3o0L3J53J6eEdndrwoSVqqy93vV6+cxe/P+7xDgAAQJI0PpnTxhe6dOic+xck/bAPPuwIAACAX7l0J+Dg2RFX6+ztTnlUEfKFAAAAeJvxyZw2/KRrziHg4j74wg9YwuwQAAAA7+LmccC2N/yxDz7sCAAAgMtKZ3J65PnZPQ7YfyalJ1/1xz74sCMAAACuKJ3J6R92dGrrNNP4Lk1ZfOT5Lk36de9lyLANEAAwpcmco8f3dGvbG71qv3aebmxIauFb592fHc5o39mUnj3Sx21/nyEAAD4WjVh820LBnBgY1xM/7zZdBi5yPdqSRwCAjyVitukSAJjh+ihLAgDgY/UVMdMlADCjw+0CBADAx1pqy0yXAMAER/vdLkEAAHxsVYP7me0A/Mey9BO3axAAAB+7eVGlSqL8GQNh4kgjJeOTz7hdh/85AB8rjUX0gZYq02UAKCDL0pZDG9a6PmyBAAD43H1tC2RHXB0LDsA/JmxHj3qxEAEg+IZNFzBXdsxmg/sMNFaU6GPXzTddBoACsBx948hD73e9A0AiAITBSdMFzFWsNOZ60EVY/OENdVq+IGG6DAB55byi5PAGr1YjAASdox2mS5ir0mT5IdM1+EXcjujLa5s1v5y5AEBAddvZ6H3H/upuz74YEQACzpb+TVLWdB2zZclSsqx0o+k6/KSmLKZHPrRE8xOEACBgTjpW7sNHvnzraS8XJQAE3Pevs16T9LjpOmarqr5m/87fX/qU6Tr8pqWmVN+69xq1LmQ+ABAMzitZe/Lmjr/74EGvVyYAhEAmpy/Ig6ERhZKsqehrnF9zq+k6/KqqNKqvrF+iT6xayIwAwL8mHDn/bJWn1nY9uPZsPi7A3qGQuO+QE49F9HVJn5Xk2Qkye370sldLyZKlqvqa/Y3za2596t7GUUl6vXuAnQAu9I9l9IP95/X88X6NT+ZMlwNgGo40Ykn/aUubvHrb/0oIACHziUNOqxXRpx3pTktaIinpZj23ASASs514aWy8NFl+KFlWuvGdt/0JAN5IZ3J69fSwDpxJ6Xh/WueGJ5SayHKUMGDWhKQBR+q05Oy1rMiLJenMNi+G/MwEASDkXu8eGJcUn+u//+XxC3O+tmVJn3zfNVP+DhIAAPjVysbqov6M5QEhhkxd2I5EuCcNAIYQANBp6sKxSGTU1LUBIOwIANhn6sLxWOSEqWsDQNgRAELOcawXTF07Zmu7qWsDQNgRAELOiY1vlTRS6OtGLEtV9uSmQl8XAHARASDkWuvqUpb0g0JfN1kWPbymbWlPoa8LALiIAADlstYmSZlCXc+SpfJE/C8KdT0AwLsRAKDrmqqOOo6+WajrVSViu9etbNhZqOsBAN6NAABJUtlE1cNytDvv14lHh+dlytvzfR0AwNQIAJAktbRY6Vws+juWdDJf14jZdra6zFq7Zs08Y8OHAAAXEQDwK611ybPK5j4i6ZTXa8fsSLamouT31l1/1f96vTYAYPYIAHibFU21B6KWvVrSLq/WLItHh2srylff2db4Q6/WBAC4QwDAuyxrqDgfHalaL8f5R7mYEWDJUk2i5JVGp2LxHW0LD3hYIgDAJQIALmvZMmt85aKaR3LR6DWO9JhmEQQilqWqRPz1+vmJ2+++qelWnvkDQPEp6qMKUTwOnTuXtDLxeyxLayXdIKlFUvXe471x27ZyUdseLbF1Iha3n6uyJh71asgPxwED8KtiPw64qIsDCAAA/KrYAwCPAAAACCECAAAAIUQAAAAghAgAAACEEAEAAIAQIgAAABBCBAAAAEIoaroAYCpdPUM/7ktNfNR0HXNlWZYilhS1I7IjlkpitspitkrjUZWXRRWzyeAAzCjqIQWAJG3ff/o7vUPp+x0FbyZQWdxWRSKu2mSJEiXkcSBIin0QUFEXB1yy4+DpL/YOjW/K5nKB/Z0tjUc1r6JE8ytLZUcC+2MCoUEAADzy3MGTf9Q/nPneZDYX6PvmdsRSXXWZ6qrKCAKAjxEAAA9tP3DiA0OjkzsmMrm46VryzY5Yaqgt14KqUv5QAR8q9gAQ6G9SCJ7265t3VVYmbiqN26Oma8m3bM7RqQspHT09qPFM1nQ5AAKGAADfab+u/rVkabYlWRo9b7qWQkilMzp8akD9qXHTpQAIEAIAfKl91TXnKhOJpRWJWJfpWgohm3PU2TOsU70jAdwLAcCEon4+AUzHcZzIM3tP/ax/ZHyN6VoKpTZZoqvqkrIs/nyBYsY7AEAeWZaVu3t103trk/Efm66lUPpS4zreMyzH4V4AgLkjACAQ7rqx+WPzK0sfs0JyU2toZEJd51I8DgAwZwQABEb7qsX3L6gufdCORELxudifGld374jpMgD4FAEAgXJn26Kv1VbGPhW1IznTtRRCz8AYuwMAzAkBAIGzvq1pc3UyujYei0yYrqUQTlxIMScAwKwRABBIoRoYlHX05rlh02UA8BkCAAIrTAODUulJ9Q7zKADAzBEAEGhhGhjU3TuibC4U7z8C8AABAIG3trUude/q5qtrykt2m64lnzLZnM4PjJkuA4BPEAAQCr8eGFTyP0GeFNAzOMZdAAAzQgBAqNx1Y9PH51WWfTeoA4OyOUe9Q2nTZQDwAQIAQqd91aLP1VWUPGBHrEB+Vb7Ay4AAZoAAgFC644bFX6+tjAdyYFB6YlJj45OmywBQ5AgACK31bU2bF9SUrYtFIxnTtXitj+mAAKZBAECorVvZsLOqKrE6aAODhkYDl2kAeIwAgNAL4sCgsYlJTWYD93QDgIcIAICCOTAoleY9AABXRgAA3hK0gUHpCQIAgCsjAAC/IUgDg9ITnBAI4MoIAMBlBGFgEEcEA5gKAQC4Ar8PDJpkJDCAKRAAgCn4eWAQZwIAmAoBAJjG+ramzdXJ6Np4LDJhupbZIAAAmAoBAJiB9uubd1VWJm7y08AgxyEAALgyAgAwQ0EcGAQgvAgAwCwEcWAQgHAiAACzFLSBQQDCiQAAzEGQBgYBCCcCAODCxYFBpY/5eWAQgHAiAAAuta9afL+fBwYBCCcCAOABPw8MAhBOBADAI34dGAQgL8ZNFzAdAgDgIT8ODAKQF8OmC5gOAQDwGAODAIgAAIQTA4OA0LtguoDpEACAPGFgEBBejpw3TNcwHQIAkEcMDALCKaIIAQDApYFBZd9lYBAQDjnlDpmuYToEAKBA2lct+hwDg4BQyNmyXzJdxHQIAEABMTAICIX9yxsreQkQwNutb2vavKCmbF08FsmYrgWA9xxHz5uuYSYIAIAB61Y27KysTKxmYBAQPI7jbDFdw0wQAABDGBgEBJHzf62La/aZrmImCACAQQwMAgLnSdMFzBQBADCMgUFAYPRZscknTBcxUwQAoAgwMAjwP8eyvrliwYKiPwPgEgIAUEQYGAT4Vk9JSfbbpouYDQIAUGQYGAT4jyPri1fX1g6armM2CABAEWJgEOAru1Y2VG42XcRsEQCAIrW+rWlzdTK6Nh6LTJiuBcDlWdKAbetPLct/d+wIAEARa7++eVdlZeImBgYBxcmR8+lrF1Z3mK5jLggAQJFrv67+tUUJZ2myNFb0s8WBMLEsfXVlY80PTdcxVwQAwAfWtC3tqUyUtTAwCCgaW5bXVz1kugg3CACAT1waGFSdLPm56VqAUHOcrSMNVX9iWZavX9IlAAA+YllW7p4bm25hYBBghiNn80hj9cffY1m+P82TAAD4EAODgIJzLEtfXdlQ/akgfPhLBADAtxgYBBTMkGXpD1Y0VH/Jj9v9roQAAPgYA4OAvNtlRXTDiobq/zZdiNcIAIDPMTAIyIs+SX++oqHq9hX11Z2mi8kHAgAQAAwMAjzT61jWw/HS3NKVjdX/GqRb/u/EG0RAgOw+2LGwJ22/lkpn5kvS6qvnmy4J8IvXHDn/7kQzT7TW1aVMF1MIBAAgYF48dC45nB47ODyaWUIAAK4oZ0kHco52OI6zpXVxzT7TBRUaAQAIIMdxItv2ntqztL7iPaZrAQyakJSSNCCpT3LesBQ5nFPukC37peWNlYzXBgAAAAAAAAAAAAAAAAAAAAAAAAAAAAAAAAAAAAAAAAAAAAAAAAAAAAAAAAAAAAAAAAAAAAAAAAAAAAAAAAAAAAAAAAAAAACgSP0/2kS9Nzmi+WYAAAAASUVORK5CYII=;" vertex="1" parent="1">
          <mxGeometry x="720" y="80" width="80" height="80" as="geometry" />
        </mxCell>
        <mxCell id="OGwYj7ShU7cMMN8LMooF-83" value="SQL Analysis" style="text;html=1;align=center;verticalAlign=middle;whiteSpace=wrap;rounded=0;" vertex="1" parent="1">
          <mxGeometry x="730" y="165" width="60" height="30" as="geometry" />
        </mxCell>
        <mxCell id="OGwYj7ShU7cMMN8LMooF-84" value="Visualization" style="text;html=1;align=center;verticalAlign=middle;whiteSpace=wrap;rounded=0;" vertex="1" parent="1">
          <mxGeometry x="730" y="335" width="60" height="30" as="geometry" />
        </mxCell>
        <mxCell id="OGwYj7ShU7cMMN8LMooF-85" value="Machine Learning" style="text;html=1;align=center;verticalAlign=middle;whiteSpace=wrap;rounded=0;" vertex="1" parent="1">
          <mxGeometry x="710" y="480" width="100" height="30" as="geometry" />
        </mxCell>
      </root>
    </mxGraphModel>
  </diagram>
</mxfile>
